<?xml version="1.0" standalone="no"?>
<!DOCTYPE svg PUBLIC "-//W3C//DTD SVG 1.1//EN" "http://www.w3.org/Graphics/SVG/1.1/DTD/svg11.dtd" >
<svg xmlns="http://www.w3.org/2000/svg" xmlns:xlink="http://www.w3.org/1999/xlink" version="1.1">
<metadata>
Created by FontForge 20170731 at Fri Jan 15 02:50:44 2010
 By Aleksey,,,
(c) 1990, 1991, 1992, 1994, 1997, 1998, 2000, 2002, 2004 Adobe Systems Incorporated. All rights reserved.
</metadata>
<defs>
<font id="MinionPro-Medium" horiz-adv-x="400" >
  <font-face 
    font-family="Minion Pro Med"
    font-weight="500"
    font-stretch="normal"
    units-per-em="1000"
    panose-1="2 4 5 3 5 2 1 2 2 3"
    ascent="727"
    descent="-273"
    x-height="438"
    cap-height="650"
    bbox="-295 -360 1684 995"
    underline-thickness="50"
    underline-position="-200"
    unicode-range="U+0020-FB06"
  />
<missing-glyph horiz-adv-x="500" 
d="M500 0h-500v700h500v-700zM420 650h-340l170 -255zM450 95v510l-170 -255zM80 50h340l-170 255zM50 605v-510l170 255z" />
    <glyph glyph-name="T_h" unicode="Th" horiz-adv-x="1077" 
d="M1058 0h-216v27q43 5 53 17t10 60v166q0 120 -94 120q-58 0 -98 -48v-238q0 -47 9.5 -59.5t52.5 -17.5v-27h-219v27q47 5 58 17t11 61v501q-62 7 -195 7h-65v-486q0 -64 15 -78.5t83 -19.5v-29h-287v29q65 5 80 20t15 78v486h-58q-64 0 -87 -7t-35 -26q-19 -28 -33 -88
h-31q10 120 12 183h20q11 -16 22 -20.5t33 -4.5h415q60 0 78 5t18 20v14q41 7 88 24v-334q66 70 139 71q66 1 103.5 -41.5t37.5 -127.5v-176q0 -49 10.5 -61t54.5 -17v-27z" />
    <glyph glyph-name="Tcaron_h" unicode="&#x164;h" horiz-adv-x="1077" 
d="M1058 0h-216v27q43 5 53 17t10 60v166q0 120 -94 120q-58 0 -98 -48v-238q0 -47 9.5 -59.5t52.5 -17.5v-27h-219v27q47 5 58 17t11 61v501q-62 7 -195 7h-65v-486q0 -64 15 -78.5t83 -19.5v-29h-287v29q65 5 80 20t15 78v486h-58q-64 0 -87 -7t-35 -26q-19 -28 -33 -88
h-31q10 120 12 183h20q11 -16 22 -20.5t33 -4.5h415q60 0 78 5t18 20v14q41 7 88 24v-334q66 70 139 71q66 1 103.5 -41.5t37.5 -127.5v-176q0 -49 10.5 -61t54.5 -17v-27zM446 822l15 -26q-72 -53 -127 -110h-23q-41 44 -127 110l16 26q72 -31 123 -61q68 38 123 61z" />
    <glyph glyph-name="Tcommaaccent_h" unicode="&#x162;h" horiz-adv-x="1077" 
d="M1058 0h-216v27q43 5 53 17t10 60v166q0 120 -94 120q-58 0 -98 -48v-238q0 -47 9.5 -59.5t52.5 -17.5v-27h-218v27q47 5 57.5 17t10.5 61v501q-62 7 -195 7h-65v-486q0 -63 15.5 -78t82.5 -20v-29h-287v29q66 5 80.5 20t14.5 78v486h-58q-64 0 -87 -7t-35 -26
q-19 -28 -33 -88h-31q10 120 12 183h20q11 -16 22 -20.5t33 -4.5h415q60 0 78 5t18 20v14q41 7 88 24v-334q66 70 139 71q66 1 103.5 -41.5t37.5 -127.5v-176q0 -49 10.5 -61t54.5 -17v-27zM313 -28q30 0 52.5 -23t22.5 -59q0 -80 -109 -108l-10 27q61 27 61 59q0 30 -46 42
q-15 4 -15 24q0 18 13 28t31 10z" />
    <glyph glyph-name="f_b" unicode="fb" horiz-adv-x="812" 
d="M459 407l73 31q31 12 47 12q82 0 140 -61t58 -149q0 -108 -74.5 -180t-178.5 -72q-74 0 -153 36v594q-39 45 -95 45q-42 0 -64 -37q-25 -41 -24 -149v-39h112q5 -8 1.5 -22.5t-12.5 -19.5h-101v-282q0 -53 13 -67t71 -19v-28h-239v28q44 5 55.5 18t11.5 60v290h-70l-4 12
l28 30h46v21q0 46 11 81q24 71 79 117q56 46 118 53q47 -2 77 -23q43 12 69 24l5 -6v-298zM459 377v-262q0 -20 5 -35q7 -19 29 -36.5t55 -18.5q59 -1 95.5 51t36.5 138q0 84 -42.5 132t-105.5 48q-44 0 -73 -17z" />
    <glyph glyph-name="f_f_b" unicode="ffb" horiz-adv-x="1083" 
d="M730 705v-298q35 15 73 31q31 12 46 12q82 0 140.5 -61.5t58.5 -148.5q0 -108 -75 -180t-180 -72q-72 0 -151 36v593q-16 21 -41 35t-52 14q-41 0 -64 -36q-26 -37 -27 -154v-38h113q5 -7 1.5 -21.5t-12.5 -20.5h-102v-292q0 -48 12.5 -60t64.5 -17v-27h-224v27
q39 5 49 17.5t10 60.5v291h-182v-292q0 -48 10.5 -60t53.5 -17v-27h-219v28q45 5 56 17t11 59v292h-70l-4 11l28 31h46v11q0 33 13 74q26 66 84 110q58 46 128 53q77 -3 115 -47q64 63 140 71q48 -2 78 -23q28 7 67 23zM370 438v17q0 71 30 128q-15 24 -43.5 42t-63.5 18
q-53 0 -78 -48q-27 -46 -27 -133v-24h182zM730 376v-261q0 -21 6 -34q6 -19 28.5 -36.5t55.5 -18.5q57 -1 94.5 50t37.5 138q0 84 -43 131.5t-106 47.5q-44 0 -73 -17z" />
    <glyph glyph-name="f_f_h" unicode="ffh" horiz-adv-x="1093" 
d="M1075 0h-216v28q43 5 53 16.5t10 58.5v167q0 121 -95 121q-58 0 -98 -49v-239q0 -47 10 -58.5t52 -16.5v-28h-211v28q41 5 51 17t10 59v513q-41 49 -92 49q-43 0 -65 -39q-25 -38 -25 -151v-38h112q5 -7 1.5 -21.5t-12.5 -20.5h-101v-293q0 -46 11.5 -58t57.5 -17v-28
h-217v28q40 5 50 17t10 59v292h-183v-292q0 -47 10.5 -59t53.5 -17v-28h-217v28q43 5 54 17.5t11 58.5v292h-69l-4 11l28 31h45v11q0 28 14 74q24 65 83 111q61 47 131 52q73 -2 113 -47q63 64 136 72q47 -2 77 -23q40 9 70 23l5 -5v-326q69 69 139 70q67 2 104.5 -41
t37.5 -129v-178q0 -47 10.5 -58.5t54.5 -15.5v-28zM371 438v18q0 71 30 128q-15 24 -43 41.5t-65 17.5q-53 0 -78 -50q-27 -50 -27 -131v-24h183z" />
    <glyph glyph-name="f_f_j" unicode="ffj" horiz-adv-x="800" 
d="M458 438h84q122 0 185 13l1 -337q0 -95 -23 -161q-24 -65 -60.5 -119.5t-60.5 -76.5q-15 -12 -28 -12q-11 0 -24 14t-13 31q0 18 22 24q54 13 69 34t22 72q8 64 8 192v229q0 37 -7.5 46.5t-42.5 9.5h-132v-296q0 -46 10.5 -57.5t58.5 -16.5v-27h-219v27q42 5 52 16.5
t10 57.5v296h-182v-293q0 -48 10 -60.5t54 -17.5v-26h-218v27q44 5 55 17t11 60v293h-70l-4 11l28 30h46v19q0 36 13 71q24 67 83 112q61 44 128 51q84 -3 120 -53q71 68 149 73q71 -1 109 -47q15 -21 7 -39q-9 -18 -24 -27q-20 -14 -34 1q-1 1 -9 10t-11.5 12.5t-12 11.5
t-15 12t-16 9t-19.5 7t-21 2q-40 0 -62 -41q-27 -42 -27 -145v-39zM370 438v25q0 40 10 70q7 26 20 48q-16 26 -46 46t-66 20q-51 0 -74 -45q-26 -48 -26 -136v-28h182z" />
    <glyph glyph-name="f_f_k" unicode="ffk" horiz-adv-x="1057" 
d="M1074 0l-140 -2q-33 35 -162 198q-16 21 -28 21q-10 0 -16 -2v-110q0 -48 12 -60t60 -17v-28h-224v28q44 5 54.5 16.5t10.5 60.5v512q-41 48 -92 48q-44 0 -65 -37q-26 -40 -26 -152v-38h113q5 -7 1.5 -22.5t-12.5 -19.5h-102v-294q0 -46 11.5 -57.5t57.5 -16.5v-28h-217
v28q40 5 50 16.5t10 57.5v294h-182v-292q0 -47 10.5 -59t53.5 -17v-28h-219v28q45 5 56 16.5t11 58.5v293h-70l-4 10l28 32h46v10q0 33 15 76q24 64 81 109q60 47 132 53q74 -3 112 -47q63 63 138 71q48 -2 76 -22q35 7 69 22l5 -5v-463q39 9 63 35q37 37 69 87
q15 22 9.5 31t-38.5 13v27l207 9v-27q-47 -7 -72.5 -19t-53.5 -38q-31 -31 -85 -94q18 -27 72.5 -92t81.5 -92q29 -29 47.5 -40.5t45.5 -13.5v-28zM370 438v18q0 72 30 128q-41 59 -108 59q-49 0 -78 -50q-26 -43 -26 -132v-23h182z" />
    <glyph glyph-name="f_f_t" unicode="fft" horiz-adv-x="865" 
d="M857 35l-72 -36q-23 -11 -40 -11q-103 0 -103 120v289h-183v-295q0 -47 12 -58.5t63 -16.5v-27h-223v27q40 5 50 17t10 59v294h-183v-295q0 -46 10.5 -58t54.5 -17v-27h-221v28q46 5 57 16.5t11 57.5v295h-70l-4 11l27 30h47v12q0 35 13 71q25 67 83 112q62 48 132 53
q75 -3 114 -48q63 64 133 72q50 -1 78 -31q16 -18 7 -36q-8 -18 -25 -29q-12 -8 -25 4q-40 40 -81 40q-31 0 -50 -32q-22 -39 -20 -156v-32h183v65l74 70l14 -3v-132h111q7 -8 5 -21.5t-12 -19.5h-104v-254q0 -53 17 -74.5t40 -21.5q27 0 61 16zM371 438v19q0 71 29 126
q-42 60 -108 60q-49 0 -77 -46q-27 -44 -27 -136v-23h183z" />
    <glyph glyph-name="f_h" unicode="fh" horiz-adv-x="822" 
d="M804 0h-216v27q42 5 52.5 17.5t10.5 59.5v166q0 61 -23.5 90.5t-70.5 28.5q-59 0 -98 -47v-238q0 -47 10.5 -59.5t51.5 -17.5v-27h-213v27q41 5 52 17.5t11 59.5v513q-38 47 -95 47q-42 0 -64 -37q-24 -36 -24 -152v-37h111q5 -8 2 -22.5t-12 -19.5h-101v-285
q0 -53 10.5 -66t53.5 -18v-27h-218v27q44 6 55 18t11 59v292h-69l-3 10l27 32h45v18q0 47 11 83q24 71 79 116q57 48 117 55q48 -1 77 -23q39 8 70 24l5 -5v-326q69 69 139 70q66 2 103.5 -41t37.5 -130v-175q0 -48 10.5 -60t54.5 -17v-27z" />
    <glyph glyph-name="f_j" unicode="fj" horiz-adv-x="530" 
d="M188 438h83q124 0 187 13v-337q0 -96 -24 -162q-43 -119 -121 -194q-14 -13 -29 -13q-11 0 -24 13.5t-13 30.5q0 18 21 24q56 14 71 34q17 22 24 74q7 67 7 195v225q0 37 -8 46.5t-43 9.5h-131v-297q0 -46 11 -57t58 -16v-27h-226v27q48 5 58.5 16.5t10.5 56.5v297h-70
l-5 11l29 30h46v23q0 41 14 80q23 68 81 114q60 48 128 55q74 -2 108 -47q15 -21 6 -40q-6 -14 -24 -25q-19 -13 -31 1q-52 62 -105 62q-39 0 -62 -41q-27 -46 -27 -149v-33z" />
    <glyph glyph-name="f_k" unicode="fk" horiz-adv-x="787" 
d="M804 0l-140 -2q-49 54 -161 198q-17 21 -29 21q-10 0 -16 -2v-110q0 -48 11.5 -60t59.5 -17v-28h-225v28q45 5 56 16.5t11 60.5v514q-39 44 -94 44q-43 0 -65 -37q-27 -47 -24 -151v-37h111q5 -6 2.5 -21.5t-11.5 -20.5h-102v-283q0 -54 10.5 -67t54.5 -18v-28h-220v28
q45 5 56 18t11 60v290h-70l-3 10l26 32h47v18q0 47 11 83q23 69 80 116q57 48 115 55q51 -2 77 -22q38 8 70 22l5 -5v-463q37 7 63 35q36 36 70 88q16 22 11 30.5t-40 12.5v27l205 9v-26q-48 -8 -72.5 -19.5t-52.5 -37.5q-17 -16 -85 -95q17 -26 72 -91.5t82 -93.5
q29 -28 47.5 -39.5t45.5 -13.5v-28z" />
    <glyph glyph-name="f_t" unicode="ft" horiz-adv-x="592" 
d="M586 35l-71 -35q-23 -12 -41 -12q-103 0 -103 120v288h-183v-292q0 -47 11.5 -60t59.5 -17v-27h-228v27q47 5 58 17.5t11 58.5v293h-70l-5 12l27 30h48v23q0 44 11 77q22 72 80 119q56 46 112 53q51 -1 79 -31q16 -16 7 -37q-6 -15 -25 -28q-13 -9 -26 4q-38 38 -80 38
q-32 0 -50 -30q-23 -36 -20 -161v-27h183v67l74 69l14 -3v-133h111q7 -7 5 -21.5t-12 -20.5h-104v-254q0 -95 58 -95q28 0 60 16z" />
    <glyph glyph-name="longs_b" unicode="&#x17f;b" horiz-adv-x="811" 
d="M457 406l72 32q27 12 47 12q82 0 141 -61t59 -149q0 -107 -75.5 -179.5t-178.5 -72.5q-74 0 -153 36v596q-41 46 -91 46q-44 0 -66 -42q-25 -46 -25 -175v-337q0 -55 11 -67.5t61 -17.5v-27h-225v27q45 5 55 16.5t10 61.5v292h-69l-4 10l28 31h45v21q0 44 11 79
q19 68 79 118q55 46 117 54q47 -1 78 -24q34 8 67 25l6 -6v-299zM457 377v-263q0 -20 6 -34q6 -18 29 -35.5t56 -18.5q58 -1 94.5 49t36.5 139q0 82 -43.5 130.5t-107.5 48.5q-37 0 -71 -16z" />
    <glyph glyph-name="longs_h" unicode="&#x17f;h" horiz-adv-x="821" 
d="M801 0h-214v27q42 5 52 16.5t10 59.5v168q0 61 -24 90.5t-72 28.5q-57 0 -96 -47v-240q0 -47 10 -59t51 -17v-27h-212v27q43 5 53 16.5t10 59.5v517q-40 47 -93 47q-41 0 -64 -41q-25 -45 -25 -190v-326q0 -53 10 -65.5t55 -17.5v-27h-218v27q44 6 54.5 18t10.5 58v294
h-70l-4 10l28 31h46v21q0 44 11 79q19 68 79 118q58 47 116 54q50 -1 78 -24q36 9 69 25l5 -5v-327q68 70 138 71q67 2 104.5 -41t37.5 -129v-177q0 -49 10 -60t54 -16v-27z" />
    <glyph glyph-name="longs_i" unicode="&#x17f;i" horiz-adv-x="542" 
d="M54 438h46v21q0 39 14 79q23 70 83 118q62 49 127 54q70 -2 109 -49q13 -19 6 -37q-8 -15 -24 -27q-20 -13 -32 0q-51 64 -106 64q-37 0 -62 -42q-27 -46 -27 -186v-325q0 -51 10 -63.5t54 -17.5v-27h-217v27q44 5 54.5 16.5t10.5 58.5v295h-70l-3 10zM523 0h-219v27
q45 5 55 17t10 63v201q0 50 -9 61.5t-52 19.5v23q83 13 149 39v-343q0 -52 10.5 -64t55.5 -17v-27z" />
    <glyph glyph-name="longs_k" unicode="&#x17f;k" horiz-adv-x="784" 
d="M801 0l-140 -2q-34 35 -160 198q-15 20 -29 20q-9 0 -15 -2v-110q0 -48 11.5 -60t59.5 -17v-27h-223v27q45 5 55 16.5t10 59.5v516q-43 48 -93 48q-44 0 -65 -42q-24 -45 -24 -184v-333q0 -51 10.5 -63.5t54.5 -17.5v-27h-219v27q44 5 55 17t11 57v296h-70l-4 10l27 31
h47v21q0 46 11 79q19 70 78 118q59 47 116 54q54 -2 78 -24q37 9 69 24l5 -5v-462q36 7 62 33q39 41 72 92q13 19 7.5 27.5t-39.5 12.5v27l205 9v-26q-48 -7 -74 -19t-53 -39q-26 -25 -84 -93q17 -25 70 -89t84 -97q27 -28 46.5 -39.5t47.5 -14.5v-27z" />
    <glyph glyph-name="longs_l" unicode="&#x17f;l" horiz-adv-x="541" 
d="M526 0h-221v26q44 5 54 17t10 62v516q-41 45 -91 45q-39 0 -64 -37q-27 -41 -27 -197v-320q0 -54 9.5 -67t52.5 -18v-27h-215v27q45 5 55 17t10 61v292h-70l-3 10l27 31h46v21q0 44 11 80q24 71 78 116q56 47 118 55q50 -1 79 -23q42 12 66 23l6 -6v-599q0 -50 11 -62
t58 -17v-26z" />
    <glyph glyph-name="longs_longs" unicode="&#x17f;&#x17f;" horiz-adv-x="542" 
d="M99 438v9q0 39 14 72q26 67 79 112q61 49 130 55q76 -3 115 -50q61 64 132 74q57 -1 83 -33q18 -18 8 -35q-7 -17 -23 -26q-13 -10 -25 1q-41 43 -83 43q-35 0 -54 -38q-18 -42 -18 -197v-316q0 -51 11 -63.5t57 -18.5v-27h-219v27q43 5 53 17t10 61v291h-70l-4 11l27 31
h47v18q0 70 31 125q-53 63 -114 63q-48 0 -76 -55q-23 -43 -23 -181v-303q0 -50 9.5 -61.5t52.5 -16.5v-27h-216v27q45 5 55.5 16t10.5 56v297h-69l-4 11l27 31h46z" />
    <glyph glyph-name="longs_longs_i" unicode="&#x17f;&#x17f;i" horiz-adv-x="812" 
d="M100 438v9q0 38 13 73q30 71 80 112q59 48 129 54q77 -3 120 -52q68 71 152 76q73 -2 110 -50q15 -19 6 -37q-7 -17 -23 -26q-20 -13 -31 1q-53 63 -107 63q-40 0 -64 -42q-27 -48 -27 -179v-332q0 -50 10.5 -63t55.5 -18v-27h-218v27q43 5 53.5 17.5t10.5 59.5v292h-70
l-4 10l27 32h47v20q0 70 31 121q-47 62 -116 62q-47 0 -73 -49q-24 -45 -24 -185v-301q0 -49 10 -61.5t52 -17.5v-27h-217v27q45 5 56 17t11 59v293h-71l-4 10l28 32h47zM798 0h-223v27q44 5 55 17.5t11 61.5v202q0 50 -9 61t-53 19v24q88 14 150 39v-344q0 -50 11.5 -62.5
t57.5 -17.5v-27z" />
    <glyph glyph-name="longs_longs_l" unicode="&#x17f;&#x17f;l" horiz-adv-x="813" 
d="M801 0h-223v27q42 5 53 17.5t11 61.5v515q-37 43 -89 43q-46 0 -69 -39q-25 -43 -25 -192v-322q0 -53 10.5 -66t54.5 -18v-27h-219v27q44 5 55 18t11 60v291h-70l-4 10l28 32h46v18q0 71 30 127q-42 60 -113 60q-45 0 -73 -48q-27 -43 -27 -183v-302q0 -52 10 -65t52 -18
v-27h-216v27q44 5 55 17.5t11 59.5v292h-70l-4 10l28 32h46v9q0 37 13 73q27 70 80 113q60 48 130 54q74 -1 117 -51q67 67 139 74q50 -2 78 -23q33 7 68 23l5 -5v-599q0 -50 11.5 -62t59.5 -17v-27z" />
    <glyph glyph-name="f_f" unicode="ff" horiz-adv-x="570" 
d="M98 438v13q0 39 14 78q25 65 79 107q58 47 127 54q80 -3 119 -50q61 61 132 71q54 -3 83 -35q13 -15 6 -35q-7 -13 -23 -26q-17 -13 -31 1q-43 43 -82 43q-31 0 -49 -32q-20 -36 -17 -155v-34h119q4 -7 1 -21.5t-11 -19.5h-109v-293q0 -49 13 -61t68 -17v-26h-229v26
q40 5 50 17.5t10 60.5v293h-182v-293q0 -48 10.5 -60.5t54.5 -17.5v-26h-220v27q45 5 56 17t11 60v293h-70l-4 11l27 30h47zM368 438v19q0 39 8 73q7 26 20 50q-43 67 -111 67q-48 0 -72 -45q-27 -49 -27 -139v-25h182z" />
    <glyph glyph-name="f_f_i" unicode="ffi" horiz-adv-x="811" 
d="M794 0h-216v27q40 5 50 16.5t10 56.5v241q0 37 -7.5 46.5t-43.5 9.5h-131v-296q0 -46 10.5 -57.5t53.5 -16.5v-27h-213v27q42 5 51.5 16t9.5 58v296h-182v-293q0 -48 10 -60.5t54 -17.5v-26h-217v27q44 5 54.5 16.5t10.5 60.5v293h-69l-4 11l27 30h46v19q0 37 12 73
q22 63 85 111q60 44 126 51q86 -3 121 -52q70 67 149 72q72 -1 111 -48q15 -19 7 -39q-9 -16 -25 -27q-20 -13 -34 2q-2 2 -9 10.5t-11 12.5t-12 11.5t-15 11.5t-16 9t-19 7t-21 2q-40 0 -64 -41q-27 -42 -27 -146v-39h83q123 0 187 13v-351q0 -45 10.5 -57t57.5 -16v-27z
M368 438v25q0 32 9 70q9 31 20 50q-16 27 -45 46.5t-66 19.5q-50 0 -74 -46q-26 -50 -26 -137v-28h182z" />
    <glyph glyph-name="f_f_l" unicode="ffl" horiz-adv-x="813" 
d="M797 0h-216v27q40 4 49.5 15.5t9.5 56.5v521q-12 20 -35.5 33.5t-50.5 13.5q-42 0 -67 -34q-29 -36 -29 -146v-49h115q4 -6 1 -21t-12 -20h-103l-1 -296q0 -47 10.5 -58t54.5 -16v-27h-215v27q42 5 52 16.5t10 57.5v296h-182v-293q0 -48 10 -60t53 -17v-27h-216v27
q44 5 54.5 16.5t10.5 60.5v293h-69l-3 11l27 30h45v18q0 39 14 73q24 63 81 107q59 48 131 54q77 -2 118 -48q64 63 139 69q55 0 91 -25q11 4 44 22l10 -5v-604q0 -45 10.5 -56t58.5 -16v-27zM370 438v19q0 45 11 82q7 22 20 47q-16 25 -45 42.5t-65 17.5q-52 0 -78 -48
q-25 -45 -25 -135v-25h182z" />
    <glyph glyph-name="longs_t" unicode="&#x17f;t" horiz-adv-x="588" 
d="M54 438h46v21q0 41 11 77q21 72 83 122q55 44 112 52q49 -3 78 -30q17 -19 7 -37q-6 -14 -26 -29q-13 -7 -24 3q-41 43 -81 43q-29 0 -50 -34q-22 -41 -22 -189v-327q0 -51 11.5 -64.5t60.5 -18.5v-27h-226v27q45 5 55.5 17.5t10.5 58.5v294h-70l-5 11zM581 34l-71 -35
q-23 -11 -40 -11q-103 0 -103 120v289h-68l-4 10l28 31h44v66l74 69l14 -3v-132h110q6 -8 4 -21.5t-11 -19.5h-103v-255q0 -96 57 -96q29 0 59 15z" />
    <glyph glyph-name="f_i" unicode="fi" horiz-adv-x="543" 
d="M527 0h-217v27q40 5 50 16.5t10 57.5v240q0 37 -8 46.5t-44 9.5h-130v-296q0 -46 11 -57.5t56 -16.5v-27h-224v27q46 5 57.5 17t11.5 57v296h-71l-4 11l28 30h47v23q0 41 14 80q22 67 81 114q64 50 128 55q73 -2 108 -48q15 -19 6 -39q-8 -17 -24 -26q-19 -12 -31 1
q-51 63 -105 63q-40 0 -61 -40q-28 -45 -28 -150v-33h82q125 0 188 13v-350q0 -46 11 -57.5t58 -16.5v-27z" />
    <glyph glyph-name="f_l" unicode="fl" horiz-adv-x="542" 
d="M528 0h-219v27q41 5 51 16.5t10 57.5v518q-13 20 -37 33t-50 13q-40 0 -66 -35q-29 -39 -29 -137v-55h114q4 -6 1 -21t-12 -20h-103v-297q0 -46 10.5 -57t54.5 -16v-27h-222v27q47 5 58 16.5t11 56.5v297h-70l-4 11l28 30h46v17q0 55 15 91q22 65 81 112q54 44 120 52
q50 0 86 -23q17 4 47 21l9 -5v-602q0 -46 11 -57.5t59 -16.5v-27z" />
    <glyph glyph-name=".notdef" horiz-adv-x="500" 
d="M500 0h-500v700h500v-700zM420 650h-340l170 -255zM450 95v510l-170 -255zM80 50h340l-170 255zM50 605v-510l170 255z" />
    <glyph glyph-name=".null" horiz-adv-x="0" 
 />
    <glyph glyph-name="nonmarkingreturn" horiz-adv-x="333" 
 />
    <glyph glyph-name="space" unicode=" " horiz-adv-x="225" 
 />
    <glyph glyph-name="exclam" unicode="!" horiz-adv-x="277" 
d="M138 665q57 0 57 -32q0 -22 -7 -79q-12 -90 -33 -353q-4 -6 -18.5 -6t-17.5 6q-27 310 -33 353q-8 66 -8 79q0 32 60 32zM138 -12q-26 0 -42.5 17t-16.5 45q0 26 17 44t43 18t43 -18t17 -44q0 -28 -17 -45t-44 -17z" />
    <glyph glyph-name="quotedbl" unicode="&#x22;" horiz-adv-x="329" 
d="M124 710l7 -6q-22 -183 -28 -226l-30 -14q-20 177 -32 217zM279 710l7 -6q-22 -187 -28 -226l-30 -14q-28 207 -32 217z" />
    <glyph glyph-name="numbersign" unicode="#" horiz-adv-x="483" 
d="M451 456l-10 -62h-91l-30 -134h86l-10 -62h-90l-38 -173h-41l38 173h-106l-38 -173h-41l39 173h-96l11 62h100l29 134h-92l9 62h97l34 153h40l-33 -153h105l33 153h41l-33 -153h87zM310 394h-106l-29 -134h105z" />
    <glyph glyph-name="dollar" unicode="$" horiz-adv-x="483" 
d="M266 366l30 -12q143 -51 143 -167q0 -72 -46.5 -119t-126.5 -56v-87h-36v84q-92 0 -158 41q-13 48 -28 134l31 7q41 -134 155 -147v236l-35 15q-130 54 -130 155q0 63 43.5 109t121.5 55v79h36v-77q50 0 89 -13q7 -2 18 -4.5t16 -3.5q21 -120 22 -125l-29 -7
q-15 52 -39 82t-77 38v-217zM230 380v203q-45 -5 -68 -33.5t-23 -65.5q0 -69 91 -104zM266 268v-223q43 6 67.5 34.5t24.5 70.5q0 37 -17 64.5t-63 48.5z" />
    <glyph glyph-name="percent" unicode="%" horiz-adv-x="758" 
d="M595 628l-404 -661l-32 24l402 661zM195 635q70 0 108 -56t38 -124q0 -69 -37.5 -125t-109.5 -56q-71 0 -108.5 55.5t-37.5 124.5t37.5 125t109.5 56zM194 604q-27 0 -43.5 -28.5t-21 -58.5t-4.5 -62q0 -22 3 -45t10 -48t21.5 -41t35.5 -16t36 16t21.5 41.5t9 47.5
t2.5 45t-2.5 45t-9 47.5t-21.5 41t-37 15.5zM567 349q70 0 108 -56t38 -125q0 -68 -38 -124t-109 -56q-70 0 -108.5 56t-38.5 124q0 69 38.5 125t109.5 56zM566 318q-27 0 -43.5 -28t-21 -58t-4.5 -63q0 -22 3 -45t10 -48t21.5 -41t35.5 -16t35.5 16t21 41.5t9 47.5t2.5 44
q0 23 -2.5 45.5t-9 48t-21.5 41t-36 15.5z" />
    <glyph glyph-name="ampersand" unicode="&#x26;" horiz-adv-x="712" 
d="M719 427v-29q-48 -6 -68.5 -20t-47.5 -53q-15 -21 -87 -131q41 -40 91.5 -100.5t73.5 -101.5l-7 -9q-43 3 -81.5 16t-48.5 24q-3 3 -19 21t-34 37.5t-33 34.5q-97 -130 -206 -130q-91 0 -145.5 55.5t-54.5 126.5q0 41 19.5 74.5t43.5 54t72 54.5q9 6 13 9q-71 68 -71 139
q0 67 49.5 113.5t117.5 46.5q64 0 108 -39.5t44 -99.5q0 -51 -42 -87q-28 -25 -80 -60q104 -91 165 -153q31 47 58 110q15 34 3.5 47.5t-63.5 20.5v29h230zM286 624q-34 0 -56.5 -27.5t-22.5 -70.5q0 -37 21.5 -66.5t70.5 -66.5q70 51 70 127q0 43 -23 73.5t-60 30.5z
M283 58q44 0 85 25t66 60q-85 94 -208 194q-82 -60 -82 -137q0 -67 42 -104.5t97 -37.5z" />
    <glyph glyph-name="quotesingle" unicode="'" horiz-adv-x="175" 
d="M124 710l7 -6q-21 -178 -28 -226l-30 -14q-21 184 -33 217z" />
    <glyph glyph-name="parenleft" unicode="(" horiz-adv-x="347" 
d="M303 -147l-20 -23q-107 72 -159.5 186t-52.5 254v1q0 139 52.5 252.5t159.5 186.5l20 -24q-73 -63 -114 -174.5t-41 -241.5t41.5 -242.5t113.5 -174.5z" />
    <glyph glyph-name="parenright" unicode=")" horiz-adv-x="347" 
d="M275 269q0 -292 -211 -439l-20 24q73 62 114 173.5t41 242.5q0 130 -41.5 243t-113.5 174l20 23q211 -144 211 -441z" />
    <glyph glyph-name="asterisk" unicode="*" horiz-adv-x="404" 
d="M365 491l-132 -25l39 -138l-24 -10l-71 130l-122 -76l-15 23l102 93l-104 103l16 22l121 -81l58 133l25 -6l-27 -139l134 -3v-26z" />
    <glyph glyph-name="plus" unicode="+" horiz-adv-x="579" 
d="M529 229h-208v-229h-61v229h-209v52h209v206h61v-206h208v-52z" />
    <glyph glyph-name="comma" unicode="," horiz-adv-x="233" 
d="M96 135q32 0 63.5 -31.5t31.5 -79.5q0 -55 -40 -91t-98 -53l-11 30q79 33 79 87q0 52 -64 68q-13 3 -13 27q0 19 15.5 31t36.5 12z" />
    <glyph glyph-name="hyphen" unicode="-" horiz-adv-x="353" 
d="M300 255l-14 -58h-232l14 58h232z" />
    <glyph glyph-name="period" unicode="." horiz-adv-x="233" 
d="M115 -12q-25 0 -41.5 17t-16.5 44q0 26 17 43t42 17t42 -17t17 -43q0 -27 -16.5 -44t-43.5 -17z" />
    <glyph glyph-name="slash" unicode="/" horiz-adv-x="330" 
d="M300 665l-218 -709h-58l217 709h59z" />
    <glyph glyph-name="zero" unicode="0" horiz-adv-x="483" 
d="M243 635q72 0 120 -50.5t66.5 -120t18.5 -152.5q0 -58 -11 -112.5t-34 -103.5t-64.5 -78.5t-96.5 -29.5t-97 28t-65 76t-34.5 103t-11.5 116q0 58 11.5 113t35 103.5t65.5 78t97 29.5zM240 600q-31 0 -53 -24.5t-33.5 -67.5t-16.5 -90.5t-5 -104.5q0 -120 26.5 -205
t83.5 -85q31 0 53 25t33.5 68.5t16.5 91t5 104.5q0 78 -9 139t-34.5 105t-66.5 44z" />
    <glyph glyph-name="one" unicode="1" horiz-adv-x="483" 
d="M388 0h-281v28q66 4 80.5 18.5t14.5 69.5v381q0 39 -7.5 48.5t-40.5 10.5l-48 2v25q90 16 187 52v-519q0 -55 14.5 -69.5t80.5 -18.5v-28z" />
    <glyph glyph-name="two" unicode="2" horiz-adv-x="483" 
d="M417 146l28 -9q-6 -19 -35 -137h-378v24q117 117 161 169q58 70 90 126.5t32 113.5q0 61 -30 95.5t-85 34.5q-75 0 -136 -92l-23 21l58 83q56 60 138 60q70 0 120 -47t50 -123q0 -62 -30 -114.5t-103 -128.5l-138 -143h182q43 0 60 10.5t39 56.5z" />
    <glyph glyph-name="three" unicode="3" horiz-adv-x="483" 
d="M289 379v-2q65 -12 102.5 -54.5t37.5 -99.5t-31 -104.5t-75.5 -74.5t-87 -41.5t-71.5 -14.5q-32 0 -60.5 11t-41.5 23q-20 17 -18 36q1 17 25 36q13 10 26 0q61 -54 125 -54q52 0 83.5 39t31.5 111q0 64 -38.5 96.5t-87.5 32.5q-22 0 -62 -10l-7 29q76 25 116.5 57.5
t40.5 82.5q0 45 -26.5 69.5t-67.5 24.5q-64 0 -119 -78l-22 20l45 64q51 57 129 57h1q68 0 109.5 -37.5t41.5 -95.5q0 -41 -31 -70q-16 -17 -68 -53z" />
    <glyph glyph-name="four" unicode="4" horiz-adv-x="483" 
d="M461 177h-95v-70q0 -50 12.5 -62t71.5 -17v-28h-263v28q64 5 77.5 17.5t13.5 62.5v69h-259v31q177 262 302 424h45v-406h95v-49zM278 226v290h-2q-102 -142 -192 -290h194z" />
    <glyph glyph-name="five" unicode="5" horiz-adv-x="483" 
d="M152 544l-26 -180q83 31 115 31q91 0 142.5 -50.5t51.5 -118.5q0 -95 -91 -168q-87 -68 -176 -70q-31 0 -60 11t-43 24q-19 17 -18 34q2 19 23 37q14 10 28 -2q63 -52 125 -52q57 0 88.5 42t31.5 102q0 69 -41.5 110t-118.5 41q-53 0 -104 -20l40 308h291l6 -8l-27 -71
h-237z" />
    <glyph glyph-name="six" unicode="6" horiz-adv-x="483" 
d="M144 346l65 31q36 18 62 18q80 0 131 -53t51 -132q0 -92 -59.5 -157t-149.5 -65q-91 0 -150 68.5t-59 182.5q0 77 25 143t65.5 110t82.5 72t87 44q58 22 131 33l7 -33q-56 -11 -108 -35q-146 -69 -181 -227zM228 336q-43 0 -89 -24q-6 -23 -6 -72q0 -93 35.5 -154.5
t92.5 -61.5q51 0 74.5 44.5t23.5 103.5q0 69 -34 116.5t-97 47.5z" />
    <glyph glyph-name="seven" unicode="7" horiz-adv-x="483" 
d="M453 623l8 -12q-40 -85 -284 -612l-79 -11l-7 12q169 270 298 544h-216q-48 0 -63 -12t-34 -62h-30q7 44 20 153h387z" />
    <glyph glyph-name="eight" unicode="8" horiz-adv-x="483" 
d="M251 635q72 0 119 -43t47 -106q0 -45 -29 -79q-20 -22 -78 -63q62 -34 97 -74t35 -100q0 -82 -64.5 -132t-138.5 -50q-86 0 -141.5 45.5t-55.5 123.5q0 50 45 93q25 25 90 64q-109 61 -109 155q0 68 51.5 117t131.5 49zM239 602q-40 0 -64.5 -30.5t-24.5 -69.5
q0 -50 32.5 -80t97.5 -62q57 46 57 121q0 59 -29.5 90t-68.5 31zM250 21q46 0 75.5 33t29.5 88q0 50 -37.5 83.5t-111.5 71.5q-76 -51 -76 -133q0 -67 35.5 -105t84.5 -38z" />
    <glyph glyph-name="nine" unicode="9" horiz-adv-x="483" 
d="M245 635q93 0 147 -72t54 -178q0 -133 -66 -229t-173 -139q-71 -29 -145 -32l-5 31q108 18 184 90.5t100 182.5l-64 -35q-31 -16 -60 -16q-81 0 -131.5 52t-50.5 132q0 79 57.5 146t152.5 67zM229 600q-50 0 -75 -44t-25 -98q0 -68 36 -114.5t96 -46.5q48 0 84 25
q4 32 4 68q0 37 -6 71.5t-18.5 67t-37.5 52t-58 19.5z" />
    <glyph glyph-name="colon" unicode=":" horiz-adv-x="233" 
d="M117 413q25 0 41.5 -17t16.5 -43q0 -27 -16.5 -44t-42.5 -17t-42 17t-16 44q0 26 16.5 43t42.5 17zM116 -12q-25 0 -41.5 17t-16.5 44q0 26 17 43t42 17t42 -17t17 -43q0 -27 -17 -44t-43 -17z" />
    <glyph glyph-name="semicolon" unicode=";" horiz-adv-x="233" 
d="M117 413q25 0 41.5 -17t16.5 -43q0 -27 -16.5 -44t-42.5 -17q-25 0 -41.5 17t-16.5 44q0 26 16.5 43t42.5 17zM97 136q33 0 64 -31t31 -80q0 -56 -40 -92t-97 -53l-11 31q78 33 78 86t-64 69q-13 3 -13 26q0 20 15.5 32t36.5 12z" />
    <glyph glyph-name="less" unicode="&#x3c;" horiz-adv-x="552" 
d="M493 0l-434 228v51l434 228v-59l-373 -194v-2l373 -194v-58z" />
    <glyph glyph-name="equal" unicode="=" horiz-adv-x="579" 
d="M530 320h-479v52h479v-52zM530 137h-479v52h479v-52z" />
    <glyph glyph-name="greater" unicode="&#x3e;" horiz-adv-x="552" 
d="M493 228l-434 -228v58l373 194v2l-373 194v59l434 -228v-51z" />
    <glyph glyph-name="question" unicode="?" horiz-adv-x="382" 
d="M221 218l-19 -23q-38 14 -76 51.5t-38 78.5q0 52 87 115q72 50 90 77q10 16 10 29q0 25 -15 38.5t-42 13.5q-28 0 -54.5 -14t-43 -28.5t-20.5 -14.5q-13 0 -28.5 15t-15.5 33q0 19 21 38q21 18 50 28t46 10h1q62 0 112.5 -50t50.5 -113q0 -50 -50 -91q-6 -4 -29.5 -21.5
t-38 -29.5t-28 -30.5t-13.5 -34.5q0 -37 43 -77zM184 -12q-25 0 -41.5 17.5t-16.5 44.5q0 26 17 43.5t42 17.5t42 -17.5t17 -43.5q0 -28 -17 -45t-43 -17z" />
    <glyph glyph-name="at" unicode="@" horiz-adv-x="755" 
d="M546 -14l11 -28q-93 -55 -202 -55q-127 0 -215 80t-88 225q1 167 115 269t266 102q130 0 206.5 -74.5t76.5 -182.5q0 -103 -69 -176t-170 -73q-37 0 -46.5 20t0.5 52l10 55l-2 1q-26 -40 -81 -84t-88 -44q-20 0 -34 22t-14 63q0 109 80 188q76 73 163 74q16 0 51 -8
q17 -4 34 -4q-28 -121 -48 -226q-7 -39 -3.5 -52.5t21.5 -12.5q56 1 101 56t45 149q0 101 -66 159t-171 58q-138 0 -224 -90.5t-86 -231.5q0 -52 14.5 -97.5t45 -85t84 -62.5t124.5 -23q42 0 89 12t70 25zM422 379q-36 0 -64 -30q-22 -25 -39 -72t-17 -93q-1 -45 21 -45
q16 0 52 31t74 87q13 39 27 111q-24 11 -54 11z" />
    <glyph glyph-name="A" unicode="A" horiz-adv-x="694" 
d="M676 0h-253v29q47 6 57.5 16.5t-0.5 40.5q-13 41 -52 146h-210q-15 -42 -43 -124q-15 -46 -4 -59.5t67 -19.5v-29h-219v29q50 7 68.5 23.5t43.5 79.5l207 523l35 10q159 -441 193 -533q24 -64 42 -81t68 -22v-29zM413 277l-85 248h-3q-53 -143 -91 -248h179z" />
    <glyph glyph-name="B" unicode="B" horiz-adv-x="597" 
d="M377 353v-2q179 -26 179 -159q0 -99 -95 -151q-71 -41 -198 -41h-227v29q64 4 77.5 19t13.5 77v401q0 62 -12.5 76.5t-70.5 18.5v29h263q102 0 153 -34q56 -38 56 -114q0 -63 -41.5 -99t-97.5 -50zM220 363h42q80 0 116.5 31.5t36.5 94.5q0 57 -32.5 92.5t-95.5 35.5
q-39 0 -55 -11q-12 -8 -12 -48v-195zM220 328v-201q0 -54 17 -73t64 -18q63 0 105.5 36.5t42.5 109.5q0 146 -188 146h-41z" />
    <glyph glyph-name="C" unicode="C" horiz-adv-x="667" 
d="M616 177l29 -11q-27 -96 -56 -155q-121 -26 -185 -26q-91 0 -162 29t-113.5 77t-64 105.5t-21.5 119.5q0 156 108 252.5t279 96.5q28 0 59 -3.5t49 -7.5t43 -10t27 -6q14 -98 20 -153l-31 -7q-20 79 -67 114.5t-125 35.5q-117 0 -184 -85.5t-67 -206.5q0 -139 72.5 -226
t184.5 -87q71 0 117.5 37.5t87.5 116.5z" />
    <glyph glyph-name="D" unicode="D" horiz-adv-x="739" 
d="M41 650h285q195 0 284 -85q85 -83 85 -215q0 -173 -123 -267q-109 -83 -299 -83h-240v29q64 5 78.5 19.5t14.5 77.5v398q0 45 -6 62.5t-21.5 24t-57.5 9.5v30zM220 546v-413q0 -55 23 -75t79 -20q128 0 197 84t69 213q0 78 -28.5 139.5t-82.5 95.5q-64 45 -169 45
q-60 0 -75 -12q-13 -10 -13 -57z" />
    <glyph glyph-name="E" unicode="E" horiz-adv-x="570" 
d="M520 164l30 -5q-16 -94 -35 -159h-487v29q68 5 83 20t15 77v395q0 66 -13 80.5t-72 19.5v29h450q1 -12 4.5 -65.5t4.5 -79.5l-30 -5q-11 52 -34 86q-11 16 -34.5 22t-75.5 6h-72q-24 0 -29 -5t-5 -28v-225h90q66 0 82 12t26 63h30v-193h-30q-10 53 -26.5 65t-81.5 12h-90
v-185q0 -66 24 -82q19 -12 101 -12q54 0 80.5 7t43.5 26q29 35 51 95z" />
    <glyph glyph-name="F" unicode="F" horiz-adv-x="533" 
d="M498 502l-30 -4q-13 57 -30 81q-13 20 -36 27.5t-76 7.5h-71q-23 0 -28.5 -5t-5.5 -27v-235h99q66 0 82.5 12t25.5 61h30v-193h-30q-9 53 -25.5 66t-82.5 13h-99v-177q0 -65 15 -80t83 -20v-29h-279v29q60 5 73.5 20t13.5 80v393q0 64 -13 79t-71 20v29h445
q1 -38 10 -148z" />
    <glyph glyph-name="G" unicode="G" horiz-adv-x="717" 
d="M694 303v-29q-44 -7 -53.5 -18t-9.5 -56v-84q0 -64 7 -95q-159 -36 -225 -36q-166 0 -267.5 92.5t-101.5 242.5q0 111 55.5 191t141 117t187.5 37q73 0 193 -29q7 -82 16 -157l-30 -7q-31 157 -195 157q-113 0 -185 -80.5t-72 -215.5q0 -77 27.5 -146t90.5 -117.5
t152 -48.5q51 0 82 17q30 16 30 63v87q0 54 -15.5 67t-89.5 19v29h262z" />
    <glyph glyph-name="H" unicode="H" horiz-adv-x="769" 
d="M732 650v-29q-62 -5 -75.5 -19.5t-13.5 -76.5v-400q0 -62 13.5 -76.5t74.5 -19.5v-29h-274v29q64 5 78 19.5t14 76.5v197h-328v-197q0 -62 13.5 -76.5t74.5 -19.5v-29h-269v29q60 5 73.5 19.5t13.5 76.5v400q0 62 -13.5 76.5t-75.5 19.5v29h266v-29q-57 -5 -70 -19.5
t-13 -76.5v-159h328v159q0 62 -13 76.5t-72 19.5v29h268z" />
    <glyph glyph-name="I" unicode="I" horiz-adv-x="347" 
d="M309 0h-272v29q61 5 75 19.5t14 77.5v398q0 63 -14 77.5t-75 19.5v29h272v-29q-61 -5 -75 -19.5t-14 -77.5v-398q0 -63 14 -77.5t75 -19.5v-29z" />
    <glyph glyph-name="J" unicode="J" horiz-adv-x="335" 
d="M309 650v-29q-41 -3 -56.5 -10t-21.5 -25t-6 -62v-366q0 -98 -19 -157.5t-70 -105.5q-49 -45 -98 -59l-13 30q79 37 96 128q10 63 10 192v338q0 63 -14 77.5t-75 19.5v29h267z" />
    <glyph glyph-name="K" unicode="K" horiz-adv-x="678" 
d="M673 0h-162q-42 49 -239 289q-16 20 -27.5 25.5t-25.5 3.5v-188q0 -65 14.5 -80.5t76.5 -20.5v-29h-267v29q57 5 70.5 20.5t13.5 80.5v390q0 66 -14 81t-73 20v29h264v-29q-58 -5 -71.5 -20.5t-13.5 -80.5v-174q26 6 71 46q104 102 163 175q22 26 18.5 36.5t-36.5 14.5
l-22 3v29h243v-29q-56 -5 -86 -18.5t-76 -55.5q-20 -19 -171 -170q98 -125 231 -276q38 -40 60.5 -53.5t58.5 -18.5v-29z" />
    <glyph glyph-name="L" unicode="L" horiz-adv-x="541" 
d="M499 166l30 -6q-17 -97 -36 -160h-459v29q64 5 78.5 20t14.5 78v397q0 35 -2 51t-12 27t-25 14t-48 5v29h269v-29q-43 -3 -59 -9.5t-22.5 -24.5t-6.5 -63v-394q0 -40 5 -57.5t18 -24.5q22 -12 92 -12q83 0 110 31q31 34 53 99z" />
    <glyph glyph-name="M" unicode="M" horiz-adv-x="890" 
d="M861 0h-269v29q60 6 72 23t11 95l-3 403h-4l-240 -543h-21l-221 530h-2l-15 -281q-5 -105 -2 -165q1 -34 20 -45t72 -16v-30h-235v30q44 5 61.5 17t22.5 42q10 59 20 184l14 206q2 35 3 54t-2 37t-7 25t-16.5 13.5t-25.5 8l-39 4.5v29h173l221 -489l226 489h175v-29
q-66 -6 -79 -21.5t-11 -89.5l9 -363q2 -79 15 -95.5t77 -22.5v-29z" />
    <glyph glyph-name="N" unicode="N" horiz-adv-x="743" 
d="M720 650v-29q-43 -2 -61.5 -15t-22.5 -45q-6 -62 -6 -168v-403h-34l-424 520h-2v-246q0 -110 6 -168q4 -37 24 -50.5t73 -16.5v-29h-239v29q45 3 64 16.5t23 48.5q7 72 7 170v218q0 53 -3 69t-17 33q-25 32 -88 37v29h154l411 -490h3v233q0 98 -7 166q-4 33 -24.5 46
t-73.5 16v29h237z" />
    <glyph glyph-name="O" unicode="O" horiz-adv-x="750" 
d="M383 665q133 0 228.5 -93t95.5 -239q0 -158 -97 -253t-239 -95q-139 0 -233.5 95.5t-94.5 238.5q0 141 93 243.5t247 102.5zM361 628q-86 0 -146 -75t-60 -208q0 -139 66.5 -231t170.5 -92q86 0 144.5 74t58.5 210q0 152 -66 237t-168 85z" />
    <glyph glyph-name="P" unicode="P" horiz-adv-x="569" 
d="M46 650h252q112 0 169 -41q66 -49 66 -143q0 -91 -57 -143t-139 -62q-22 -3 -44 -1l-73 19v-154q0 -62 15 -76.5t82 -19.5v-29h-277v29q59 5 73 20t14 77v397q0 65 -12.5 79t-68.5 19v29zM220 561v-248q24 -12 69 -12q56 0 97.5 37.5t41.5 124.5q0 77 -41 115.5
t-105 38.5q-40 0 -52 -12q-10 -9 -10 -44z" />
    <glyph glyph-name="Q" unicode="Q" horiz-adv-x="748" 
d="M722 -138l-7 -22q-73 -3 -131 14q-73 19 -231 132q-51 3 -108 24.5t-100 64.5q-101 98 -101 240q0 145 93 247.5t249 102.5q132 0 226.5 -93.5t94.5 -240.5q0 -125 -65 -211.5t-161 -116.5q135 -92 241 -141zM350 26l70 22q16 -9 28 -19q61 19 104.5 90t43.5 183
q0 152 -65.5 239t-168.5 87q-87 0 -147 -76.5t-60 -209.5q0 -125 54 -211t141 -105z" />
    <glyph glyph-name="R" unicode="R" horiz-adv-x="628" 
d="M636 19l-4 -27q-23 0 -34 1q-63 4 -100 24t-70 68q-21 30 -97 158q-14 23 -31 32t-52 9h-29v-157q0 -63 14 -78t74 -20v-29h-269v29q61 5 75 20t14 78v399q0 62 -13 76t-72 19v29h253q111 0 163 -34q67 -44 67 -131q0 -115 -127 -171q34 -62 88 -143q46 -70 80 -106
q31 -34 70 -46zM219 317h44q72 0 107 28q53 43 53 124q0 76 -40.5 112t-100.5 36q-40 0 -53 -10q-10 -9 -10 -43v-247z" />
    <glyph glyph-name="S" unicode="S" horiz-adv-x="480" 
d="M415 502l-31 -5q-16 60 -45 96.5t-87 36.5q-52 0 -80 -31.5t-28 -76.5q0 -49 29.5 -80t96.5 -65q41 -21 64 -35t52.5 -38.5t43.5 -56t14 -70.5q0 -82 -63 -137t-163 -55q-51 0 -98 15q-18 6 -52 21q-12 34 -27 158l30 8q7 -27 19 -52.5t31.5 -52.5t49.5 -43.5t66 -16.5
q54 0 85 31.5t31 85.5q0 49 -31 80.5t-96 66.5q-30 16 -46 25t-43 29t-41 38t-25.5 46t-11.5 60q0 77 57.5 129t152.5 52q50 0 128 -23q2 -19 8.5 -65.5t9.5 -74.5z" />
    <glyph glyph-name="T" unicode="T" horiz-adv-x="621" 
d="M596 495l-30 -3q-15 67 -34 92q-13 18 -33.5 24t-73.5 6h-66v-489q0 -61 16 -76.5t86 -19.5v-29h-294v29q67 4 82.5 19.5t15.5 76.5v489h-57q-59 0 -82 -6.5t-34 -24.5q-16 -23 -33 -91h-31q10 120 12 183h21q11 -16 21.5 -20.5t33.5 -4.5h397q20 0 29.5 5t21.5 20h22
q0 -62 10 -180z" />
    <glyph glyph-name="U" unicode="U" horiz-adv-x="735" 
d="M717 650v-29q-45 -3 -64.5 -16t-22.5 -43q-6 -56 -6 -158v-87q0 -182 -75 -261q-67 -70 -180 -70q-99 0 -163 48q-87 68 -87 238v247q0 66 -13.5 81.5t-73.5 20.5v29h267v-29q-59 -4 -72.5 -19.5t-13.5 -82.5v-225q0 -121 46.5 -186t136.5 -65q185 0 185 281v80
q0 111 -8 161q-4 29 -24 40.5t-72 15.5v29h240z" />
    <glyph glyph-name="V" unicode="V" horiz-adv-x="705" 
d="M690 650v-29q-52 -6 -72 -23.5t-48 -84.5q-135 -328 -207 -524h-35q-113 309 -206 542q-21 55 -40 70t-65 20v29h254v-29q-52 -6 -61.5 -17t3.5 -43q51 -143 162 -426h2q106 263 152 407q16 45 5 58.5t-71 20.5v29h227z" />
    <glyph glyph-name="W" unicode="W" horiz-adv-x="972" 
d="M958 650v-29q-51 -8 -68.5 -24t-39.5 -77q-55 -156 -165 -531h-36q-44 131 -172 489h-2q-24 -73 -78.5 -237.5t-82.5 -251.5h-35q-22 75 -163 534q-18 59 -36 75.5t-65 22.5v29h253v-29q-54 -7 -64 -19t3 -50q76 -264 119 -400h2q24 76 77.5 240t80.5 249h32
q52 -151 174 -490h2q79 246 110 389q12 45 0.5 59.5t-69.5 21.5v29h223z" />
    <glyph glyph-name="X" unicode="X" horiz-adv-x="661" 
d="M663 0h-274v29q46 6 55 16t-6 35q-7 11 -49 79.5t-79 128.5q-70 -106 -119 -198q-19 -32 -10.5 -43t58.5 -18v-29h-232v29q80 8 118 56q63 83 163 236q-31 51 -135 218q-30 47 -52 61.5t-75 20.5v29h256v-29q-43 -6 -51 -15t5 -28q30 -53 109 -177q63 95 97 159
q19 31 10.5 42.5t-57.5 18.5v29h231v-29q-55 -6 -79.5 -19.5t-57.5 -56.5q-34 -43 -122 -176q86 -137 159 -250q34 -51 59.5 -68t77.5 -22v-29z" />
    <glyph glyph-name="Y" unicode="Y" horiz-adv-x="638" 
d="M625 650v-29q-50 -6 -70 -20t-49 -60q-65 -104 -124 -215q-17 -32 -17 -64v-135q0 -64 15.5 -78.5t83.5 -19.5v-29h-290v29q67 5 82 20t15 78v129q0 24 -19 59q-74 133 -126 221q-30 52 -48 66.5t-62 18.5v29h247v-29q-50 -6 -58.5 -18t8.5 -37q35 -66 131 -234
q92 171 116 224q17 36 7.5 47.5t-66.5 17.5v29h224z" />
    <glyph glyph-name="Z" unicode="Z" horiz-adv-x="606" 
d="M563 179l30 -7q-24 -128 -36 -172h-519l-9 15q305 438 413 598h-164q-76 0 -101.5 -7.5t-39.5 -28.5q-21 -31 -35 -88h-30q1 24 6 92t6 94h24q9 -17 19 -21t35 -4h400l7 -14q-297 -431 -405 -593q48 -6 155 -6q89 0 128 7.5t60 29.5q28 29 56 105z" />
    <glyph glyph-name="bracketleft" unicode="[" horiz-adv-x="346" 
d="M292 -163h-172v866h172v-29q-78 -7 -93 -20t-15 -72v-624q0 -34 1.5 -47t13.5 -24.5t30.5 -14t62.5 -6.5v-29z" />
    <glyph glyph-name="backslash" unicode="\" horiz-adv-x="333" 
d="M300 -44h-59l-206 709h58z" />
    <glyph glyph-name="bracketright" unicode="]" horiz-adv-x="346" 
d="M227 -163h-173v29q79 7 94 20.5t15 72.5v623q0 59 -15 72t-94 20v29h173v-866z" />
    <glyph glyph-name="asciicircum" unicode="^" horiz-adv-x="565" 
d="M498 211h-62l-155 344l-156 -344h-58l192 412h47z" />
    <glyph glyph-name="underscore" unicode="_" horiz-adv-x="500" 
d="M500 -125h-500v50h500v-50z" />
    <glyph glyph-name="grave" unicode="`" 
d="M246 503l-28 -13q-70 96 -119 159l3 9q8 5 39 10.5t43 4.5q9 -24 30.5 -84t31.5 -86z" />
    <glyph glyph-name="a" unicode="a" horiz-adv-x="444" 
d="M438 40l-89 -52q-29 0 -49 20q-17 17 -25 43q-3 -2 -16.5 -11.5t-19 -13t-17 -11.5t-18 -11t-15.5 -7.5t-16 -6.5t-13 -2q-53 0 -88 37.5t-35 85.5q0 70 80 98q132 46 156 66v19q0 52 -21.5 81.5t-58.5 29.5q-27 0 -43 -19q-17 -20 -29 -67q-7 -25 -32 -25
q-16 0 -31.5 13.5t-15.5 30.5q0 18 33 42q26 19 70 40.5t82 29.5q51 0 85 -27q46 -38 46 -125v-182q0 -59 35 -59q18 0 35 10zM273 83v157l-84 -40q-30 -15 -44 -31t-14 -42q0 -36 21.5 -56t47.5 -20q39 0 73 32z" />
    <glyph glyph-name="b" unicode="b" horiz-adv-x="513" 
d="M160 406l73 32q29 12 45 12q83 0 141 -61.5t58 -149.5q0 -108 -74.5 -179.5t-178.5 -71.5q-73 0 -152 36v553q0 47 -9.5 58t-55.5 15v25q81 10 153 35v-304zM160 376v-261q0 -20 6 -35q6 -18 28.5 -35.5t54.5 -17.5q60 -1 95 49t35 137q0 84 -42.5 131.5t-105.5 47.5
q-39 0 -71 -16z" />
    <glyph glyph-name="c" unicode="c" horiz-adv-x="423" 
d="M392 113l18 -22q-35 -46 -81 -74.5t-89 -28.5q-92 0 -148 62t-56 147q0 117 101 195q75 58 153 58h1q57 0 89 -26q16 -14 16 -32q0 -16 -12.5 -30.5t-22.5 -14.5q-8 0 -19 11q-46 43 -101 43q-49 0 -82.5 -41t-33.5 -117q0 -48 15.5 -85.5t39 -57.5t48 -30t46.5 -10
q61 0 118 53z" />
    <glyph glyph-name="d" unicode="d" horiz-adv-x="531" 
d="M522 52v-26q-110 -20 -163 -38v64l-61 -37q-45 -27 -73 -27q-69 0 -129 58t-60 156q0 103 77.5 175.5t183.5 72.5q29 0 62 -10v138q0 47 -11 57.5t-64 14.5v26q97 13 163 34v-593q0 -39 8 -49t37 -13zM359 84v276q-34 51 -98 51q-18 0 -37.5 -8.5t-40.5 -27t-34 -57
t-13 -89.5q0 -84 41 -130t93 -46q45 0 89 31z" />
    <glyph glyph-name="e" unicode="e" horiz-adv-x="427" 
d="M383 109l15 -22q-41 -53 -86.5 -76t-79.5 -23q-90 0 -143 62t-53 151q0 104 67 176q68 73 147 73h1q62 0 107 -46.5t45 -106.5q0 -16 -5 -23.5t-19 -9.5q-57 -10 -257 -17q1 -92 45 -139.5t102 -47.5q61 0 114 49zM227 412q-34 0 -62 -32.5t-38 -90.5q79 0 161 3
q23 0 23 20q1 41 -22.5 70.5t-61.5 29.5z" />
    <glyph glyph-name="f" unicode="f" horiz-adv-x="303" 
d="M53 438h46v21q0 45 11 80q22 69 79 117q55 47 112 54q51 -1 79 -33q14 -17 6 -37q-6 -15 -21 -26q-14 -11 -29 2q-39 39 -81 39q-33 0 -49 -28q-21 -34 -20 -150l1 -39h117q5 -7 1.5 -21.5t-11.5 -19.5h-107v-288q0 -53 13 -65t72 -18v-26h-242v27q47 5 58 17t11 60v293
h-69l-5 11z" />
    <glyph glyph-name="g" unicode="g" horiz-adv-x="472" 
d="M468 438l5 -8q-20 -39 -44 -53l-57 4q29 -35 29 -87q0 -75 -53.5 -117t-124.5 -42q-10 0 -50 5q-27 -19 -27 -39q0 -16 16 -27.5t47 -11.5q18 0 52.5 0.5t50.5 0.5q26 0 49 -5t46 -16.5t36.5 -36.5t13.5 -60q0 -78 -76.5 -138.5t-175.5 -60.5q-81 0 -128 37.5t-48 84.5
q0 33 25 56q22 21 82 66q-49 15 -74 55q-14 23 -12 44q57 22 90 61q-39 16 -64 51t-25 83q0 78 56.5 122t124.5 44h1q51 0 98 -26q68 3 137 14zM222 418q-32 0 -55 -31.5t-23 -86.5q0 -57 25 -94.5t64 -37.5q34 1 56.5 31.5t22.5 86.5q0 58 -24.5 95t-65.5 37zM241 -13
q-62 0 -86 -21q-42 -37 -42 -73q0 -40 37.5 -67.5t93.5 -27.5q67 0 103.5 30t36.5 77q0 52 -47 70q-30 12 -96 12z" />
    <glyph glyph-name="h" unicode="h" horiz-adv-x="537" 
d="M516 0h-215v27q43 5 53 17t10 59v167q0 120 -93 120q-57 0 -98 -47v-240q0 -47 9.5 -59.5t51.5 -16.5v-27h-217l1 27q45 5 56 16.5t11 60.5v475q0 47 -9.5 57t-56.5 15v25q79 11 154 34v-331q71 71 141 71q64 0 101 -42.5t37 -127.5v-177q0 -48 10.5 -59.5t53.5 -16.5
v-27z" />
    <glyph glyph-name="i" unicode="i" horiz-adv-x="273" 
d="M138 533q-22 0 -38 16t-16 38q0 24 16 40t39 16q22 0 37.5 -16t15.5 -40q0 -22 -16 -38t-38 -16zM258 0h-227v27q47 5 58 17t11 63v205q0 47 -9 58t-52 18v24q88 15 149 39v-344q0 -51 11 -63t59 -17v-27z" />
    <glyph glyph-name="j" unicode="j" horiz-adv-x="262" 
d="M138 533q-22 0 -38 16.5t-16 38.5q0 23 16 39t39 16q22 0 37.5 -16t15.5 -39t-16 -39t-38 -16zM34 388v24q85 13 154 39v-336q0 -96 -24 -162q-24 -65 -62 -120t-62 -75q-16 -12 -28 -12t-24 14t-12 32q0 20 21 24q57 11 73 34q16 22 22 72q8 61 8 192v193q0 51 -10 62.5
t-56 18.5z" />
    <glyph glyph-name="k" unicode="k" horiz-adv-x="499" 
d="M517 0l-144 -1q-15 16 -36 42t-37.5 47t-44 56.5t-39.5 51.5q-18 21 -30 21q-8 0 -14 -2v-110q0 -49 11.5 -61t59.5 -17v-27h-230v27q49 4 60.5 16.5t11.5 61.5v471q0 48 -10 59.5t-55 15.5v24q62 7 152 35v-468q36 7 62 35q33 35 68 88q15 22 9.5 30.5t-39.5 12.5v27
l206 9v-26q-50 -8 -75 -19.5t-53 -37.5q-28 -28 -83 -94q15 -22 70 -89t83 -97q47 -50 97 -54v-27z" />
    <glyph glyph-name="l" unicode="l" horiz-adv-x="258" 
d="M244 0h-229v27q47 5 58.5 17t11.5 61v471q0 49 -10 59.5t-58 15.5v25q84 9 156 34v-605q0 -49 11.5 -61t59.5 -17v-27z" />
    <glyph glyph-name="m" unicode="m" horiz-adv-x="823" 
d="M801 0h-217v27q44 5 55 17.5t11 62.5v167q0 113 -85 113q-46 0 -105 -48q3 -18 3 -42v-196q0 -45 10.5 -57t51.5 -17v-27h-217v27q45 5 56 16.5t11 58.5v174q0 111 -84 111q-45 0 -103 -48v-237q0 -46 9.5 -58t45.5 -17v-27h-216v27q49 5 61 16.5t12 59.5v208
q0 47 -8.5 58.5t-50.5 18.5v24q84 15 146 41v-81q63 45 71 50q47 28 82 28q37 0 67 -22t45 -60q35 25 81 56q41 26 76 26q60 0 94.5 -40.5t34.5 -113.5v-194q0 -48 9.5 -59t53.5 -16v-27z" />
    <glyph glyph-name="n" unicode="n" horiz-adv-x="550" 
d="M527 0h-212v27q42 5 52 18t10 65v167q0 110 -86 110q-48 0 -103 -47v-236q0 -49 9.5 -60.5t51.5 -16.5v-27h-221v27q50 5 61 17t11 61v206q0 47 -9 58t-50 19v24q88 16 147 41v-79q63 44 66 46q44 30 82 30q60 0 94.5 -41t34.5 -113v-192q0 -49 9.5 -60.5t52.5 -16.5v-27
z" />
    <glyph glyph-name="o" unicode="o" horiz-adv-x="513" 
d="M260 450q93 0 155 -65.5t62 -158.5q0 -113 -67 -175.5t-152 -62.5q-101 0 -161.5 66t-60.5 155q0 78 37 135t86.5 81.5t100.5 24.5zM246 416q-45 0 -76.5 -46t-31.5 -128q0 -96 36 -158t95 -62q106 0 106 181q0 94 -34 153.5t-95 59.5z" />
    <glyph glyph-name="p" unicode="p" horiz-adv-x="528" 
d="M177 382l88 52q26 16 50 16q80 0 128.5 -56.5t48.5 -133.5q0 -107 -71.5 -179.5t-175.5 -92.5q-39 1 -68 17v-130q0 -55 13 -67.5t71 -17.5v-28h-244v28q49 5 60.5 17t11.5 60v451q0 47 -9.5 57.5t-55.5 15.5v25q67 12 153 44v-78zM177 348v-272q16 -17 41.5 -28
t49.5 -11q60 0 96 49.5t36 132.5q0 79 -38 123.5t-92 44.5q-42 0 -93 -39z" />
    <glyph glyph-name="q" unicode="q" horiz-adv-x="516" 
d="M519 -238h-247v28q58 5 71 17.5t13 63.5v157l-101 -40q-104 0 -161 64t-57 146q0 105 81.5 179t188.5 73q49 -5 70 -14q17 -5 28 -5q17 2 38 11l4 -3q-3 -63 -3 -106v-464q0 -50 11.5 -62t63.5 -17v-28zM356 60v307q-16 19 -42.5 30.5t-49.5 11.5q-52 0 -90 -47t-38 -131
q0 -85 47.5 -135.5t105.5 -50.5q37 0 67 15z" />
    <glyph glyph-name="r" unicode="r" horiz-adv-x="377" 
d="M188 343h2q63 107 119 107q26 0 43 -16t17 -36q0 -39 -35 -54q-17 -7 -27 3q-21 20 -44 20q-19 0 -39.5 -20.5t-35.5 -59.5v-183q0 -49 12.5 -61t69.5 -16v-27h-238v27q46 5 57 17t11 60v209q0 47 -9 58t-51 17v24q78 12 148 40v-109z" />
    <glyph glyph-name="s" unicode="s" horiz-adv-x="370" 
d="M323 324l-27 -7q-33 100 -103 100q-28 0 -45.5 -18.5t-17.5 -47.5q0 -51 83 -85q64 -27 96 -58t32 -81q0 -66 -50.5 -102.5t-117.5 -36.5q-35 0 -68 10.5t-48 22.5q-5 11 -11 52t-6 70l27 4q15 -53 48 -89.5t76 -36.5q29 0 49 19t20 49t-19 50t-60 39q-28 13 -45.5 23
t-38.5 27t-31.5 39.5t-10.5 50.5q0 55 43 93.5t112 38.5q49 0 91 -18q13 -36 22 -108z" />
    <glyph glyph-name="t" unicode="t" horiz-adv-x="311" 
d="M304 36l-71 -35q-25 -13 -41 -13q-103 0 -103 120v289h-67l-5 11l28 30h44v72l74 69l14 -3v-138h110q8 -8 6 -21.5t-12 -19.5h-104v-255q0 -94 58 -94q28 0 60 15z" />
    <glyph glyph-name="u" unicode="u" horiz-adv-x="535" 
d="M522 51v-27q-31 -4 -79 -16q-54 -14 -74 -20l-7 6v69q-45 -35 -70 -49q-44 -26 -79 -26q-56 0 -90.5 36.5t-34.5 111.5v198q0 36 -6.5 47t-26.5 16l-27 6v24q19 1 76 7q25 3 75 11q-3 -33 -3 -146v-137q0 -109 85 -109q55 0 101 45v235q0 38 -7.5 48.5t-32.5 15.5l-35 6
v24q44 2 92 8q24 2 71 10v-332q0 -37 8.5 -48t37.5 -13z" />
    <glyph glyph-name="v" unicode="v" horiz-adv-x="463" 
d="M478 438v-27q-38 -5 -52.5 -17.5t-34.5 -56.5q-68 -152 -143 -348h-29q-71 186 -139 351q-17 41 -30.5 53t-52.5 18v27h212v-27q-39 -5 -45.5 -15t5.5 -41q52 -140 92 -240q42 99 86 232q12 34 3.5 46.5t-50.5 17.5v27h178z" />
    <glyph glyph-name="w" unicode="w" horiz-adv-x="685" 
d="M697 438v-27q-36 -6 -49.5 -18.5t-29.5 -54.5q-30 -76 -122 -349h-30q-23 60 -65 164.5t-56 140.5q-116 -302 -117 -305h-31q-60 193 -116 357q-13 39 -25.5 49.5t-47.5 15.5v27h214v-27q-45 -7 -53.5 -17t2.5 -42q40 -130 71 -226h2q40 104 113 307h29q27 -74 119 -310
h2q47 144 66 223q9 37 -0.5 47.5t-57.5 17.5v27h182z" />
    <glyph glyph-name="x" unicode="x" horiz-adv-x="473" 
d="M478 0h-220v27q31 5 37.5 13t-5.5 28l-70 112q-20 -29 -62 -102q-14 -25 -8 -35t42 -16v-27h-187v27q45 6 63.5 17t47.5 48q16 19 84 117l-87 138q-23 36 -39.5 47.5t-57.5 16.5v27h206v-27q-30 -4 -35.5 -13t8.5 -29l57 -90q34 52 56 91q12 23 6.5 30t-38.5 11v27h183
v-27q-46 -5 -64 -14t-44 -39q-23 -28 -79 -108l98 -149q27 -42 46 -55t62 -19v-27z" />
    <glyph glyph-name="y" unicode="y" horiz-adv-x="460" 
d="M479 438v-27q-39 -6 -53.5 -18t-34.5 -54q-11 -23 -26.5 -60t-43 -104.5t-54.5 -132.5q-82 -195 -103 -272q-7 -25 -33 -25q-21 0 -40 16t-19 35q0 20 26 37q45 27 75 86q20 35 29 63q7 21 -2 46q-77 218 -116 310q-16 41 -30.5 54.5t-53.5 18.5v27h210l1 -27
q-34 -6 -41.5 -16t2.5 -37l88 -246q47 111 89 243q9 28 -0.5 39t-50.5 17v27h181z" />
    <glyph glyph-name="z" unicode="z" horiz-adv-x="424" 
d="M391 141l26 -13q-43 -120 -46 -128h-334l-8 15q117 176 245 388h-82q-52 0 -72.5 -13.5t-42.5 -58.5l-14 -28l-26 10q24 88 35 146h21q8 -21 56 -21h233l6 -14q-153 -246 -239 -389h92q54 0 80 16.5t56 64.5z" />
    <glyph glyph-name="braceleft" unicode="{" horiz-adv-x="349" 
d="M296 -139v-30q-150 0 -150 130q0 38 4 108.5t4 98.5q0 17 -2 28t-10 25.5t-28 23t-51 10.5l1 30q31 2 50.5 10.5t27.5 23t10 25.5t2 28q0 36 -4 105.5t-4 97.5q0 134 150 134v-30q-51 -6 -68 -30t-17 -64q0 -33 7 -100t7 -97q0 -98 -84 -116v-4q43 -9 63.5 -40.5
t20.5 -75.5q0 -34 -7 -100t-7 -94q0 -42 17 -66t68 -31z" />
    <glyph glyph-name="bar" unicode="|" horiz-adv-x="264" 
d="M166 -250h-67v1000h67v-1000z" />
    <glyph glyph-name="braceright" unicode="}" horiz-adv-x="349" 
d="M287 285l-1 -30q-31 -2 -51 -10.5t-28 -23.5t-10 -27t-2 -31q0 -30 4 -99t4 -103q0 -130 -151 -130v30q50 7 68 31t18 64q0 30 -6.5 96t-6.5 99q0 98 84 117v4q-84 20 -84 116q0 33 6.5 100t6.5 98q0 40 -18 63.5t-68 29.5v30q151 0 151 -131q0 -36 -4 -104t-4 -97
q0 -19 2 -30.5t10 -27t28 -24t52 -10.5z" />
    <glyph glyph-name="asciitilde" unicode="~" horiz-adv-x="579" 
d="M488 310l38 -22q-35 -110 -129 -110q-52 0 -126 45q-53 32 -89 32q-57 0 -91 -83l-37 27q45 108 132 108q49 0 115 -38t103 -38q29 0 49 19t35 60z" />
    <glyph glyph-name="uni00A0" unicode="&#xa0;" horiz-adv-x="225" 
 />
    <glyph glyph-name="exclamdown" unicode="&#xa1;" horiz-adv-x="277" 
d="M140 449q25 0 42 -17.5t17 -44.5t-17 -44.5t-43 -17.5q-27 0 -44 17.5t-17 44.5q0 28 17 45t45 17zM138 -227q-58 0 -58 33q0 7 7 77q12 92 33 353q4 7 19.5 7t18.5 -7q23 -289 31 -353t8 -77q0 -33 -59 -33z" />
    <glyph glyph-name="cent" unicode="&#xa2;" horiz-adv-x="483" 
d="M420 221l17 -24q-30 -39 -70 -65.5t-78 -32.5v-98h-36v96q-89 2 -146 62t-57 140q0 55 25.5 103t68.5 80q48 36 109 50v83h36v-79q7 1 17 1q63 0 101 -26q14 -10 14 -26t-12.5 -30t-24.5 -14q-6 0 -15 9q-38 38 -80 43v-329q70 -1 131 57zM253 168v326q-45 -2 -81.5 -41
t-36.5 -113q0 -77 35.5 -119t82.5 -53z" />
    <glyph glyph-name="sterling" unicode="&#xa3;" horiz-adv-x="483" 
d="M380 293h-167q1 -8 1 -21q0 -89 -91 -168q50 0 105 -26q89 -38 123 -38q55 0 55 42q0 15 -8 33q-4 10 3 22q19 26 37 26q10 0 17 -12.5t7 -27.5q0 -32 -23.5 -64.5t-55.5 -53.5q-47 -32 -93 -32q-19 0 -46 10t-40 17t-49 27q-41 24 -60 24q-24 0 -40 -43q-4 -13 -13 -13
q-12 0 -18 12.5t4 35.5q9 17 51 64q41 47 41 130q0 28 -4 56h-89v40h84q-6 54 -6 82q0 108 85 175q55 43 107 45q31 0 58.5 -13.5t38.5 -27.5q12 -16 3 -33q-6 -12 -20 -24q-15 -10 -28 3q-53 43 -95 43q-66 0 -66 -90q0 -46 22 -160h170v-40z" />
    <glyph glyph-name="currency" unicode="&#xa4;" horiz-adv-x="483" 
d="M452 135l-43 -42l-64 75q-45 -38 -106 -38q-62 0 -107 38l-64 -75l-41 42l68 67q-42 51 -42 123q0 71 43 122l-69 68l41 41l65 -75q45 38 106 38h1q59 0 105 -37l64 74l43 -41l-69 -68q42 -50 42 -122t-43 -123zM239 467q-52 0 -86.5 -40t-34.5 -102q0 -64 34.5 -103.5
t87.5 -39.5q52 0 86.5 39.5t34.5 103.5q0 63 -34.5 102.5t-87.5 39.5z" />
    <glyph glyph-name="yen" unicode="&#xa5;" horiz-adv-x="483" 
d="M470 623v-27q-38 -5 -53 -17.5t-38 -53.5q-36 -63 -98 -192h128v-37h-135v-31v-37h136v-37h-136v-79q0 -54 14 -67t76 -17v-28h-266v28q61 4 74.5 17t13.5 67v79h-131v37h131v31v37h-130v37h120q-40 98 -84 191q-20 44 -34.5 55.5t-50.5 16.5v27h212v-27l-25 -5
q-20 -4 -25 -10t1 -22q29 -75 84 -205q70 147 86 191q9 22 5 32t-27 14l-27 5v27h179z" />
    <glyph glyph-name="brokenbar" unicode="&#xa6;" horiz-adv-x="264" 
d="M166 325h-67v350h67v-350zM166 -175h-67v350h67v-350z" />
    <glyph glyph-name="section" unicode="&#xa7;" horiz-adv-x="477" 
d="M427 202q-1 -104 -99 -213q-65 -70 -141 -93q-40 0 -69 22q-19 15 -19 29q0 16 22 35q11 8 22 3q37 -28 79 -28q27 0 47 15t21 42q0 38 -66 101q-60 58 -101 99q-71 69 -71 153q1 91 81 176q38 42 71.5 64.5t78.5 33.5q41 0 68 -23q12 -12 12 -24q-1 -21 -20 -34
q-11 -8 -20 -1q-30 27 -77 27q-29 0 -45.5 -16t-16.5 -34q0 -34 37 -67q15 -13 110 -95q97 -80 96 -172zM104 412q0 -78 88 -160q100 -90 123 -127q22 -38 19 -77l2 -2q37 54 37 111q0 77 -82 149q-96 87 -110 101q-44 44 -40 98l-3 1q-34 -45 -34 -94z" />
    <glyph glyph-name="dieresis" unicode="&#xa8;" 
d="M112 535q-21 0 -36 15.5t-15 36.5q0 22 15 37t37 15q21 0 35.5 -15t14.5 -37q0 -21 -15 -36.5t-36 -15.5zM287 535q-21 0 -36 15.5t-15 36.5q0 22 15 37t37 15q21 0 35.5 -15t14.5 -37q0 -21 -15 -36.5t-36 -15.5z" />
    <glyph glyph-name="copyright" unicode="&#xa9;" horiz-adv-x="701" 
d="M352 627q128 0 214 -88.5t86 -216.5q0 -127 -86 -215t-215 -88t-215.5 88t-86.5 215q0 128 87 216.5t216 88.5zM350 592q-109 0 -181 -77t-72 -192q0 -114 72.5 -191.5t181.5 -77.5t181 77.5t72 191.5q0 115 -72 192t-182 77zM480 263l23 -5q-25 -88 -26 -90
q-54 -19 -105 -19q-91 0 -140.5 51t-49.5 120q0 81 56.5 129t137.5 48q64 0 105 -18q1 -11 2.5 -24t4 -32t4.5 -34l-23 -4q-26 83 -99 83q-52 0 -82 -39.5t-30 -101.5q0 -65 33 -106.5t82 -41.5q71 0 107 84z" />
    <glyph glyph-name="ordfeminine" unicode="&#xaa;" horiz-adv-x="310" 
d="M299 302l-65 -33q-35 1 -47 39q-60 -39 -76 -39q-33 0 -56 23.5t-23 53.5q0 43 49 61q3 1 32 11.5t45.5 18t26.5 14.5v11q0 24 -13 38.5t-35 14.5q-31 0 -46 -53q-5 -16 -22 -16q-11 0 -22 9t-11 21q0 13 21 28q45 34 100 43q43 0 66.5 -22.5t23.5 -66.5v-108
q0 -34 21 -34q10 0 24 6zM185 332v91q-6 -4 -28 -13t-29 -13q-29 -15 -29 -39q0 -21 13 -32.5t30 -11.5q23 0 43 18z" />
    <glyph glyph-name="guillemotleft" unicode="&#xab;" horiz-adv-x="446" 
d="M231 53l-24 -16q-95 124 -158 185q68 68 158 185l24 -16l-91 -169zM399 53l-24 -16q-98 124 -158 185q68 70 158 185l24 -16l-91 -169z" />
    <glyph glyph-name="logicalnot" unicode="&#xac;" horiz-adv-x="579" 
d="M529 98h-61v219h-418v52h479v-271z" />
    <glyph glyph-name="uni00AD" unicode="&#xad;" horiz-adv-x="353" 
d="M300 255l-14 -58h-232l14 58h232z" />
    <glyph glyph-name="registered" unicode="&#xae;" horiz-adv-x="320" 
d="M161 659q55 0 92.5 -38.5t37.5 -91.5q0 -52 -38 -90.5t-93 -38.5t-92 37t-37 92q0 53 38 91.5t92 38.5zM160 636q-43 0 -71.5 -31t-28.5 -76t29 -75.5t72 -30.5t72.5 30.5t29.5 75.5t-29.5 76t-73.5 31zM235 473l-3 -12q-34 0 -49 20q-5 7 -11.5 18.5t-7.5 12.5
q-4 7 -13 7h-4v-23q0 -13 3 -15.5t16 -3.5v-15h-68v15q14 1 16.5 3.5t2.5 15.5v69q0 13 -2.5 15.5t-15.5 3.5v15h68q49 0 49 -36q0 -24 -27 -34q13 -25 33 -46q4 -4 13 -10zM147 535h9q12 0 17 4q11 7 11 21q0 13 -7.5 18.5t-16.5 5.5q-13 0 -13 -12v-37z" />
    <glyph glyph-name="macron" unicode="&#xaf;" 
d="M313 547h-225v58h225v-58z" />
    <glyph glyph-name="degree" unicode="&#xb0;" horiz-adv-x="340" 
d="M172 664q56 0 97 -38t41 -98q0 -62 -41 -99t-98 -37q-58 0 -99 37t-41 99q0 60 41.5 98t99.5 38zM171 621q-35 0 -57 -26t-22 -67t22.5 -67t57.5 -26t56.5 25.5t21.5 66.5q0 42 -21.5 68t-57.5 26z" />
    <glyph glyph-name="plusminus" unicode="&#xb1;" horiz-adv-x="579" 
d="M529 310h-208v-202h-61v202h-209v52h209v189h61v-189h208v-52zM529 0h-478v52h478v-52z" />
    <glyph glyph-name="twosuperior" unicode="&#xb2;" horiz-adv-x="342" 
d="M286 498l23 -7q-11 -33 -25 -91h-245v23q35 27 53 43t51 48t49 62t16 58q0 35 -18 53.5t-47 18.5q-46 0 -84 -54l-19 18l33 45q37 45 98 45q47 0 79.5 -29t32.5 -79q0 -35 -23.5 -67t-82.5 -83l-51 -45v-2h92q28 0 40.5 7.5t27.5 35.5z" />
    <glyph glyph-name="threesuperior" unicode="&#xb3;" horiz-adv-x="342" 
d="M207 613l-1 -2q42 -8 65.5 -29.5t23.5 -53.5q0 -42 -34.5 -74.5t-72 -46t-63.5 -13.5q-43 0 -69 21q-16 13 -10 29q4 15 18 25q11 6 22 -2q44 -34 75 -34q27 0 44 18t17 55q0 33 -22 50t-53 17q-17 0 -41 -6l-6 25q97 31 97 77q0 19 -14 31.5t-37 12.5q-43 0 -74 -48
l-17 17l30 41q35 37 87 37h1q44 0 70.5 -22.5t26.5 -54.5q0 -26 -20 -41q-17 -15 -43 -29z" />
    <glyph glyph-name="acute" unicode="&#xb4;" 
d="M195 492l-27 14q8 18 22 53.5t27 68l15 37.5q8 4 42.5 8t43.5 2l4 -10z" />
    <glyph glyph-name="mu" unicode="&#xb5;" horiz-adv-x="517" 
d="M503 56l11 -26q-14 -17 -39 -29.5t-51 -12.5q-31 0 -53 20.5t-27 55.5h-2q-67 -76 -130 -76q-52 0 -81 42h-4v-16q-1 -54 12 -138.5t24 -117.5l-13 -12q-17 1 -40.5 13.5t-36.5 25.5q-2 7 -2 261v288q0 61 -3 97l88 19q3 -24 3 -107v-171q0 -63 26.5 -91t62.5 -28
q53 0 93 49v329l88 19v-334q0 -69 40 -69q18 0 34 9z" />
    <glyph glyph-name="paragraph" unicode="&#xb6;" horiz-adv-x="501" 
d="M469 534l-30 -28l-88 -10v-473q0 -116 -69 -186q-20 -22 -49 -36.5t-40 -14.5q-42 0 -67 23q-15 13 -10 31q5 16 20 27q10 8 20 1q33 -22 65 -22q77 0 77 157v147l-68 -29q-3 -2 -17 -2q-51 0 -108 57.5t-57 144.5q0 97 68 162q31 29 72 46t78 17h199z" />
    <glyph glyph-name="periodcentered" unicode="&#xb7;" horiz-adv-x="231" 
d="M115 171q-25 0 -42 17.5t-17 44.5q0 26 17 43.5t43 17.5t43 -17.5t17 -43.5q0 -27 -17 -44.5t-44 -17.5z" />
    <glyph glyph-name="cedilla" unicode="&#xb8;" 
d="M247 1l-22 -27q-9 -13 -8 -21t13 -20q39 -39 39 -69q0 -31 -31 -58t-85 -43l-12 26q60 26 60 60q0 16 -22 38q-20 18 -22.5 31t12.5 33l38 50h40z" />
    <glyph glyph-name="onesuperior" unicode="&#xb9;" horiz-adv-x="342" 
d="M276 401h-201v24q41 3 53 13.5t12 46.5v174q0 29 -5.5 36.5t-31.5 8.5l-29 2v24q70 8 138 29v-274q0 -36 11 -45.5t53 -14.5v-24z" />
    <glyph glyph-name="ordmasculine" unicode="&#xba;" horiz-adv-x="341" 
d="M172 547q61 0 100.5 -39.5t39.5 -95.5q-1 -66 -44 -104.5t-98 -38.5q-66 0 -105 41t-39 95q1 66 46.5 104t99.5 38zM162 519q-24 0 -42 -26t-18 -74q0 -53 21 -87t52 -34q61 0 62 99q1 54 -19.5 88t-55.5 34z" />
    <glyph glyph-name="guillemotright" unicode="&#xbb;" horiz-adv-x="447" 
d="M49 391l24 16q92 -116 159 -185q-73 -75 -159 -185l-24 16l92 169zM215 391l25 16q95 -122 158 -185q-68 -68 -158 -185l-25 16l92 169z" />
    <glyph glyph-name="onequarter" unicode="&#xbc;" horiz-adv-x="766" 
d="M279 277h-200v24q41 3 53 13.5t12 46.5v174q0 29 -5.5 36t-31.5 9l-29 2v24q70 8 138 29l-1 -274q0 -36 11.5 -45.5t52.5 -14.5v-24zM605 630l-406 -659l-32 25l404 658zM690 99h-58v-27q0 -29 10 -37.5t44 -11.5v-23h-184v23q41 3 52.5 11.5t11.5 37.5v27h-161v24
q109 145 185 236h42v-222l58 1v-39zM566 138v144h-3q-47 -60 -105 -144h108z" />
    <glyph glyph-name="onehalf" unicode="&#xbd;" horiz-adv-x="767" 
d="M272 277h-200v24q41 3 53 13.5t12 46.5v174q0 29 -6 36t-31 9l-29 2v24q69 8 137 29v-274q0 -36 11.5 -45.5t52.5 -14.5v-24zM591 630l-406 -659l-32 25l403 658zM685 98l22 -7q-16 -54 -24 -91h-245v23q34 27 53 43.5t51 48t48 61.5t16 57q0 35 -18 53.5t-47 18.5
q-44 0 -84 -54l-18 18l33 45q35 45 98 45q46 0 78.5 -29t33.5 -79q0 -35 -23.5 -67t-82.5 -83l-51 -44l1 -2h91q29 0 41.5 7.5t26.5 35.5z" />
    <glyph glyph-name="threequarters" unicode="&#xbe;" horiz-adv-x="767" 
d="M608 630l-406 -659l-32 25l404 658zM685 99h-58v-27q0 -29 10 -37.5t44 -11.5v-23h-184v23q41 3 52.5 11.5t11.5 37.5v27h-161v24q109 145 185 236h42v-222l58 1v-39zM561 138v144h-3q-47 -60 -105 -144h108zM235 489v-2q42 -8 65 -29.5t23 -53.5q0 -42 -34.5 -74.5
t-72 -46t-63.5 -13.5q-43 0 -69 21q-16 13 -10 29q4 14 19 25q10 6 21 -2q44 -34 75 -34q27 0 44 18t17 54q0 34 -21.5 51t-52.5 17q-22 0 -41 -7l-7 26q97 31 97 77q0 19 -14 31.5t-37 11.5q-21 0 -41.5 -14.5t-32.5 -32.5l-17 16l30 42q34 36 87 36h1q43 0 70 -22.5
t27 -53.5q0 -25 -19 -41q-20 -16 -44 -29z" />
    <glyph glyph-name="questiondown" unicode="&#xbf;" horiz-adv-x="382" 
d="M195 450q24 0 40.5 -17t16.5 -44q0 -26 -16.5 -43t-41.5 -17t-42 17t-17 43q0 27 17 44t43 17zM161 220l19 24q38 -14 76 -51.5t38 -79.5q0 -27 -19.5 -53t-67.5 -61q-32 -23 -46.5 -33.5t-33.5 -33t-19 -39.5q0 -51 56 -51q28 0 54.5 14t43 28t20.5 14q13 0 28.5 -15
t15.5 -33t-21 -38q-22 -18 -50 -28t-46 -10h-1q-63 0 -113 49t-50 112q0 54 50 92q6 5 29.5 22.5t38 30t28 31t13.5 34.5q0 37 -43 75z" />
    <glyph glyph-name="Agrave" unicode="&#xc0;" horiz-adv-x="694" 
d="M676 0h-253v29q47 6 57.5 16.5t-0.5 40.5q-13 41 -52 146h-210q-15 -42 -43 -124q-15 -46 -4 -59.5t67 -19.5v-29h-219v29q50 7 68.5 23.5t43.5 79.5l207 523l35 10q159 -441 193 -533q24 -64 42 -81t68 -22v-29zM413 277l-85 248h-3q-53 -143 -91 -248h179zM409 710
l-13 -26l-190 63l-2 8q3 13 19 35.5t26 26.5q108 -72 160 -107z" />
    <glyph glyph-name="Aacute" unicode="&#xc1;" horiz-adv-x="694" 
d="M676 0h-253v29q47 6 57.5 16.5t-0.5 40.5q-13 41 -52 146h-210q-15 -42 -43 -124q-15 -46 -4 -59.5t67 -19.5v-29h-219v29q50 7 68.5 23.5t43.5 79.5l207 523l35 10q159 -441 193 -533q24 -64 42 -81t68 -22v-29zM413 277l-85 248h-3q-53 -143 -91 -248h179zM508 756
l-2 -9l-189 -63l-13 26q90 58 160 105q9 -2 25.5 -24t18.5 -35z" />
    <glyph glyph-name="Acircumflex" unicode="&#xc2;" horiz-adv-x="694" 
d="M676 0h-253v29q47 6 57.5 16.5t-0.5 40.5q-13 41 -52 146h-210q-15 -42 -43 -124q-15 -46 -4 -59.5t67 -19.5v-29h-219v29q50 7 68.5 23.5t43.5 79.5l207 523l35 10q159 -441 193 -533q24 -64 42 -81t68 -22v-29zM413 277l-85 248h-3q-53 -143 -91 -248h179zM497 709
l-16 -25q-42 17 -123 62q-84 -46 -122 -62l-16 25q90 71 127 110h23q37 -39 127 -110z" />
    <glyph glyph-name="Atilde" unicode="&#xc3;" horiz-adv-x="694" 
d="M676 0h-253v29q47 6 57.5 16.5t-0.5 40.5q-13 41 -52 146h-210q-15 -42 -43 -124q-15 -46 -4 -59.5t67 -19.5v-29h-219v29q50 7 68.5 23.5t43.5 79.5l207 523l35 10q159 -441 193 -533q24 -64 42 -81t68 -22v-29zM413 277l-85 248h-3q-53 -143 -91 -248h179zM305 790
q21 0 62 -19q35 -16 56 -16q26 0 47 43l26 -14q-29 -87 -85 -87q-23 0 -70 21q-28 14 -45 14q-26 0 -49 -44l-25 18q33 84 83 84z" />
    <glyph glyph-name="Adieresis" unicode="&#xc4;" horiz-adv-x="694" 
d="M676 0h-253v29q46 6 56.5 16.5t0.5 40.5q-13 41 -52 146h-209q-24 -67 -42 -124q-16 -46 -5 -59.5t67 -19.5v-29h-219v29q50 7 69 23.5t44 79.5l206 523l34 10q27 -75 92.5 -257t100.5 -276q24 -64 42 -81t68 -22v-29zM413 277l-85 248h-2q-31 -80 -91 -248h178zM452 800
q21 0 35.5 -15.5t14.5 -37.5q0 -21 -15 -36t-36 -15t-36 15.5t-15 35.5q0 22 15 37.5t37 15.5zM258 800q21 0 35.5 -15.5t14.5 -37.5q0 -21 -14.5 -36t-36.5 -15q-21 0 -36 15t-15 36q0 22 15 37.5t37 15.5z" />
    <glyph glyph-name="Aring" unicode="&#xc5;" horiz-adv-x="694" 
d="M675 0h-253v29q47 6 57.5 16.5t0.5 40.5q-37 105 -52 146h-210q-15 -42 -43 -124q-15 -46 -4 -59.5t67 -19.5v-29h-219v29q50 7 68.5 23.5t43.5 79.5l207 523l34 10q27 -75 92.5 -257t100.5 -276q23 -64 42 -81t68 -22v-29zM412 277l-85 248h-2q-17 -45 -47.5 -129
t-43.5 -119h178zM356 857q35 0 62 -23.5t27 -61.5t-27 -62t-63 -24t-62.5 24t-26.5 62t27 61.5t63 23.5zM355 824q-19 0 -31.5 -14.5t-12.5 -37.5q0 -24 12.5 -39t32.5 -15q19 0 31 15t12 39q0 23 -12 37.5t-32 14.5z" />
    <glyph glyph-name="AE" unicode="&#xc6;" horiz-adv-x="871" 
d="M822 167l30 -7q-32 -146 -36 -160h-477v29q63 4 78 21.5t15 85.5v160h-176q-56 -109 -93 -191q-19 -40 -8.5 -54.5t66.5 -21.5v-29h-232v29q48 6 69.5 21t49.5 65q100 177 237 448q16 29 11.5 39.5t-39.5 14.5l-44 6v27h519q3 -74 10 -143l-31 -4q-15 60 -33 83
q-12 15 -34 21t-71 6h-77q-23 0 -28 -5t-5 -27v-245h85q66 0 83 12t27 64h31v-196h-31q-10 55 -27 67.5t-83 12.5h-85v-164q0 -40 5 -58t19 -26q19 -11 100 -11q52 0 80 7t44 27q27 31 51 96zM432 336v272q-12 0 -27 -17q-60 -113 -130 -255h157z" />
    <glyph glyph-name="Ccedilla" unicode="&#xc7;" horiz-adv-x="664" 
d="M614 179l31 -11q-29 -105 -55 -156q-95 -23 -165 -25l-11 -13q-16 -19 6 -42q38 -39 38 -69t-31 -57.5t-84 -44.5l-15 28q61 27 61 60q0 14 -22 38q-19 19 -21.5 31.5t10.5 31.5l27 36q-85 3 -152 33t-106.5 77.5t-59.5 103.5t-20 115q0 155 107 252.5t276 97.5
q69 0 177 -27q13 -82 21 -155l-31 -6q-24 82 -68.5 116t-125.5 34q-110 0 -176.5 -82.5t-66.5 -207.5q0 -137 68.5 -225t181.5 -88q73 0 119 37t87 118z" />
    <glyph glyph-name="Egrave" unicode="&#xc8;" horiz-adv-x="570" 
d="M520 164l30 -5q-16 -94 -35 -159h-487v29q67 5 82.5 20t15.5 77v395q0 66 -13 80.5t-72 19.5v29h450q1 -12 4.5 -65.5t4.5 -79.5l-30 -5q-11 52 -34 86q-11 16 -34.5 22t-75.5 6h-72q-24 0 -29 -5t-5 -28v-225h90q66 0 82 12t26 63h30v-193h-30q-10 53 -26.5 65t-81.5 12
h-90v-185q0 -66 24 -82q19 -12 101 -12q54 0 80.5 7t43.5 26q29 35 51 95zM350 710l-13 -26l-190 63l-2 8q3 13 19 35.5t26 26.5q108 -72 160 -107z" />
    <glyph glyph-name="Eacute" unicode="&#xc9;" horiz-adv-x="570" 
d="M520 164l30 -5q-16 -94 -35 -159h-487v29q67 5 82.5 20t15.5 77v395q0 66 -13 80.5t-72 19.5v29h450q1 -12 4.5 -65.5t4.5 -79.5l-30 -5q-11 52 -34 86q-11 16 -34.5 22t-75.5 6h-72q-24 0 -29 -5t-5 -28v-225h90q66 0 82 12t26 63h30v-193h-30q-10 53 -26.5 65t-81.5 12
h-90v-185q0 -66 24 -82q19 -12 101 -12q54 0 80.5 7t43.5 26q29 35 51 95zM435 756l-2 -9l-190 -63l-12 25q111 74 160 106q9 -2 25.5 -24t18.5 -35z" />
    <glyph glyph-name="Ecircumflex" unicode="&#xca;" horiz-adv-x="570" 
d="M520 164l30 -5q-16 -94 -35 -159h-487v29q67 5 82.5 20t15.5 77v395q0 66 -13 80.5t-72 19.5v29h450q1 -12 4.5 -65.5t4.5 -79.5l-30 -5q-11 52 -34 86q-11 16 -34.5 22t-75.5 6h-72q-24 0 -29 -5t-5 -28v-225h90q66 0 82 12t26 63h30v-193h-30q-10 53 -26.5 65t-81.5 12
h-90v-185q0 -66 24 -82q19 -12 101 -12q54 0 80.5 7t43.5 26q29 35 51 95zM427 709l-16 -25q-51 22 -123 62q-95 -50 -122 -62l-16 25q86 68 127 110h23q43 -45 127 -110z" />
    <glyph glyph-name="Edieresis" unicode="&#xcb;" horiz-adv-x="570" 
d="M520 164l30 -5q-16 -94 -35 -159h-486l-1 29q67 5 82.5 20t15.5 77v395q0 66 -13 80.5t-72 19.5v29h450q1 -12 4.5 -65.5t4.5 -79.5l-30 -5q-11 52 -34 86q-11 16 -34.5 22t-75.5 6h-72q-24 0 -29 -5t-5 -28v-225h90q66 0 82 12t26 63h30v-193h-30q-10 53 -26.5 65
t-81.5 12h-90v-185q0 -66 24 -82q19 -12 101 -12q54 0 80.5 7t43.5 26q29 35 51 95zM388 803q22 0 36.5 -15t14.5 -38q0 -21 -15 -36t-37 -15q-20 0 -35.5 15t-15.5 36q0 22 15.5 37.5t36.5 15.5zM194 803q21 0 35.5 -15.5t14.5 -37.5q0 -21 -15 -36.5t-36 -15.5
q-20 0 -35.5 15.5t-15.5 36.5q0 22 15.5 37.5t36.5 15.5z" />
    <glyph glyph-name="Igrave" unicode="&#xcc;" horiz-adv-x="347" 
d="M309 0h-272v29q61 5 75 19.5t14 77.5v398q0 63 -14 77.5t-75 19.5v29h272v-29q-61 -5 -75 -19.5t-14 -77.5v-398q0 -63 14 -77.5t75 -19.5v-29zM239 710l-13 -26l-190 63l-2 8q3 13 19 35.5t26 26.5q108 -72 160 -107z" />
    <glyph glyph-name="Iacute" unicode="&#xcd;" horiz-adv-x="347" 
d="M309 0h-272v29q61 5 75 19.5t14 77.5v398q0 63 -14 77.5t-75 19.5v29h272v-29q-61 -5 -75 -19.5t-14 -77.5v-398q0 -63 14 -77.5t75 -19.5v-29zM318 756l-2 -9l-189 -63l-13 26q90 58 160 105q9 -2 25.5 -24t18.5 -35z" />
    <glyph glyph-name="Icircumflex" unicode="&#xce;" horiz-adv-x="347" 
d="M309 0h-272v29q61 5 75 19.5t14 77.5v398q0 63 -14 77.5t-75 19.5v29h272v-29q-61 -5 -75 -19.5t-14 -77.5v-398q0 -63 14 -77.5t75 -19.5v-29zM312 709l-16 -25q-42 17 -123 62q-84 -46 -122 -62l-16 25q90 71 127 110h23q37 -39 127 -110z" />
    <glyph glyph-name="Idieresis" unicode="&#xcf;" horiz-adv-x="347" 
d="M309 0h-271v29q61 5 74.5 19.5t13.5 77.5v398q0 63 -13.5 77.5t-74.5 19.5v29h271v-29q-61 -5 -74.5 -19.5t-13.5 -77.5v-398q0 -63 13.5 -77.5t74.5 -19.5v-29zM270 801l2 -1q21 0 35.5 -15.5t14.5 -37.5q0 -21 -15 -36t-36 -15t-36 15.5t-15 35.5q0 22 14.5 37.5
t35.5 16.5zM78 800q21 0 35.5 -15.5t14.5 -37.5q0 -21 -14.5 -36t-36.5 -15q-21 0 -36 15t-15 36q0 22 15 37.5t37 15.5z" />
    <glyph glyph-name="Eth" unicode="&#xd0;" horiz-adv-x="741" 
d="M53 650h280q189 0 278 -86q86 -83 86 -214q0 -172 -125 -267q-110 -83 -293 -83h-234v29q64 5 78.5 21.5t14.5 86.5v182h-101v43h101v151q0 70 -13.5 86.5t-71.5 21.5v29zM232 319v-186q0 -54 17.5 -74t76.5 -20q127 0 194.5 83t67.5 213q0 166 -108 238q-58 42 -160 42
q-60 0 -76 -11q-12 -7 -12 -43v-199h154v-43h-154z" />
    <glyph glyph-name="Ntilde" unicode="&#xd1;" horiz-adv-x="743" 
d="M720 650v-29q-43 -2 -61.5 -15t-22.5 -45q-6 -62 -6 -168v-402h-34l-424 519h-2v-247q0 -109 6 -167q4 -37 24 -50.5t73 -16.5v-29h-239v29q44 2 63.5 16t23.5 49q7 72 7 169v219q0 53 -3 68.5t-17 33.5q-25 32 -88 37v29h154l411 -491h3v234q0 98 -7 166q-4 33 -24.5 46
t-73.5 16v29h237zM325 790q21 0 62 -19q34 -16 55 -16q27 0 47 43l26 -14q-28 -88 -84 -88q-21 0 -70 22q-30 14 -46 14q-24 0 -48 -44l-25 18q33 84 83 84z" />
    <glyph glyph-name="Ograve" unicode="&#xd2;" horiz-adv-x="750" 
d="M383 665q133 0 228.5 -93t95.5 -239q0 -158 -97 -253t-239 -95q-139 0 -233.5 95.5t-94.5 238.5q0 141 93 243.5t247 102.5zM361 628q-86 0 -146 -75t-60 -208q0 -139 66.5 -231t170.5 -92q86 0 144.5 74t58.5 210q0 152 -66 237t-168 85zM447 718l-13 -26l-190 63l-2 8
q3 13 19 35.5t26 26.5q108 -72 160 -107z" />
    <glyph glyph-name="Oacute" unicode="&#xd3;" horiz-adv-x="750" 
d="M383 665q133 0 228.5 -93t95.5 -239q0 -158 -97 -253t-239 -95q-139 0 -233.5 95.5t-94.5 238.5q0 141 93 243.5t247 102.5zM361 628q-86 0 -146 -75t-60 -208q0 -139 66.5 -231t170.5 -92q86 0 144.5 74t58.5 210q0 152 -66 237t-168 85zM509 763l-2 -9l-189 -63l-13 26
q90 58 160 105q9 -2 25.5 -24t18.5 -35z" />
    <glyph glyph-name="Ocircumflex" unicode="&#xd4;" horiz-adv-x="750" 
d="M383 665q133 0 228.5 -93t95.5 -239q0 -158 -97 -253t-239 -95q-139 0 -233.5 95.5t-94.5 238.5q0 141 93 243.5t247 102.5zM361 628q-86 0 -146 -75t-60 -208q0 -139 66.5 -231t170.5 -92q86 0 144.5 74t58.5 210q0 152 -66 237t-168 85zM513 717l-16 -25
q-42 17 -123 62q-84 -46 -122 -62l-16 25q90 71 127 110h23q37 -39 127 -110z" />
    <glyph glyph-name="Otilde" unicode="&#xd5;" horiz-adv-x="750" 
d="M383 665q133 0 228.5 -93t95.5 -239q0 -158 -97 -253t-239 -95q-139 0 -233.5 95.5t-94.5 238.5q0 141 93 243.5t247 102.5zM361 628q-86 0 -146 -75t-60 -208q0 -139 66.5 -231t170.5 -92q86 0 144.5 74t58.5 210q0 152 -66 237t-168 85zM324 799q21 0 62 -19
q35 -16 56 -16q26 0 46 43l26 -14q-28 -87 -84 -87q-23 0 -70 21q-30 14 -45 14q-26 0 -49 -44l-25 18q33 84 83 84z" />
    <glyph glyph-name="Odieresis" unicode="&#xd6;" horiz-adv-x="750" 
d="M383 665q133 0 228.5 -93t95.5 -239q0 -158 -97 -253t-239 -95q-139 0 -233.5 95.5t-94.5 238.5q0 141 93 243.5t247 102.5zM361 628q-86 0 -146 -75t-60 -208q0 -139 66.5 -231t170.5 -92q86 0 145 74t59 210q0 151 -66.5 236.5t-168.5 85.5zM471 805h2q21 0 35.5 -15.5
t14.5 -37.5q0 -21 -15 -36t-36 -15t-36 15.5t-15 35.5q0 22 15 37.5t35 15.5zM279 805q21 0 35.5 -15.5t14.5 -37.5q0 -21 -14.5 -36t-36.5 -15q-21 0 -36 15t-15 36q0 22 15 37.5t37 15.5z" />
    <glyph glyph-name="multiply" unicode="&#xd7;" horiz-adv-x="579" 
d="M521 49l-39 -40l-193 197l-192 -197l-38 40l191 197l-191 196l38 40l192 -196l193 197l39 -39l-193 -198z" />
    <glyph glyph-name="Oslash" unicode="&#xd8;" horiz-adv-x="753" 
d="M636 674l-49 -75q57 -47 91.5 -115.5t34.5 -148.5q0 -157 -97 -253.5t-242 -96.5q-95 0 -172 49l-56 -80l-28 24l53 77q-57 47 -89.5 115t-32.5 150q0 139 94 242t248 103q93 0 164 -45l51 75zM220 126l296 437q-56 65 -147 65q-89 0 -150.5 -75t-61.5 -210
q0 -129 63 -217zM540 532l-296 -438q55 -72 147 -72q103 0 158 78.5t55 205.5q0 133 -64 226z" />
    <glyph glyph-name="Ugrave" unicode="&#xd9;" horiz-adv-x="735" 
d="M717 650v-29q-45 -3 -64.5 -16t-22.5 -43q-6 -56 -6 -158v-87q0 -182 -75 -261q-67 -70 -180 -70q-99 0 -163 48q-87 68 -87 238v247q0 66 -13.5 81.5t-73.5 20.5v29h267v-29q-59 -4 -72.5 -19.5t-13.5 -82.5v-225q0 -121 46.5 -186t136.5 -65q185 0 185 281v80
q0 111 -8 161q-4 29 -24 40.5t-72 15.5v29h240zM441 710l-13 -26l-190 63l-2 8q3 13 19 35.5t26 26.5q108 -72 160 -107z" />
    <glyph glyph-name="Uacute" unicode="&#xda;" horiz-adv-x="735" 
d="M717 650v-29q-45 -3 -64.5 -16t-22.5 -43q-6 -56 -6 -158v-87q0 -182 -75 -261q-67 -70 -180 -70q-99 0 -163 48q-87 68 -87 238v247q0 66 -13.5 81.5t-73.5 20.5v29h267v-29q-59 -4 -72.5 -19.5t-13.5 -82.5v-225q0 -121 46.5 -186t136.5 -65q185 0 185 281v80
q0 111 -8 161q-4 29 -24 40.5t-72 15.5v29h240zM523 756l-2 -9l-189 -63l-13 26q90 58 160 105q9 -2 25.5 -24t18.5 -35z" />
    <glyph glyph-name="Ucircumflex" unicode="&#xdb;" horiz-adv-x="735" 
d="M717 650v-29q-45 -3 -64.5 -16t-22.5 -43q-6 -56 -6 -158v-87q0 -182 -75 -261q-67 -70 -180 -70q-99 0 -163 48q-87 68 -87 238v247q0 66 -13.5 81.5t-73.5 20.5v29h267v-29q-59 -4 -72.5 -19.5t-13.5 -82.5v-225q0 -121 46.5 -186t136.5 -65q185 0 185 281v80
q0 111 -8 161q-4 29 -24 40.5t-72 15.5v29h240zM520 709l-16 -25q-42 17 -123 62q-84 -46 -122 -62l-16 25q90 71 127 110h23q37 -39 127 -110z" />
    <glyph glyph-name="Udieresis" unicode="&#xdc;" horiz-adv-x="735" 
d="M716 650v-29q-44 -3 -63.5 -16t-22.5 -43q-6 -56 -6 -158v-87q0 -182 -75 -261q-67 -70 -181 -70q-98 0 -162 48q-87 68 -87 238v247q0 66 -13.5 81.5t-73.5 20.5v29h266v-29q-59 -4 -72 -19.5t-13 -82.5v-225q0 -121 46.5 -186t136.5 -65q185 0 185 281v80q0 111 -8 161
q-4 29 -24 40.5t-72 15.5v29h239zM474 801l2 -1q21 0 35.5 -15.5t14.5 -37.5q0 -21 -15 -36t-36 -15t-36 15.5t-15 35.5q0 22 14.5 37.5t35.5 16.5zM282 800q21 0 35.5 -15.5t14.5 -37.5q0 -21 -14.5 -36t-36.5 -15q-21 0 -36 15t-15 36q0 22 15 37.5t37 15.5z" />
    <glyph glyph-name="Yacute" unicode="&#xdd;" horiz-adv-x="638" 
d="M625 650v-29q-50 -6 -70 -20t-49 -60q-64 -101 -125 -215q-16 -32 -16 -64v-135q0 -64 15.5 -78.5t83.5 -19.5v-29h-290v29q67 5 82 20t15 78v129q0 24 -19 59q-74 133 -126 221q-30 52 -48 66.5t-62 18.5v29h247v-29q-50 -6 -58 -18t8 -37q1 -1 131 -234q86 156 116 224
q17 36 7.5 47.5t-65.5 17.5v29h223zM477 756l-2 -9l-188 -63l-13 25l159 106q9 -2 25.5 -24t18.5 -35z" />
    <glyph glyph-name="Thorn" unicode="&#xde;" horiz-adv-x="557" 
d="M296 650v-29q-31 -3 -44 -5.5t-23 -15.5t-11.5 -32.5t-1.5 -61.5q60 2 87 2q216 0 216 -171q0 -87 -66 -135.5t-164 -49.5l-73 17v-43q0 -62 15 -77t79 -20v-29h-272v29q59 5 72.5 21t13.5 82v387q0 67 -12.5 82t-68.5 20v29h253zM216 433v-228q29 -12 64 -12
q56 0 95.5 36t39.5 105t-36.5 104t-100.5 35q-38 0 -52 -9q-10 -7 -10 -31z" />
    <glyph glyph-name="germandbls" unicode="&#xdf;" horiz-adv-x="550" 
d="M101 438v12q0 49 13 86q20 70 85 123q57 46 127 52q72 -2 116 -42t45 -109q0 -24 -11 -40q-100 -75 -100 -133q0 -17 11.5 -35.5t21 -28t35.5 -33.5q79 -68 79 -133q0 -68 -62.5 -119t-123.5 -51q-33 0 -55 13q-24 16 -20 35q3 15 19 27q12 9 21 1q38 -30 74 -30
q25 0 45.5 19t20.5 58q0 30 -16 54.5t-49 54.5q-83 72 -83 126q0 27 15.5 51t53.5 65q38 38 41 43q7 9 7 34q1 51 -32.5 90.5t-83.5 39.5q-34 0 -56.5 -21t-32.5 -61.5t-13.5 -82t-3.5 -100.5v-299q0 -46 8.5 -59t42.5 -17v-28h-209v28q47 4 58.5 16.5t11.5 58.5v290h-69
l-4 12l27 33h46z" />
    <glyph glyph-name="agrave" unicode="&#xe0;" horiz-adv-x="444" 
d="M438 40l-89 -52q-29 0 -49 20q-17 17 -25 43q-3 -2 -16.5 -11.5t-19 -13t-17 -11.5t-18 -11t-15.5 -7.5t-16 -6.5t-13 -2q-53 0 -88 37.5t-35 85.5q0 70 80 98q132 46 156 66v19q0 52 -21.5 81.5t-58.5 29.5q-27 0 -43 -19q-17 -20 -29 -67q-7 -25 -32 -25
q-16 0 -31.5 13.5t-15.5 30.5q0 18 33 42q26 19 70 40.5t82 29.5q51 0 85 -27q46 -38 46 -125v-182q0 -59 35 -59q18 0 35 10zM273 83v157l-84 -40q-30 -15 -44 -31t-14 -42q0 -36 21.5 -56t47.5 -20q39 0 73 32zM255 503l-28 -13q-70 96 -119 159l3 9q8 5 39 10.5t43 4.5
q9 -24 30.5 -84t31.5 -86z" />
    <glyph glyph-name="aacute" unicode="&#xe1;" horiz-adv-x="444" 
d="M438 40l-89 -52q-29 0 -49 20q-17 17 -25 43q-3 -2 -16.5 -11.5t-19 -13t-17 -11.5t-18 -11t-15.5 -7.5t-16 -6.5t-13 -2q-53 0 -88 37.5t-35 85.5q0 70 80 98q132 46 156 66v19q0 52 -21.5 81.5t-58.5 29.5q-27 0 -43 -19q-17 -20 -29 -67q-7 -25 -32 -25
q-16 0 -31.5 13.5t-15.5 30.5q0 18 33 42q26 19 70 40.5t82 29.5q51 0 85 -27q46 -38 46 -125v-182q0 -59 35 -59q18 0 35 10zM273 83v157l-84 -40q-30 -15 -44 -31t-14 -42q0 -36 21.5 -56t47.5 -20q39 0 73 32zM205 492l-27 14q8 18 22 53.5t27 68l15 37.5q8 4 42.5 8
t43.5 2l4 -10z" />
    <glyph glyph-name="acircumflex" unicode="&#xe2;" horiz-adv-x="444" 
d="M438 40l-89 -52q-29 0 -49 20q-17 17 -25 43q-3 -2 -16.5 -11.5t-19 -13t-17 -11.5t-18 -11t-15.5 -7.5t-16 -6.5t-13 -2q-53 0 -88 37.5t-35 85.5q0 70 80 98q132 46 156 66v19q0 52 -21.5 81.5t-58.5 29.5q-27 0 -43 -19q-17 -20 -29 -67q-7 -25 -32 -25
q-16 0 -31.5 13.5t-15.5 30.5q0 18 33 42q26 19 70 40.5t82 29.5q51 0 85 -27q46 -38 46 -125v-182q0 -59 35 -59q18 0 35 10zM273 83v157l-84 -40q-30 -15 -44 -31t-14 -42q0 -36 21.5 -56t47.5 -20q39 0 73 32zM326 508l-25 -18q-35 31 -90 96q-55 -65 -90 -96l-25 18
q53 74 102 165h27q46 -88 101 -165z" />
    <glyph glyph-name="atilde" unicode="&#xe3;" horiz-adv-x="444" 
d="M438 40l-89 -52q-29 0 -49 20q-17 17 -25 43q-3 -2 -16.5 -11.5t-19 -13t-17 -11.5t-18 -11t-15.5 -7.5t-16 -6.5t-13 -2q-53 0 -88 37.5t-35 85.5q0 70 80 98q132 46 156 66v19q0 52 -21.5 81.5t-58.5 29.5q-27 0 -43 -19q-17 -20 -29 -67q-7 -25 -32 -25
q-16 0 -31.5 13.5t-15.5 30.5q0 18 33 42q26 19 70 40.5t82 29.5q51 0 85 -27q46 -38 46 -125v-182q0 -59 35 -59q18 0 35 10zM273 83v157l-84 -40q-30 -15 -44 -31t-14 -42q0 -36 21.5 -56t47.5 -20q39 0 73 32zM108 519l-27 17q30 93 83 93q20 0 59 -20q38 -19 54 -19
q23 0 44 46l26 -14q-28 -94 -81 -94q-22 0 -66 23q-26 16 -47 16q-25 0 -45 -48z" />
    <glyph glyph-name="adieresis" unicode="&#xe4;" horiz-adv-x="444" 
d="M439 40l-89 -52q-30 0 -50 20q-15 15 -24 43q-91 -63 -116 -63q-53 0 -87.5 37t-34.5 86q0 70 80 98q134 48 156 66v19q0 53 -22 82t-59 29q-26 0 -43 -19q-17 -20 -29 -67q-7 -25 -31 -25q-16 0 -31.5 13.5t-15.5 30.5q0 18 32 42q77 54 153 70q50 0 85 -27
q46 -38 46 -125v-182q0 -59 34 -59q19 0 36 10zM274 83v157l-84 -40q-31 -15 -45 -31t-14 -42q0 -36 22 -56t48 -20q39 0 73 32zM124 534q-20 0 -35.5 15.5t-15.5 36.5q0 22 15.5 37t36.5 15t36 -15t15 -37q0 -21 -15 -36.5t-37 -15.5zM299 534q-20 0 -35.5 15.5t-15.5 36.5
q0 22 15.5 37t36.5 15t35.5 -15t14.5 -37q0 -21 -15 -36.5t-36 -15.5z" />
    <glyph glyph-name="aring" unicode="&#xe5;" horiz-adv-x="444" 
d="M438 40l-89 -52q-29 0 -49 20q-17 17 -25 43q-3 -2 -16.5 -11.5t-19 -13t-17 -11.5t-18 -11t-15.5 -7.5t-16 -6.5t-13 -2q-53 0 -88 37.5t-35 85.5q0 70 80 98q132 46 156 66v19q0 52 -21.5 81.5t-58.5 29.5q-27 0 -43 -19q-17 -20 -29 -67q-7 -25 -32 -25
q-16 0 -31.5 13.5t-15.5 30.5q0 18 33 42q26 19 70 40.5t82 29.5q51 0 85 -27q46 -38 46 -125v-182q0 -59 35 -59q18 0 35 10zM273 83v157l-84 -40q-30 -15 -44 -31t-14 -42q0 -36 21.5 -56t47.5 -20q39 0 73 32zM213 499q-36 0 -63 24t-27 62t27.5 61.5t63.5 23.5
q35 0 62 -23.5t27 -61.5t-27.5 -62t-62.5 -24zM214 531q20 0 32 15t12 39q0 23 -12 37.5t-33 14.5q-19 0 -31.5 -15t-12.5 -37q0 -23 13 -38.5t32 -15.5z" />
    <glyph glyph-name="ae" unicode="&#xe6;" horiz-adv-x="671" 
d="M282 276v24q0 46 -24.5 75.5t-59.5 29.5q-29 0 -46 -22q-14 -16 -27 -64q-7 -26 -30 -26q-14 0 -31.5 14t-17.5 29q0 21 32 44q76 52 154 70q45 0 75 -22q28 -18 40 -51q65 71 145 73q64 0 109.5 -46.5t46.5 -106.5q0 -17 -5 -24.5t-19 -10.5q-36 -10 -262 -17
q-1 -91 44 -138.5t109 -47.5q57 0 110 49l18 -22q-39 -53 -86 -75.5t-80 -22.5q-108 0 -161 88l-34 -27q-82 -61 -121 -61q-54 0 -88.5 37t-34.5 84q0 71 78 100q139 48 166 67zM468 412q-35 0 -64.5 -33.5t-35.5 -92.5l165 3q22 0 22 23q0 41 -23.5 70.5t-63.5 29.5z
M204 54q57 0 97 52q-20 42 -20 134q-9 -4 -24.5 -11t-35.5 -15.5t-32 -13.5q-31 -13 -44.5 -28.5t-13.5 -41.5q0 -36 22 -56t51 -20z" />
    <glyph glyph-name="ccedilla" unicode="&#xe7;" horiz-adv-x="421" 
d="M392 114l18 -23q-66 -82 -139 -98l-13 -19q-8 -13 -6.5 -20.5t14.5 -20.5q37 -37 37 -68q0 -30 -31 -57t-84 -44l-11 26q59 27 59 61q0 17 -22 37q-19 19 -21.5 31t10.5 31l30 38q-88 4 -142.5 63t-54.5 145q0 119 100 195q78 59 156 59q58 0 90 -27q15 -13 15 -30
q-1 -16 -14 -31t-23 -15q-8 0 -19 11q-48 42 -103 42q-44 0 -78.5 -39.5t-34.5 -116.5q0 -50 15.5 -88.5t39.5 -58t47.5 -28.5t45.5 -9q33 0 59.5 11.5t59.5 42.5z" />
    <glyph glyph-name="egrave" unicode="&#xe8;" horiz-adv-x="427" 
d="M383 109l15 -22q-41 -53 -86.5 -76t-79.5 -23q-90 0 -143 62t-53 151q0 104 67 176q68 73 147 73h1q62 0 107 -46.5t45 -106.5q0 -16 -5 -23.5t-19 -9.5q-57 -10 -257 -17q1 -92 45 -139.5t102 -47.5q61 0 114 49zM227 412q-34 0 -62 -32.5t-38 -90.5q79 0 161 3
q23 0 23 20q1 41 -22.5 70.5t-61.5 29.5zM267 503l-28 -13q-70 96 -119 159l3 9q8 5 39 10.5t43 4.5q9 -24 30.5 -84t31.5 -86z" />
    <glyph glyph-name="eacute" unicode="&#xe9;" horiz-adv-x="427" 
d="M383 109l15 -22q-41 -53 -86.5 -76t-79.5 -23q-90 0 -143 62t-53 151q0 104 67 176q68 73 147 73h1q62 0 107 -46.5t45 -106.5q0 -16 -5 -23.5t-19 -9.5q-57 -10 -257 -17q1 -92 45 -139.5t102 -47.5q61 0 114 49zM227 412q-34 0 -62 -32.5t-38 -90.5q79 0 161 3
q23 0 23 20q1 41 -22.5 70.5t-61.5 29.5zM221 492l-27 14q8 18 22 53.5t27 68l15 37.5q8 4 42.5 8t43.5 2l4 -10z" />
    <glyph glyph-name="ecircumflex" unicode="&#xea;" horiz-adv-x="427" 
d="M383 109l15 -22q-41 -53 -86.5 -76t-79.5 -23q-90 0 -143 62t-53 151q0 104 67 176q68 73 147 73h1q62 0 107 -46.5t45 -106.5q0 -16 -5 -23.5t-19 -9.5q-57 -10 -257 -17q1 -92 45 -139.5t102 -47.5q61 0 114 49zM227 412q-34 0 -62 -32.5t-38 -90.5q79 0 161 3
q23 0 23 20q1 41 -22.5 70.5t-61.5 29.5zM344 508l-25 -18q-35 31 -90 96q-55 -65 -90 -96l-25 18q53 74 102 165h27q46 -88 101 -165z" />
    <glyph glyph-name="edieresis" unicode="&#xeb;" horiz-adv-x="427" 
d="M382 109l16 -22q-41 -53 -86.5 -76t-79.5 -23q-90 0 -143 62t-53 151q0 104 67 176q68 73 147 73h1q62 0 107 -46.5t45 -106.5q0 -16 -5 -23.5t-19 -9.5q-57 -10 -257 -17q1 -92 44.5 -139.5t102.5 -47.5q60 0 113 49zM227 412q-34 0 -62 -32.5t-38 -90.5q79 0 160 3
q13 0 18.5 4.5t5.5 15.5q0 41 -23 70.5t-61 29.5zM137 535q-20 0 -35.5 15t-15.5 36q0 22 15.5 37.5t36.5 15.5t36 -15.5t15 -37.5q0 -21 -15 -36t-37 -15zM313 535q-21 0 -36 15t-15 36q0 22 15 37.5t37 15.5q21 0 35.5 -15.5t14.5 -37.5q0 -21 -14.5 -36t-36.5 -15z" />
    <glyph glyph-name="igrave" unicode="&#xec;" horiz-adv-x="273" 
d="M258 0h-226v27q47 5 58 18t11 65v198q0 49 -9 61t-52 19v24q88 15 149 39v-341q0 -52 10.5 -65t58.5 -18v-27zM172 503l-28 -13q-70 96 -119 159l3 9q8 5 39 10.5t43 4.5q9 -24 30.5 -84t31.5 -86z" />
    <glyph glyph-name="iacute" unicode="&#xed;" horiz-adv-x="273" 
d="M258 0h-226v27q47 5 58 18t11 65v198q0 49 -9 61t-52 19v24q88 15 149 39v-341q0 -52 10.5 -65t58.5 -18v-27zM128 492l-27 14q8 18 22 53.5t27 68l15 37.5q8 4 42.5 8t43.5 2l4 -10z" />
    <glyph glyph-name="icircumflex" unicode="&#xee;" horiz-adv-x="273" 
d="M258 0h-226v27q47 5 58 18t11 65v198q0 49 -9 61t-52 19v24q88 15 149 39v-341q0 -52 10.5 -65t58.5 -18v-27zM250 508l-25 -18q-35 31 -90 96q-55 -65 -90 -96l-25 18q53 74 102 165h27q46 -88 101 -165z" />
    <glyph glyph-name="idieresis" unicode="&#xef;" horiz-adv-x="273" 
d="M258 0h-226v27q47 5 58 18t11 65v198q0 49 -9.5 61t-52.5 19v24q90 16 150 39v-341q0 -52 10.5 -65t58.5 -18v-27zM46 534q-20 0 -35.5 15.5t-15.5 35.5q0 22 15.5 37.5t36.5 15.5q22 0 36.5 -15t14.5 -38q0 -21 -15 -36t-37 -15zM222 534q-21 0 -36 15.5t-15 35.5
q0 22 15 37.5t37 15.5q21 0 35.5 -15.5t14.5 -37.5q0 -21 -15 -36t-36 -15z" />
    <glyph glyph-name="eth" unicode="&#xf0;" horiz-adv-x="508" 
d="M453 660l-116 -61q133 -138 133 -331q0 -138 -64.5 -209t-157.5 -71q-95 0 -154 68t-58 154q1 112 71 176t153 64h1q46 0 87 -22q-18 78 -69 139l-145 -78l-16 33l135 71q-78 74 -172 86q-5 6 -2.5 16.5t9.5 14.5q119 -7 219 -85l128 67zM255 416q-52 0 -84.5 -48.5
t-32.5 -129.5q0 -96 34.5 -155.5t92.5 -59.5q107 0 108 211q1 113 -29 143q-36 39 -89 39z" />
    <glyph glyph-name="ntilde" unicode="&#xf1;" horiz-adv-x="550" 
d="M527 0h-212v27q42 5 52 18t10 65v167q0 110 -86 110q-48 0 -103 -47v-236q0 -49 9.5 -60.5t51.5 -16.5v-27h-221v27q50 5 61 17t11 61v206q0 47 -9 58t-50 19v24q88 16 147 41v-79q63 44 66 46q44 30 82 30q60 0 94.5 -41t34.5 -113v-192q0 -49 9.5 -60.5t52.5 -16.5v-27
zM167 519l-27 17q30 93 83 93q20 0 59 -20q38 -19 54 -19q23 0 44 46l26 -14q-28 -94 -81 -94q-22 0 -66 23q-28 16 -47 16q-25 0 -45 -48z" />
    <glyph glyph-name="ograve" unicode="&#xf2;" horiz-adv-x="513" 
d="M260 450q93 0 155 -65.5t62 -158.5q0 -113 -67 -175.5t-152 -62.5q-101 0 -161.5 66t-60.5 155q0 78 37 135t86.5 81.5t100.5 24.5zM246 416q-45 0 -76.5 -46t-31.5 -128q0 -96 36 -158t95 -62q106 0 106 181q0 94 -34 153.5t-95 59.5zM295 503l-28 -13q-70 96 -119 159
l3 9q8 5 39 10.5t43 4.5q9 -24 30.5 -84t31.5 -86z" />
    <glyph glyph-name="oacute" unicode="&#xf3;" horiz-adv-x="513" 
d="M260 450q93 0 155 -65.5t62 -158.5q0 -113 -67 -175.5t-152 -62.5q-101 0 -161.5 66t-60.5 155q0 78 37 135t86.5 81.5t100.5 24.5zM246 416q-45 0 -76.5 -46t-31.5 -128q0 -96 36 -158t95 -62q106 0 106 181q0 94 -34 153.5t-95 59.5zM248 492l-27 14q8 18 22 53.5
t27 68l15 37.5q8 4 42.5 8t43.5 2l4 -10z" />
    <glyph glyph-name="ocircumflex" unicode="&#xf4;" horiz-adv-x="513" 
d="M260 450q93 0 155 -65.5t62 -158.5q0 -113 -67 -175.5t-152 -62.5q-101 0 -161.5 66t-60.5 155q0 78 37 135t86.5 81.5t100.5 24.5zM246 416q-45 0 -76.5 -46t-31.5 -128q0 -96 36 -158t95 -62q106 0 106 181q0 94 -34 153.5t-95 59.5zM371 508l-25 -18q-35 31 -90 96
q-55 -65 -90 -96l-25 18q53 74 102 165h27q46 -88 101 -165z" />
    <glyph glyph-name="otilde" unicode="&#xf5;" horiz-adv-x="513" 
d="M260 450q93 0 155 -65.5t62 -158.5q0 -113 -67 -175.5t-152 -62.5q-101 0 -161.5 66t-60.5 155q0 78 37 135t86.5 81.5t100.5 24.5zM246 416q-45 0 -76.5 -46t-31.5 -128q0 -96 36 -158t95 -62q106 0 106 181q0 94 -34 153.5t-95 59.5zM149 519l-26 17q30 93 83 93
q20 0 59 -20q38 -19 54 -19q23 0 44 46l26 -14q-28 -94 -81 -94q-24 0 -66 23q-28 16 -47 16q-26 0 -46 -48z" />
    <glyph glyph-name="odieresis" unicode="&#xf6;" horiz-adv-x="513" 
d="M259 450q93 0 155.5 -65.5t62.5 -158.5q0 -112 -67 -175t-152 -63q-101 0 -161.5 66t-60.5 155q0 78 37 135t86 81.5t100 24.5zM246 416q-45 0 -76.5 -46t-31.5 -128q0 -96 36 -158t95 -62q106 0 106 181q0 94 -34 153.5t-95 59.5zM168 534q-20 0 -35 15.5t-15 36.5
q0 22 15 37t36 15q22 0 36.5 -15t14.5 -37q0 -21 -15 -36.5t-37 -15.5zM343 534q-20 0 -35 15.5t-15 36.5q0 22 15 37t36 15q22 0 36.5 -15t14.5 -37q0 -21 -15 -36.5t-37 -15.5z" />
    <glyph glyph-name="divide" unicode="&#xf7;" horiz-adv-x="579" 
d="M291 353q-19 0 -34.5 15t-15.5 36q0 20 15.5 35.5t35.5 15.5q21 0 36.5 -15.5t15.5 -35.5q0 -22 -15.5 -36.5t-37.5 -14.5zM530 228h-479v52h479v-52zM292 155q19 0 34.5 -15t15.5 -36q0 -20 -16 -35.5t-35 -15.5q-21 0 -36.5 15.5t-15.5 35.5q0 22 15 36.5t38 14.5z" />
    <glyph glyph-name="oslash" unicode="&#xf8;" horiz-adv-x="516" 
d="M434 455l-35 -52q81 -67 81 -176q0 -112 -67 -175.5t-153 -63.5q-62 0 -116 30l-38 -54l-26 22l37 52q-39 32 -60 77.5t-21 94.5q0 58 21.5 105.5t55.5 76t73 43.5t76 15q59 0 109 -29l36 53zM161 104l175 266q-31 46 -85 46q-49 0 -83.5 -48t-34.5 -134q0 -77 28 -130z
M356 338l-174 -266q31 -51 88 -51q49 0 81.5 46.5t32.5 145.5q0 72 -28 125z" />
    <glyph glyph-name="ugrave" unicode="&#xf9;" horiz-adv-x="535" 
d="M522 51v-27q-31 -4 -79 -16q-54 -14 -74 -20l-7 6v69q-45 -35 -70 -49q-44 -26 -79 -26q-56 0 -90.5 36.5t-34.5 111.5v198q0 36 -6.5 47t-26.5 16l-27 6v24q19 1 76 7q25 3 75 11q-3 -33 -3 -146v-137q0 -109 85 -109q55 0 101 45v235q0 38 -7.5 48.5t-32.5 15.5l-35 6
v24q44 2 92 8q24 2 71 10v-332q0 -37 8.5 -48t37.5 -13zM296 504l-27 -14l-120 160l3 9q8 5 39.5 10.5t42.5 3.5q3 -6 62 -169z" />
    <glyph glyph-name="uacute" unicode="&#xfa;" horiz-adv-x="535" 
d="M522 51v-27q-31 -4 -79 -16q-54 -14 -74 -20l-7 6v69q-45 -35 -70 -49q-44 -26 -79 -26q-56 0 -90.5 36.5t-34.5 111.5v198q0 36 -6.5 47t-26.5 16l-27 6v24q19 1 76 7q25 3 75 11q-3 -33 -3 -146v-137q0 -109 85 -109q55 0 101 45v235q0 38 -7.5 48.5t-32.5 15.5l-35 6
v24q44 2 92 8q24 2 71 10v-332q0 -37 8.5 -48t37.5 -13zM254 492l-26 14l34 85t30 74q7 4 41.5 8t44.5 2l3 -10z" />
    <glyph glyph-name="ucircumflex" unicode="&#xfb;" horiz-adv-x="535" 
d="M522 51v-27q-31 -4 -79 -16q-54 -14 -74 -20l-7 6v69q-45 -35 -70 -49q-44 -26 -79 -26q-56 0 -90.5 36.5t-34.5 111.5v198q0 36 -6.5 47t-26.5 16l-27 6v24q19 1 76 7q25 3 75 11q-3 -33 -3 -146v-137q0 -109 85 -109q55 0 101 45v235q0 38 -7.5 48.5t-32.5 15.5l-35 6
v24q44 2 92 8q24 2 71 10v-332q0 -37 8.5 -48t37.5 -13zM378 508l-25 -18q-39 35 -90 96q-55 -65 -90 -96l-25 18q53 74 102 165h27q53 -97 101 -165z" />
    <glyph glyph-name="udieresis" unicode="&#xfc;" horiz-adv-x="535" 
d="M522 51v-27q-31 -4 -79 -16q-54 -14 -74 -20l-7 6v69q-45 -35 -70 -49q-44 -26 -79 -26q-56 0 -90.5 36.5t-34.5 111.5v198q0 37 -6.5 47.5t-26.5 15.5l-27 6v25q35 2 76 6q25 3 75 11q-3 -33 -3 -146v-137q0 -109 85 -109q55 0 101 45v236q0 37 -7.5 48t-32.5 15l-35 6
v25q35 1 92 7q24 2 71 10v-332q0 -37 8.5 -48t37.5 -13zM171 535q-20 0 -35 15.5t-15 36.5q0 22 15 37t36 15q22 0 36.5 -15t14.5 -37q0 -21 -15 -36.5t-37 -15.5zM347 535q-21 0 -36 15t-15 36q0 22 15 37.5t37 15.5q21 0 35.5 -15.5t14.5 -37.5q0 -21 -14.5 -36t-36.5 -15
z" />
    <glyph glyph-name="yacute" unicode="&#xfd;" horiz-adv-x="460" 
d="M479 438v-27q-39 -6 -53.5 -18t-34.5 -54q-11 -23 -26.5 -60t-43 -104.5t-54.5 -132.5q-82 -195 -103 -272q-7 -25 -33 -25q-21 0 -40 16t-19 35q0 20 26 37q45 27 75 86q20 35 29 63q7 21 -2 46q-77 218 -116 310q-16 41 -30.5 54.5t-53.5 18.5v27h210l1 -27
q-34 -6 -41.5 -16t2.5 -37l88 -246q47 111 89 243q9 28 -0.5 39t-50.5 17v27h181zM245 492l-27 14q8 18 22 53.5t27 68l15 37.5q8 4 42.5 8t43.5 2l4 -10z" />
    <glyph glyph-name="thorn" unicode="&#xfe;" horiz-adv-x="519" 
d="M164 710v-323q50 28 106 55q18 8 37 8q80 0 127.5 -58t47.5 -132q0 -107 -71.5 -179.5t-177.5 -92.5q-40 1 -69 19v-135q0 -52 14 -65t74 -18v-27h-247v27q47 5 59 17.5t12 63.5v705q0 50 -10 61.5t-59 15.5v25q80 8 157 33zM164 353v-274q16 -16 42 -28t51 -12
q55 0 94 44.5t39 133.5q0 83 -38 127t-96 44q-38 0 -92 -35z" />
    <glyph glyph-name="ydieresis" unicode="&#xff;" horiz-adv-x="460" 
d="M479 438v-27q-39 -6 -53.5 -18t-34.5 -54q-11 -23 -26.5 -60t-43 -104.5t-54.5 -132.5q-82 -195 -103 -272q-7 -25 -33 -25q-21 0 -40 16t-19 35q0 20 26 37q45 27 75 86q20 35 29 63q7 21 -2 46q-77 218 -116 310q-16 41 -30.5 54.5t-53.5 18.5v27h210l1 -27
q-34 -6 -41.5 -16t2.5 -37l88 -246q47 111 89 243q9 28 -0.5 39t-50.5 17v27h181zM153 535q-20 0 -35.5 15.5t-15.5 36.5q0 22 15.5 37t36.5 15t35.5 -15t14.5 -37q0 -21 -15 -36.5t-36 -15.5zM328 535q-20 0 -35.5 15.5t-15.5 36.5q0 22 15.5 37t36.5 15t35.5 -15t14.5 -37
q0 -21 -15 -36.5t-36 -15.5z" />
    <glyph glyph-name="Amacron" unicode="&#x100;" horiz-adv-x="694" 
d="M676 0h-253v29q47 6 57.5 16.5t-0.5 40.5q-13 41 -52 146h-210q-15 -42 -43 -124q-15 -46 -4 -59.5t67 -19.5v-29h-219v29q50 7 68.5 23.5t43.5 79.5l207 523l35 10q159 -441 193 -533q24 -64 42 -81t68 -22v-29zM413 277l-85 248h-3q-53 -143 -91 -248h179zM471 714
h-227v55h227v-55z" />
    <glyph glyph-name="amacron" unicode="&#x101;" horiz-adv-x="444" 
d="M438 40l-89 -52q-29 0 -49 20q-17 17 -25 43q-3 -2 -16.5 -11.5t-19 -13t-17 -11.5t-18 -11t-15.5 -7.5t-16 -6.5t-13 -2q-53 0 -88 37.5t-35 85.5q0 70 80 98q132 46 156 66v19q0 52 -21.5 81.5t-58.5 29.5q-27 0 -43 -19q-17 -20 -29 -67q-7 -25 -32 -25
q-16 0 -31.5 13.5t-15.5 30.5q0 18 33 42q26 19 70 40.5t82 29.5q51 0 85 -27q46 -38 46 -125v-182q0 -59 35 -59q18 0 35 10zM273 83v157l-84 -40q-30 -15 -44 -31t-14 -42q0 -36 21.5 -56t47.5 -20q39 0 73 32zM321 547h-225v58h225v-58z" />
    <glyph glyph-name="Abreve" unicode="&#x102;" horiz-adv-x="694" 
d="M676 0h-253v29q46 6 56.5 16.5t0.5 40.5q-13 41 -52 146h-210q-15 -42 -43 -124q-15 -46 -4 -59.5t67 -19.5v-29h-219v29q50 7 68.5 23.5t43.5 79.5l207 523l35 10q27 -75 92.5 -257t100.5 -276q24 -64 42 -81t68 -22v-29zM413 277l-85 248h-3q-53 -143 -91 -248h179z
M446 816h30q-1 -60 -33.5 -90.5t-86.5 -30.5q-55 0 -86.5 30.5t-32.5 90.5h30q15 -62 89 -62q73 0 90 62z" />
    <glyph glyph-name="abreve" unicode="&#x103;" horiz-adv-x="444" 
d="M438 40l-89 -52q-29 0 -49 20q-17 17 -25 43q-3 -2 -16.5 -11.5t-19 -13t-17 -11.5t-18 -11t-15.5 -7.5t-16 -6.5t-13 -2q-53 0 -88 37t-35 86q0 70 80 98q134 48 156 66v19q0 52 -21.5 81.5t-58.5 29.5q-27 0 -43 -19q-18 -19 -30 -67q-7 -25 -31 -25q-16 0 -31.5 13.5
t-15.5 30.5q0 18 33 42q27 19 70 40.5t82 29.5q51 0 85 -27q46 -38 46 -125v-182q0 -59 35 -59q18 0 35 10zM273 83v157l-84 -40q-31 -15 -45 -31t-14 -42q0 -36 22 -56t48 -20q39 0 73 32zM291 650h30q0 -140 -113 -140q-112 0 -112 140h30q12 -79 82 -79q71 0 83 79z" />
    <glyph glyph-name="Aogonek" unicode="&#x104;" horiz-adv-x="694" 
d="M675 0h-176q-22 -19 -41 -56.5t-19 -65.5q0 -26 15.5 -40t41.5 -14q17 0 45 10l8 -26l-59 -34q-15 -10 -33 -10q-45 0 -67 24.5t-22 60.5q0 70 112 180q14 14 6 35q-5 18 -59 169h-208q-40 -116 -43 -124q-16 -47 -5.5 -61t67.5 -20v-28h-219v28q49 7 68.5 24.5
t44.5 81.5q38 94 111.5 280.5t95.5 240.5q8 3 34 10q180 -500 192 -532q25 -65 43.5 -83t66.5 -23v-27zM413 277l-84 247h-3q-17 -45 -48.5 -129.5t-43.5 -117.5h179z" />
    <glyph glyph-name="aogonek" unicode="&#x105;" horiz-adv-x="444" 
d="M429 67l10 -26q-20 -11 -50 -30q-39 -23 -71 -63.5t-32 -76.5q0 -46 52 -46q20 0 43 10l8 -26l-53 -31q-19 -12 -37 -12q-40 0 -62 20.5t-22 56.5q0 68 106 153q-36 19 -45 55q-91 -63 -116 -63q-53 0 -88 37t-35 86q0 70 80 98q134 47 157 66v20q0 53 -21 82t-57 29
q-27 0 -44 -20q-15 -17 -30 -67q-7 -25 -32 -25q-15 0 -30.5 14t-15.5 31q0 19 32 41q77 54 154 70q50 0 83 -27q46 -38 46 -123v-184q0 -60 35 -60q17 0 35 11zM274 84v157q-41 -21 -84 -41q-30 -14 -44 -30.5t-14 -42.5q0 -36 21.5 -56t47.5 -20q40 0 73 33z" />
    <glyph glyph-name="Cacute" unicode="&#x106;" horiz-adv-x="667" 
d="M616 177l29 -11q-27 -96 -56 -155q-121 -26 -185 -26q-91 0 -162 29t-113.5 77t-64 105.5t-21.5 119.5q0 156 108 252.5t279 96.5q28 0 59 -3.5t49 -7.5t43 -10t27 -6q14 -98 20 -153l-31 -7q-20 79 -67 114t-125 35q-117 0 -184 -85t-67 -206q0 -139 72.5 -226
t184.5 -87q71 0 117.5 37.5t87.5 116.5zM519 770l-2 -8l-189 -63l-13 25q28 19 82.5 55t77.5 51q10 -2 26 -24.5t18 -35.5z" />
    <glyph glyph-name="cacute" unicode="&#x107;" horiz-adv-x="423" 
d="M392 113l18 -22q-35 -46 -81 -74.5t-89 -28.5q-92 0 -148 62t-56 147q0 117 101 195q75 58 153 58h1q57 0 89 -26q16 -14 16 -32q0 -16 -12.5 -30.5t-22.5 -14.5q-8 0 -19 11q-46 43 -101 43q-49 0 -82.5 -41t-33.5 -117q0 -48 15.5 -85.5t39 -57.5t48 -30t46.5 -10
q61 0 118 53zM231 492l-27 14q8 18 22 53.5t27 68l15 37.5q8 4 42.5 8t43.5 2l4 -10z" />
    <glyph glyph-name="Ccircumflex" unicode="&#x108;" horiz-adv-x="667" 
d="M616 177l29 -11q-27 -96 -56 -155q-121 -26 -185 -26q-91 0 -162 29t-113.5 77t-64 105.5t-21.5 119.5q0 156 108 252.5t279 96.5q28 0 59 -3.5t49 -7.5t43 -10t27 -6q14 -98 20 -153l-31 -7q-20 79 -67 114t-125 35q-117 0 -184 -85t-67 -206q0 -139 72.5 -226
t184.5 -87q71 0 117.5 37.5t87.5 116.5zM537 723l-16 -26q-51 22 -123 62q-98 -52 -122 -62l-16 26q83 64 127 110h23q45 -49 127 -110z" />
    <glyph glyph-name="ccircumflex" unicode="&#x109;" horiz-adv-x="423" 
d="M392 113l18 -22q-35 -46 -81 -74.5t-89 -28.5q-92 0 -148 62t-56 147q0 117 101 195q75 58 153 58h1q57 0 89 -26q16 -14 16 -32q0 -16 -12.5 -30.5t-22.5 -14.5q-8 0 -19 11q-46 43 -101 43q-49 0 -82.5 -41t-33.5 -117q0 -48 15.5 -85.5t39 -57.5t48 -30t46.5 -10
q61 0 118 53zM359 508l-25 -18q-35 31 -90 96q-55 -65 -90 -96l-25 18q53 74 102 165h27q46 -88 101 -165z" />
    <glyph glyph-name="Cdotaccent" unicode="&#x10a;" horiz-adv-x="667" 
d="M616 177l29 -11q-27 -96 -56 -155q-121 -26 -185 -26q-91 0 -162 29t-113.5 77t-64 105.5t-21.5 119.5q0 156 108 252.5t279 96.5q28 0 59 -3.5t49 -7.5t43 -10t27 -6q14 -98 20 -153l-31 -7q-20 79 -67 114t-125 35q-117 0 -184 -85t-67 -206q0 -139 72.5 -226
t184.5 -87q71 0 117.5 37.5t87.5 116.5zM402 817q22 0 38 -16.5t16 -39.5t-16 -39t-39 -16t-39 16t-16 39t16.5 39.5t39.5 16.5z" />
    <glyph glyph-name="cdotaccent" unicode="&#x10b;" horiz-adv-x="423" 
d="M392 113l18 -22q-35 -46 -81 -74.5t-89 -28.5q-92 0 -148 62t-56 147q0 117 101 195q75 58 153 58h1q57 0 89 -26q16 -14 16 -32q0 -16 -12.5 -30.5t-22.5 -14.5q-8 0 -19 11q-46 43 -101 43q-49 0 -82.5 -41t-33.5 -117q0 -92 48.5 -137.5t99.5 -45.5q62 0 119 53z
M243 534q-22 0 -38 16t-16 38q0 24 16 40t39 16q22 0 37.5 -16t15.5 -40q0 -22 -16 -38t-38 -16z" />
    <glyph glyph-name="Ccaron" unicode="&#x10c;" horiz-adv-x="667" 
d="M616 177l29 -11q-27 -96 -56 -155q-121 -26 -185 -26q-91 0 -162 29t-113.5 77t-64 105.5t-21.5 119.5q0 156 108 252.5t279 96.5q28 0 59 -3.5t49 -7.5t43 -10t27 -6q14 -98 20 -153l-31 -7q-20 79 -67 114t-125 35q-117 0 -184 -85t-67 -206q0 -139 72.5 -226
t184.5 -87q71 0 117.5 37.5t87.5 116.5zM521 837l15 -25q-80 -61 -126 -111h-24q-37 40 -127 111l16 25q69 -29 123 -61q62 36 123 61z" />
    <glyph glyph-name="ccaron" unicode="&#x10d;" horiz-adv-x="423" 
d="M392 113l18 -22q-35 -46 -81 -74.5t-89 -28.5q-92 0 -148 62t-56 147q0 117 101 195q75 58 153 58h1q57 0 89 -26q16 -14 16 -32q0 -16 -12.5 -30.5t-22.5 -14.5q-8 0 -19 11q-46 43 -101 43q-49 0 -82.5 -41t-33.5 -117q0 -48 15.5 -85.5t39 -57.5t48 -30t46.5 -10
q61 0 118 53zM338 678l25 -18q-49 -67 -102 -165h-27q-53 97 -101 165l25 18q44 -41 90 -96q51 60 90 96z" />
    <glyph glyph-name="Dcaron" unicode="&#x10e;" horiz-adv-x="739" 
d="M41 650h285q195 0 284 -85q85 -83 85 -215q0 -173 -123 -267q-109 -83 -299 -83h-240v29q64 5 78.5 19.5t14.5 77.5v398q0 45 -6 62.5t-21.5 24t-57.5 9.5v30zM220 546v-413q0 -55 23 -75t79 -20q128 0 197 84t69 213q0 78 -28.5 139.5t-82.5 95.5q-64 45 -169 45
q-60 0 -75 -12q-13 -10 -13 -57zM469 823l15 -26q-78 -60 -127 -110h-23q-44 46 -127 110l15 26q68 -29 124 -62q59 34 123 62z" />
    <glyph glyph-name="dcaron" unicode="&#x10f;" horiz-adv-x="531" 
d="M522 52v-26q-104 -18 -163 -38v64l-61 -37q-45 -27 -73 -27q-69 0 -129 58t-60 156q0 103 77.5 175.5t183.5 72.5q29 0 62 -10v138q0 47 -11 57.5t-64 14.5v26q97 13 163 34v-593q0 -39 7.5 -49t36.5 -13zM359 84v276q-34 51 -98 51q-18 0 -37.5 -8.5t-40.5 -27t-34 -57
t-13 -89.5q0 -84 41 -130t93 -46q45 0 89 31zM537 711q26 0 44.5 -23t18.5 -59q0 -81 -90 -107l-10 27q46 24 46 59q0 30 -33 40q-14 7 -14 26q0 17 11.5 27t26.5 10z" />
    <glyph glyph-name="Dcroat" unicode="&#x110;" horiz-adv-x="741" 
d="M53 650h280q189 0 278 -86q86 -83 86 -214q0 -172 -125 -267q-110 -83 -293 -83h-234v29q64 5 78.5 21.5t14.5 86.5v182h-101v43h101v151q0 70 -13.5 86.5t-71.5 21.5v29zM232 319v-186q0 -54 17.5 -74t76.5 -20q127 0 194.5 83t67.5 213q0 166 -108 238q-58 42 -160 42
q-60 0 -76 -11q-12 -7 -12 -43v-199h154v-43h-154z" />
    <glyph glyph-name="dcroat" unicode="&#x111;" horiz-adv-x="530" 
d="M522 52v-26q-106 -19 -164 -38v64l-62 -37q-48 -27 -71 -27q-68 0 -128 58t-61 157q0 101 77 174t183 73q30 0 62 -11v93h-133v38h133v21q-1 39 -11.5 48t-60.5 14v25q86 11 160 35v-143h76v-38h-76v-413q0 -41 8 -51.5t37 -12.5zM358 84v277q-16 25 -43 38.5t-53 13.5
q-16 0 -35.5 -8.5t-41 -27t-35.5 -57.5t-14 -91q0 -85 41.5 -131t93.5 -46q42 0 87 32z" />
    <glyph glyph-name="Emacron" unicode="&#x112;" horiz-adv-x="570" 
d="M520 164l30 -5q-16 -94 -35 -159h-487v29q67 5 82.5 20t15.5 77v395q0 66 -13 80.5t-72 19.5v29h450q1 -12 4.5 -65.5t4.5 -79.5l-30 -5q-11 52 -34 86q-11 16 -34.5 22t-75.5 6h-72q-24 0 -29 -5t-5 -28v-225h90q66 0 82 12t26 63h30v-193h-30q-10 53 -26.5 65t-81.5 12
h-90v-185q0 -66 24 -82q19 -12 101 -12q54 0 80.5 7t43.5 26q29 35 51 95zM415 715h-228v55h228v-55z" />
    <glyph glyph-name="emacron" unicode="&#x113;" horiz-adv-x="427" 
d="M383 109l15 -22q-41 -53 -86.5 -76t-79.5 -23q-90 0 -143 62t-53 151q0 104 67 176q68 73 147 73h1q62 0 107 -46.5t45 -106.5q0 -16 -5 -23.5t-19 -9.5q-57 -10 -257 -17q1 -92 45 -139.5t102 -47.5q61 0 114 49zM227 412q-34 0 -62 -32.5t-38 -90.5q79 0 161 3
q23 0 23 20q1 41 -22.5 70.5t-61.5 29.5zM343 547h-225v58h225v-58z" />
    <glyph glyph-name="Ebreve" unicode="&#x114;" horiz-adv-x="570" 
d="M520 164l30 -5q-16 -94 -35 -159h-487l1 29q67 5 82.5 20t15.5 77l-1 395q0 66 -13 80.5t-72 19.5v29h450q1 -12 4.5 -65.5t4.5 -79.5l-30 -5q-11 52 -34 86q-11 16 -34.5 22t-75.5 6h-72q-24 0 -29 -5t-5 -28v-225h90q66 0 82 12t26 63h30v-193h-30q-10 53 -26.5 65
t-81.5 12h-90v-185q0 -66 24 -82q19 -12 101 -12q54 0 80.5 7t43.5 26q29 35 51 95zM389 817h30q-1 -61 -32.5 -91.5t-86.5 -30.5t-86.5 30.5t-31.5 91.5h30q14 -62 88 -62t89 62z" />
    <glyph glyph-name="ebreve" unicode="&#x115;" horiz-adv-x="427" 
d="M383 109l16 -22q-42 -53 -88 -76t-79 -23q-90 0 -143 62t-53 151q0 104 67 176q68 73 147 73h1q62 0 107 -46.5t45 -106.5q0 -16 -5 -23.5t-19 -9.5q-57 -10 -257 -17q1 -92 45 -139.5t102 -47.5q61 0 114 49zM227 412q-34 0 -62 -32.5t-37 -90.5q78 0 160 3q23 0 23 20
q1 41 -22.5 70.5t-61.5 29.5zM316 650h30q0 -140 -114 -140q-112 0 -112 140h30q6 -38 27.5 -58.5t54.5 -20.5q72 0 84 79z" />
    <glyph glyph-name="Edotaccent" unicode="&#x116;" horiz-adv-x="570" 
d="M520 164l30 -5q-16 -94 -35 -159h-487v29q68 5 83 20t15 77l1 395q0 66 -13 80.5t-72 19.5v29h449q1 -12 4.5 -65.5t4.5 -79.5l-30 -5q-11 52 -34 86q-11 16 -34.5 22t-75.5 6h-71q-24 0 -29 -5t-5 -28v-225h89q66 0 82 12t26 63h30v-193h-30q-10 53 -26.5 65t-80.5 12
h-90v-185q0 -66 24 -82q19 -12 101 -12q53 0 80 7t43 26q29 35 51 95zM300 813q23 0 38.5 -16t15.5 -40q0 -23 -16 -38.5t-39 -15.5t-38.5 15.5t-15.5 38.5q0 24 16 40t39 16z" />
    <glyph glyph-name="edotaccent" unicode="&#x117;" horiz-adv-x="427" 
d="M383 109l15 -22q-41 -53 -86.5 -76t-79.5 -23q-90 0 -143 62t-53 151q0 104 67 176q68 73 147 73h1q62 0 107 -46.5t45 -106.5q0 -16 -5 -23.5t-19 -9.5q-57 -10 -257 -17q1 -92 45 -139.5t102 -47.5q61 0 114 49zM227 412q-34 0 -62 -32.5t-38 -90.5q79 0 161 3
q23 0 23 20q1 41 -22.5 70.5t-61.5 29.5zM230 534q-22 0 -38 16t-16 38q0 23 16 39t39 16q22 0 37.5 -16t15.5 -39q0 -22 -16 -38t-38 -16z" />
    <glyph glyph-name="Eogonek" unicode="&#x118;" horiz-adv-x="570" 
d="M520 165l30 -6q-16 -94 -35 -159h-39q-36 -30 -58 -66.5t-22 -65.5q0 -44 49 -44q23 0 48 11l7 -27l-52 -32q-20 -12 -39 -12q-43 0 -63.5 21t-20.5 54q0 37 31 80t79 81h-407v29q68 5 83 20.5t15 79.5v390q0 66 -13 81.5t-72 20.5v29h449q1 -27 10 -144l-30 -4
q-14 59 -37 86q-13 15 -36 20.5t-75 5.5h-67q-24 0 -29.5 -5t-5.5 -28v-222h91q67 0 82 10.5t25 61.5h30v-189h-30q-10 53 -25 64t-81 11h-92v-186q0 -67 24 -83q19 -12 101 -12q53 0 80.5 7.5t44.5 27.5q24 28 50 94z" />
    <glyph glyph-name="eogonek" unicode="&#x119;" horiz-adv-x="426" 
d="M267 -7l-1 2q-23 -7 -34 -7q-90 0 -143.5 62.5t-53.5 151.5q0 104 66 173q69 75 148 75h1q63 0 108.5 -46.5t45.5 -106.5q0 -29 -24 -33q-57 -10 -258 -17q1 -92 44.5 -139.5t101.5 -47.5q62 0 115 49l16 -21q-27 -33 -53 -54q-44 -37 -77.5 -83.5t-33.5 -81.5
q0 -21 13.5 -32.5t34.5 -11.5q22 0 50 13l8 -25l-56 -35q-20 -11 -38 -11q-41 0 -62 21.5t-21 50.5q0 69 103 154zM226 413q-34 0 -62.5 -33.5t-36.5 -90.5q24 0 50.5 0.5t59.5 1.5t51 1q14 0 19 4t5 15q1 41 -23.5 71.5t-62.5 30.5z" />
    <glyph glyph-name="Ecaron" unicode="&#x11a;" horiz-adv-x="570" 
d="M520 164l30 -5q-16 -94 -35 -159h-487v29q67 5 82.5 20t15.5 77v395q0 66 -13 80.5t-72 19.5v29h450q1 -12 4.5 -65.5t4.5 -79.5l-30 -5q-11 52 -34 86q-11 16 -34.5 22t-75.5 6h-72q-24 0 -29 -5t-5 -28v-225h90q66 0 82 12t26 63h30v-193h-30q-10 53 -26.5 65t-81.5 12
h-90v-185q0 -66 24 -82q19 -12 101 -12q54 0 80.5 7t43.5 26q29 35 51 95zM419 824l16 -26q-78 -59 -127 -110h-24q-41 44 -127 110l16 26q72 -31 123 -61q63 35 123 61z" />
    <glyph glyph-name="ecaron" unicode="&#x11b;" horiz-adv-x="427" 
d="M383 109l15 -22q-41 -53 -86.5 -76t-79.5 -23q-90 0 -143 62t-53 151q0 104 67 176q68 73 147 73h1q62 0 107 -46.5t45 -106.5q0 -16 -5 -23.5t-19 -9.5q-57 -10 -257 -17q1 -92 45 -139.5t102 -47.5q61 0 114 49zM227 412q-34 0 -62 -32.5t-38 -90.5q79 0 161 3
q23 0 23 20q1 41 -22.5 70.5t-61.5 29.5zM321 678l25 -18q-49 -67 -102 -165h-27q-53 97 -101 165l25 18q44 -41 90 -96q51 60 90 96z" />
    <glyph glyph-name="Gcircumflex" unicode="&#x11c;" horiz-adv-x="717" 
d="M694 303v-29q-44 -7 -53.5 -18t-9.5 -56v-84q0 -64 7 -95q-159 -36 -225 -36q-166 0 -267.5 92.5t-101.5 242.5q0 111 55.5 191t141 117t187.5 37q23 0 47.5 -2t48 -6t38.5 -7t35.5 -7.5t23.5 -5.5q7 -81 16 -159l-30 -6q-31 156 -195 156q-113 0 -185 -80t-72 -215
q0 -77 27.5 -146t90.5 -117.5t152 -48.5q51 0 82 17q30 16 30 63v87q0 54 -15.5 67t-89.5 19v29h262zM542 716l-16 -25q-51 22 -123 62q-98 -52 -122 -62l-16 25q86 68 127 110h23q43 -45 127 -110z" />
    <glyph glyph-name="gcircumflex" unicode="&#x11d;" horiz-adv-x="472" 
d="M468 438l5 -8q-20 -39 -44 -53l-57 4q29 -35 29 -87q0 -75 -53.5 -117t-124.5 -42q-10 0 -50 5q-27 -19 -27 -39q0 -16 16 -27.5t47 -11.5q18 0 52.5 0.5t50.5 0.5q26 0 49 -5t46 -16.5t36.5 -36.5t13.5 -60q0 -78 -76.5 -138.5t-175.5 -60.5q-81 0 -128 37.5t-48 84.5
q0 33 25 56q22 21 82 66q-49 15 -74 55q-14 23 -12 44q57 22 90 61q-39 16 -64 51t-25 83q0 78 56.5 122t124.5 44h1q51 0 98 -26q68 3 137 14zM222 418q-32 0 -55 -31.5t-23 -86.5q0 -57 25 -94.5t64 -37.5q34 1 56.5 31.5t22.5 86.5q0 58 -24.5 95t-65.5 37zM241 -13
q-62 0 -86 -21q-42 -37 -42 -73q0 -40 37.5 -67.5t93.5 -27.5q67 0 103.5 30t36.5 77q0 52 -47 70q-30 12 -96 12zM342 507l-24 -17q-35 31 -90 96q-60 -69 -91 -96l-24 18q54 76 101 164h28q45 -84 100 -165z" />
    <glyph glyph-name="Gbreve" unicode="&#x11e;" horiz-adv-x="717" 
d="M694 303v-29q-43 -7 -52.5 -18t-9.5 -56v-84q0 -64 7 -95q-159 -36 -225 -36q-167 0 -268.5 92.5t-101.5 242.5q0 111 55.5 191t141 117t188.5 37q23 0 47.5 -2t47.5 -6t38 -7t35 -7.5t24 -5.5q7 -81 16 -159l-30 -6q-31 156 -195 156q-112 0 -184.5 -80t-72.5 -215
q0 -77 27.5 -146t90.5 -117.5t152 -48.5q51 0 82 17q30 16 30 63v87q0 54 -15.5 67t-89.5 19v29h262zM482 825h30q-1 -61 -33 -91.5t-86 -30.5q-55 0 -86.5 30.5t-32.5 91.5h30q16 -62 89 -62q72 0 89 62z" />
    <glyph glyph-name="gbreve" unicode="&#x11f;" horiz-adv-x="472" 
d="M467 438l6 -8q-23 -40 -44 -53l-57 4q30 -37 30 -87q0 -75 -53.5 -117t-125.5 -42q-13 0 -50 5q-27 -19 -27 -39q0 -16 15.5 -27.5t46.5 -11.5q18 0 52.5 0.5t50.5 0.5q27 0 50 -5t46 -16.5t36 -36.5t13 -60q0 -78 -76.5 -138.5t-175.5 -60.5q-80 0 -127 37.5t-48 84.5
q0 32 26 56q12 11 81 66q-50 15 -74 55q-14 22 -12 44q55 20 90 61q-39 16 -64 51t-25 83q0 78 56.5 122t124.5 44h1q51 0 97 -26q48 2 137 14zM222 418q-32 0 -55 -31.5t-23 -86.5q0 -58 25 -95t65 -37q34 1 56.5 31.5t22.5 86.5q0 58 -25 95t-66 37zM242 -12
q-64 0 -87 -22q-42 -35 -42 -73q0 -40 37.5 -67.5t93.5 -27.5q67 0 103.5 30t36.5 78q0 51 -47 69q-29 11 -95 13zM309 650h31q0 -140 -114 -140q-112 0 -112 140h30q12 -79 82 -79q72 0 83 79z" />
    <glyph glyph-name="Gdotaccent" unicode="&#x120;" horiz-adv-x="717" 
d="M694 303v-29q-44 -7 -53.5 -18t-9.5 -56v-84q0 -64 7 -95q-159 -36 -224 -36q-167 0 -268.5 92.5t-101.5 242.5q0 111 55.5 191t141 117t187.5 37q23 0 47.5 -2t48 -6t38.5 -7t35.5 -7.5t23.5 -5.5q7 -81 16 -159l-30 -6q-31 156 -195 156q-113 0 -185 -80t-72 -215
q0 -77 27.5 -146t90.5 -117.5t152 -48.5q51 0 82 17q30 16 30 63v87q0 54 -15.5 67t-89.5 19v29h262zM403 815q23 0 38.5 -16t15.5 -40q0 -23 -15.5 -38.5t-39.5 -15.5q-22 0 -38 15.5t-16 38.5q0 24 16 40t39 16z" />
    <glyph glyph-name="gdotaccent" unicode="&#x121;" horiz-adv-x="472" 
d="M468 438l5 -8q-20 -39 -44 -53l-57 4q29 -35 29 -87q0 -75 -53.5 -117t-124.5 -42q-10 0 -50 5q-27 -19 -27 -39q0 -16 16 -27.5t47 -11.5q18 0 52.5 0.5t50.5 0.5q26 0 49 -5t46 -16.5t36.5 -36.5t13.5 -60q0 -78 -76.5 -138.5t-175.5 -60.5q-81 0 -128 37.5t-48 84.5
q0 32 26 56q21 21 81 66q-49 15 -74 55q-14 23 -12 44q57 22 90 61q-39 16 -64 51t-25 83q0 78 56.5 122t124.5 44h1q50 0 97 -26q49 2 138 14zM222 418q-32 0 -55 -31.5t-23 -86.5q0 -57 25 -94.5t64 -37.5q34 1 56.5 31.5t22.5 86.5q0 58 -24.5 95t-65.5 37zM242 -13
q-63 0 -87 -21q-42 -37 -42 -73q0 -40 37.5 -67.5t93.5 -27.5q67 0 103.5 30t36.5 77q0 52 -47 70q-31 12 -95 12zM226 534q-21 0 -37 16t-16 38q0 23 16 39t38 16q23 0 38.5 -16t15.5 -39q0 -22 -16 -38t-39 -16z" />
    <glyph glyph-name="Gcommaaccent" unicode="&#x122;" horiz-adv-x="717" 
d="M694 303v-29q-43 -7 -52.5 -18t-9.5 -56v-84q0 -64 7 -95q-159 -36 -225 -36q-167 0 -268.5 92.5t-101.5 242.5q0 111 55.5 191t141 117t188.5 37q64 0 192 -28q7 -81 16 -159l-30 -6q-31 156 -195 156q-113 0 -185 -80t-72 -215q0 -77 27.5 -146t90.5 -117.5t152 -48.5
q51 0 82 17q30 16 30 63v87q0 54 -15.5 67t-89.5 19v29h262zM396 -47q30 0 52.5 -23t22.5 -59q0 -80 -109 -108l-10 27q61 27 61 59q0 30 -46 42q-15 4 -15 24q0 18 13 28t31 10z" />
    <glyph glyph-name="gcommaaccent" unicode="&#x123;" horiz-adv-x="472" 
d="M468 438l5 -8q-20 -39 -44 -53l-57 4q30 -37 30 -87q0 -75 -53.5 -117t-125.5 -42q-13 0 -50 5q-27 -19 -27 -39q0 -16 15.5 -27.5t46.5 -11.5q18 0 52.5 0.5t50.5 0.5q27 0 50 -5t46 -16.5t36.5 -36.5t13.5 -60q0 -78 -76.5 -138.5t-175.5 -60.5q-81 0 -128 37.5
t-48 84.5q0 32 26 56q9 8 23 20t32 26t25 20q-49 15 -73 55q-14 22 -12 44q55 20 90 61q-39 16 -64 51t-25 83q0 78 56.5 122t123.5 44h1q50 0 99 -26q48 2 137 14zM222 418q-32 0 -55 -31.5t-23 -86.5q0 -58 25 -95t65 -37q34 1 56.5 31.5t22.5 86.5q0 58 -25 95t-66 37z
M242 -13q-63 0 -87 -21q-42 -35 -42 -73q0 -40 37.5 -67.5t93.5 -27.5q67 0 103.5 30t36.5 78q0 51 -47 69q-34 13 -95 12zM238 516q-30 0 -53 23t-23 59q0 80 110 108l9 -27q-61 -27 -61 -59t47 -42q14 -4 14 -24q0 -18 -12.5 -28t-30.5 -10z" />
    <glyph glyph-name="Hcircumflex" unicode="&#x124;" horiz-adv-x="769" 
d="M732 650v-29q-62 -5 -75.5 -19.5t-13.5 -76.5v-400q0 -62 13.5 -76.5t74.5 -19.5v-29h-274v29q64 5 78 19.5t14 76.5v197h-328v-197q0 -62 13.5 -76.5t74.5 -19.5v-29h-269v29q60 5 73.5 19.5t13.5 76.5v400q0 62 -13.5 76.5t-75.5 19.5v29h266v-29q-57 -5 -70 -19.5
t-13 -76.5v-159h328v159q0 62 -13 76.5t-72 19.5v29h268zM523 709l-16 -25q-42 17 -123 62q-84 -46 -122 -62l-16 25q90 71 127 110h23q37 -39 127 -110z" />
    <glyph glyph-name="hcircumflex" unicode="&#x125;" horiz-adv-x="537" 
d="M516 0h-215v27q43 5 53 17t10 59v167q0 120 -93 120q-57 0 -98 -47v-240q0 -47 9.5 -59.5t51.5 -16.5v-27h-217l1 27q45 5 56 16.5t11 60.5v475q0 47 -9.5 57t-56.5 15v25q79 11 154 34v-331q71 71 141 71q64 0 101 -42.5t37 -127.5v-177q0 -48 10.5 -59.5t53.5 -16.5
v-27zM258 746l-16 -25q-42 17 -123 62q-84 -46 -122 -62l-16 25q90 71 127 110h23q37 -39 127 -110z" />
    <glyph glyph-name="Hbar" unicode="&#x126;" horiz-adv-x="769" 
d="M729 470h-86v-341q0 -64 14 -79.5t74 -20.5v-29h-274v29q63 5 77.5 20.5t14.5 79.5v179h-328v-179q0 -64 14 -79.5t74 -20.5v-29h-269v29q60 5 73.5 20.5t13.5 79.5v341h-87v38h87v17q0 63 -13.5 77t-75.5 19v29h266v-29q-58 -5 -70.5 -19t-12.5 -77v-17h328v17
q0 63 -13 77t-72 19v29h268v-29q-62 -5 -75.5 -19t-13.5 -77v-17h86v-38zM549 352v118h-328v-118h328z" />
    <glyph glyph-name="hbar" unicode="&#x127;" horiz-adv-x="536" 
d="M517 0h-215v27q42 5 52 17t10 60v168q0 118 -93 118q-59 0 -99 -48v-238q0 -48 10 -60t51 -17v-27h-215v27q44 5 55 17.5t11 61.5v428h-69v38h69v51q0 24 -7 30.5t-36 10.5v24q59 7 131 27v-143h155v-38h-155v-155q66 70 143 71q64 2 100.5 -40.5t36.5 -124.5v-180
q0 -49 10.5 -61t54.5 -17v-27z" />
    <glyph glyph-name="Itilde" unicode="&#x128;" horiz-adv-x="347" 
d="M309 0h-272v29q61 5 75 19.5t14 77.5v398q0 63 -14 77.5t-75 19.5v29h272v-29q-61 -5 -75 -19.5t-14 -77.5v-398q0 -63 14 -77.5t75 -19.5v-29zM122 790q21 0 62 -19q34 -16 55 -16q26 0 47 43l26 -14q-28 -87 -84 -87q-23 0 -70 21q-30 14 -46 14q-25 0 -48 -44l-25 18
q33 84 83 84z" />
    <glyph glyph-name="itilde" unicode="&#x129;" horiz-adv-x="273" 
d="M258 0h-226v27q47 5 58 18t11 65v198q0 49 -9 61t-52 19v24q88 15 149 39v-341q0 -52 10.5 -65t58.5 -18v-27zM31 519l-27 17q30 93 83 93q20 0 59 -20q38 -19 54 -19q23 0 44 46l26 -14q-28 -94 -80 -94q-24 0 -66 23q-28 16 -48 16q-25 0 -45 -48z" />
    <glyph glyph-name="Imacron" unicode="&#x12a;" horiz-adv-x="347" 
d="M309 0h-272v29q61 5 75 19.5t14 77.5v398q0 63 -14 77.5t-75 19.5v29h272v-29q-61 -5 -75 -19.5t-14 -77.5v-398q0 -63 14 -77.5t75 -19.5v-29zM287 714h-227v55h227v-55z" />
    <glyph glyph-name="imacron" unicode="&#x12b;" horiz-adv-x="273" 
d="M258 0h-226v27q47 5 58 18t11 65v198q0 49 -9 61t-52 19v24q88 15 149 39v-341q0 -52 10.5 -65t58.5 -18v-27zM245 547h-225v58h225v-58z" />
    <glyph glyph-name="Ibreve" unicode="&#x12c;" horiz-adv-x="347" 
d="M309 0h-272v29q61 5 75 19.5t14 77.5v398q0 63 -14 77.5t-75 19.5v29h272v-29q-61 -5 -75 -19.5t-14 -77.5v-398q0 -63 14 -77.5t75 -19.5v-29zM263 816h30q-1 -61 -33 -91.5t-86 -30.5q-55 0 -86.5 30.5t-32.5 91.5h30q15 -62 89 -62t89 62z" />
    <glyph glyph-name="ibreve" unicode="&#x12d;" horiz-adv-x="273" 
d="M258 0h-225v27q46 5 57 18t11 65v198q0 49 -9 61t-52 19v24q88 15 149 39v-341q0 -52 10.5 -65t58.5 -18v-27zM216 650h30q0 -141 -114 -141q-112 0 -112 141h31q11 -79 82 -79t83 79z" />
    <glyph glyph-name="Iogonek" unicode="&#x12e;" horiz-adv-x="347" 
d="M309 0h-116q-34 -70 -34 -123q0 -25 16.5 -39.5t41.5 -14.5q22 0 48 12l8 -25l-57 -35q-18 -11 -39 -11q-44 0 -66 23.5t-22 57.5q0 11 2 22.5t7 24.5t9 22t12.5 24t12 21t14 22t12.5 19h-120l-1 28q61 5 75 20.5t14 79.5v394q0 64 -14 79.5t-75 20.5v28h272v-28
q-61 -5 -75 -20.5t-14 -79.5v-394q0 -64 14 -79.5t75 -20.5v-28z" />
    <glyph glyph-name="iogonek" unicode="&#x12f;" horiz-adv-x="273" 
d="M258 0h-96q-33 -64 -33 -118q0 -28 15 -42t40 -14q18 0 44 11l9 -26l-52 -31q-18 -12 -37 -12q-43 0 -65 21.5t-22 58.5q0 50 67 152h-98v27q48 5 59 17.5t11 64.5v199q0 49 -9.5 61t-52.5 19v24q83 13 150 39v-342q0 -51 11 -64t59 -18v-27zM139 533q-22 0 -38 16.5
t-16 38.5q0 23 16 39.5t39 16.5q22 0 37.5 -16.5t15.5 -39.5q0 -22 -16 -38.5t-38 -16.5z" />
    <glyph glyph-name="Idotaccent" unicode="&#x130;" horiz-adv-x="347" 
d="M308 0h-270v29q61 5 74.5 19.5t13.5 77.5v398q0 63 -13.5 77.5t-74.5 19.5v29h270v-29q-61 -5 -74.5 -19.5t-13.5 -77.5v-398q0 -63 13.5 -77.5t74.5 -19.5v-29zM174 813q22 0 38 -16.5t16 -39.5t-16 -39t-39 -16q-22 0 -38 16t-16 39t16 39.5t39 16.5z" />
    <glyph glyph-name="dotlessi" unicode="&#x131;" horiz-adv-x="273" 
d="M258 0h-226v27q47 5 58 18t11 65v198q0 49 -9 61t-52 19v24q88 15 149 39v-341q0 -52 10.5 -65t58.5 -18v-27z" />
    <glyph glyph-name="IJ" unicode="&#x132;" horiz-adv-x="683" 
d="M309 0h-272v29q61 5 75 19.5t14 77.5v398q0 63 -14 77.5t-75 19.5v29h272v-29q-61 -5 -75 -19.5t-14 -77.5v-398q0 -63 14 -77.5t75 -19.5v-29zM657 650v-29q-41 -3 -56.5 -10t-21.5 -25t-6 -62v-366q0 -98 -19 -157.5t-70 -105.5q-49 -45 -98 -59l-13 30q79 37 96 128
q10 63 10 192v338q0 63 -14 77.5t-75 19.5v29h267z" />
    <glyph glyph-name="ij" unicode="&#x133;" horiz-adv-x="533" 
d="M138 533q-22 0 -38 16.5t-16 38.5q0 23 16 39t39 16q22 0 37.5 -16t15.5 -39t-16 -39t-38 -16zM258 0h-227v27q47 5 58 17t11 63v205q0 47 -9 58t-52 18v24q90 16 149 40v-345q0 -51 11 -63t59 -17v-27zM399 533q-22 0 -37.5 16t-15.5 38q0 24 15.5 40t38.5 16t38.5 -16
t15.5 -40q0 -22 -16 -38t-39 -16zM296 388v24q86 13 153 39l1 -336q0 -96 -24 -162q-24 -65 -62.5 -120.5t-62.5 -74.5q-15 -12 -27 -12t-24.5 14t-12.5 32q0 20 22 24q55 11 73 34q16 22 22 72q8 60 8 192v194q0 51 -10 62.5t-56 17.5z" />
    <glyph glyph-name="Jcircumflex" unicode="&#x134;" horiz-adv-x="335" 
d="M309 650v-29q-41 -3 -56.5 -10t-21.5 -25t-6 -62v-366q0 -98 -19 -157.5t-70 -105.5q-49 -45 -98 -59l-13 30q79 37 96 128q10 63 10 192v338q0 63 -14 77.5t-75 19.5v29h267zM315 709l-16 -25q-42 17 -123 62q-84 -46 -122 -62l-16 25q90 71 127 110h23q37 -39 127 -110
z" />
    <glyph glyph-name="jcircumflex" unicode="&#x135;" horiz-adv-x="264" 
d="M33 390v22q88 13 156 39v-338q0 -97 -24 -161q-24 -66 -62 -121t-62 -75q-17 -12 -28 -12q-12 0 -23.5 12.5t-11.5 30.5q0 21 21 25q55 9 72 35q16 20 22 72q8 60 8 194v195q0 52 -10.5 64t-57.5 18zM247 508l-25 -18q-35 31 -90 96q-55 -65 -90 -96l-25 18
q53 74 102 165h27q46 -88 101 -165z" />
    <glyph glyph-name="Kcommaaccent" unicode="&#x136;" horiz-adv-x="678" 
d="M673 0h-162q-42 49 -239 289q-16 20 -27.5 25.5t-25.5 3.5v-188q0 -65 14.5 -80.5t76.5 -20.5v-29h-267v29q57 5 70.5 20.5t13.5 80.5v390q0 66 -14 81t-73 20v29h264v-29q-58 -5 -71.5 -20.5t-13.5 -80.5v-174q26 6 71 46q104 102 163 175q22 26 18.5 36.5t-36.5 14.5
l-22 3v29h243v-29q-56 -5 -86 -18.5t-76 -55.5q-20 -19 -171 -170q98 -125 231 -276q38 -40 60.5 -53.5t58.5 -18.5v-29zM365 -22q30 0 52.5 -23t22.5 -59q0 -80 -109 -108l-10 27q61 27 61 59q0 30 -46 42q-15 4 -15 24q0 18 13 28t31 10z" />
    <glyph glyph-name="kcommaaccent" unicode="&#x137;" horiz-adv-x="499" 
d="M517 0l-144 -1q-15 16 -36 42t-37.5 47t-44 56.5t-39.5 51.5q-18 21 -30 21q-8 0 -14 -2v-110q0 -49 11.5 -61t59.5 -17v-27h-230v27q49 4 60.5 16.5t11.5 61.5v470q0 48 -10 59.5t-55 15.5v26q67 7 152 34v-468q35 7 61 35q33 35 68 88q16 22 10 30.5t-40 12.5l1 27
l206 9v-26q-50 -8 -75 -19.5t-53 -38.5q-26 -25 -83 -92q14 -23 69 -89.5t84 -97.5q47 -50 97 -54v-27zM265 -33q30 0 52.5 -23t22.5 -59q0 -80 -109 -108l-9 28q61 26 61 58q0 31 -47 42q-15 4 -15 24q0 18 13 28t31 10z" />
    <glyph glyph-name="kgreenlandic" unicode="&#x138;" horiz-adv-x="530" 
d="M526 0h-145q-39 46 -146 189q-12 16 -22.5 19.5t-20.5 -2.5v-98q0 -52 10.5 -64.5t57.5 -16.5v-27h-224v27q46 4 57 16.5t11 64.5v213q0 50 -10.5 63t-55.5 17v26q81 7 154 25v-217q27 5 49 25q64 56 99 105q27 36 -12 43l-17 3v27h200v-27q-39 -4 -63 -13.5t-53 -35.5
q-21 -17 -108 -102q87 -119 149 -182q28 -29 44.5 -38.5t45.5 -12.5v-27z" />
    <glyph glyph-name="Lacute" unicode="&#x139;" horiz-adv-x="541" 
d="M499 166l30 -6q-17 -97 -36 -160h-459v29q64 5 78.5 20t14.5 78v397q0 35 -2 51t-12 27t-25 14t-48 5v29h269v-29q-43 -3 -59 -9.5t-22.5 -24.5t-6.5 -63v-394q0 -40 5 -57.5t18 -24.5q22 -12 92 -12q83 0 110 31q31 34 53 99zM327 756l-2 -9l-189 -63l-13 25
q28 19 82.5 55t77.5 51q9 -2 25.5 -24t18.5 -35z" />
    <glyph glyph-name="lacute" unicode="&#x13a;" horiz-adv-x="258" 
d="M244 0h-229v27q47 5 58.5 17t11.5 61v471q0 49 -10 59.5t-58 15.5v25q84 9 156 34v-605q0 -49 11.5 -61t59.5 -17v-27zM256 800l-2 -9l-189 -63l-13 26q90 58 160 105q9 -2 25.5 -24t18.5 -35z" />
    <glyph glyph-name="Lcommaaccent" unicode="&#x13b;" horiz-adv-x="541" 
d="M499 166l30 -6q-17 -97 -36 -160h-459v29q64 5 78.5 20t14.5 78v397q0 35 -2 51t-12 27t-25 14t-48 5v29h269v-29q-43 -3 -59 -9.5t-22.5 -24.5t-6.5 -63v-394q0 -40 5 -57.5t18 -24.5q22 -12 92 -12q83 0 110 31q31 34 53 99zM296 -35q30 0 52.5 -23t22.5 -58
q0 -82 -109 -108l-10 27q61 27 61 58t-46 42q-15 6 -15 25q0 17 13 27t31 10z" />
    <glyph glyph-name="lcommaaccent" unicode="&#x13c;" horiz-adv-x="258" 
d="M244 0h-230v27q47 5 58.5 17t11.5 61v471q0 49 -10 59.5t-57 15.5v25q83 9 155 34v-605q0 -49 11.5 -61t60.5 -17v-27zM119 -34q30 0 52.5 -23t22.5 -59q0 -80 -109 -108l-10 28q61 25 61 58q0 31 -46 42q-15 4 -15 24q0 18 13 28t31 10z" />
    <glyph glyph-name="Lcaron" unicode="&#x13d;" horiz-adv-x="541" 
d="M499 166l30 -6q-17 -97 -36 -160h-459v29q64 5 78.5 20t14.5 78v397q0 35 -2 51t-12 27t-25 14t-48 5v29h269v-29q-43 -3 -59 -9.5t-22.5 -24.5t-6.5 -63v-394q0 -40 5 -57.5t18 -24.5q22 -12 92 -12q83 0 110 31q31 34 53 99zM392 655q25 0 44 -23.5t19 -58.5
q0 -81 -91 -108l-10 27q47 24 47 60q0 28 -33 40q-14 5 -14 25q0 17 11.5 27.5t26.5 10.5z" />
    <glyph glyph-name="lcaron" unicode="&#x13e;" horiz-adv-x="258" 
d="M244 0h-229v27q47 5 58.5 17t11.5 61v471q0 49 -10 59.5t-58 15.5v25q75 8 156 34v-605q0 -49 11.5 -61t59.5 -17v-27zM256 711q26 0 44.5 -23t18.5 -58q0 -81 -91 -108l-10 27q47 24 47 59q0 29 -33 41q-14 5 -14 25q0 17 11.5 27t26.5 10z" />
    <glyph glyph-name="Ldot" unicode="&#x13f;" horiz-adv-x="541" 
d="M499 166l30 -6q-17 -97 -36 -160h-459v29q64 5 78.5 20t14.5 78v397q0 35 -2 51t-12 27t-25 14t-48 5v29h269v-29q-43 -3 -59 -9.5t-22.5 -24.5t-6.5 -63v-394q0 -40 5 -57.5t18 -24.5q22 -12 92 -12q83 0 110 31q31 34 53 99zM368 410q23 0 38.5 -16t15.5 -40
q0 -23 -16 -38.5t-39 -15.5t-38.5 16t-15.5 38q0 24 16 40t39 16z" />
    <glyph glyph-name="ldot" unicode="&#x140;" horiz-adv-x="282" 
d="M271 411q21 0 36 -16t15 -39q0 -21 -15 -37t-37 -16q-21 0 -36.5 15.5t-15.5 37.5q0 23 15.5 39t37.5 16zM244 0h-230v27q48 5 59.5 17t11.5 61v471q0 49 -10 59.5t-58 15.5v25q75 9 156 34v-605q0 -49 11.5 -61t59.5 -17v-27z" />
    <glyph glyph-name="Lslash" unicode="&#x141;" horiz-adv-x="552" 
d="M509 167l32 -5q-24 -122 -36 -162h-460v29q64 5 79 21t15 82v142l-99 -72v47l99 73v197q0 65 -14 81t-73 21v29h269l-1 -29q-59 -5 -73 -21t-14 -81v-132l127 93v-48l-127 -94v-199q0 -44 4.5 -64t18.5 -27q23 -12 92 -12q83 0 110 31q26 29 51 100z" />
    <glyph glyph-name="lslash" unicode="&#x142;" horiz-adv-x="279" 
d="M275 463l-89 -75v-278q0 -52 12 -65t61 -18v-27h-234v27q49 5 61 18t12 65v208l-74 -61v47l74 61v218q0 44 -10.5 55t-58.5 17v24q90 11 157 35v-280l89 76v-47z" />
    <glyph glyph-name="Nacute" unicode="&#x143;" horiz-adv-x="743" 
d="M720 650v-29q-43 -2 -61.5 -15t-22.5 -45q-6 -62 -6 -168v-402h-34l-424 519h-2v-247q0 -109 6 -167q4 -37 24 -50.5t73 -16.5v-29h-239v29q44 2 63.5 16t23.5 49q7 72 7 169v219q0 53 -3 68.5t-17 33.5q-25 32 -88 37v29h154l411 -491h3v234q0 98 -7 166q-4 33 -24.5 46
t-73.5 16v29h237zM512 756l-2 -9l-189 -63l-13 25q28 19 82.5 55t77.5 51q9 -2 25.5 -24t18.5 -35z" />
    <glyph glyph-name="nacute" unicode="&#x144;" horiz-adv-x="550" 
d="M527 0h-212v27q42 5 52 18t10 65v167q0 110 -86 110q-48 0 -103 -47v-236q0 -49 9.5 -60.5t51.5 -16.5v-27h-221v27q50 5 61 17t11 61v206q0 47 -9 58t-50 19v24q88 16 147 41v-79q63 44 66 46q44 30 82 30q60 0 94.5 -41t34.5 -113v-192q0 -49 9.5 -60.5t52.5 -16.5v-27
zM269 492l-27 14q8 18 22 53.5t27 68l15 37.5q8 4 42.5 8t43.5 2l4 -10z" />
    <glyph glyph-name="Ncommaaccent" unicode="&#x145;" horiz-adv-x="743" 
d="M720 650v-29q-43 -2 -61.5 -15t-22.5 -45q-6 -62 -6 -168v-402h-34l-424 519h-2v-247q0 -109 6 -167q4 -37 23.5 -50.5t72.5 -16.5v-29h-238v29q44 2 63.5 16t23.5 49q7 72 7 169v219q0 53 -3 68.5t-17 33.5q-25 32 -88 37v29h154l411 -491h3v234q0 98 -7 166
q-4 33 -24.5 46t-74.5 16v29h238zM384 -14q30 0 53 -23t23 -59q0 -80 -109 -108l-10 27q61 27 61 59q0 30 -46 42q-15 4 -15 24q0 18 13 28t30 10z" />
    <glyph glyph-name="ncommaaccent" unicode="&#x146;" horiz-adv-x="550" 
d="M528 0h-213v27q42 5 52.5 18t10.5 65v167q0 110 -87 110q-48 0 -103 -47v-236q0 -49 9.5 -60.5t52.5 -16.5v-27h-222v27q50 5 61 17t11 61v206q0 47 -9 58t-50 19v24q88 16 147 41v-79q63 44 66 46q44 30 82 30q60 0 94.5 -41t34.5 -113v-192q0 -49 9.5 -60.5t53.5 -16.5
v-27zM283 -43h2q30 0 52.5 -23t22.5 -59q0 -80 -109 -108l-10 27q61 27 61 59q0 30 -46 42q-15 4 -15 24q0 18 12.5 28t29.5 10z" />
    <glyph glyph-name="Ncaron" unicode="&#x147;" horiz-adv-x="743" 
d="M720 650v-29q-43 -2 -61.5 -15t-22.5 -45q-6 -62 -6 -168v-402h-34l-424 519h-2v-247q0 -109 6 -167q4 -37 24 -50.5t73 -16.5v-29h-239v29q44 2 63.5 16t23.5 49q7 72 7 169v219q0 53 -3 68.5t-17 33.5q-25 32 -88 37v29h154l411 -491h3v234q0 98 -7 166q-4 33 -24.5 46
t-73.5 16v29h237zM498 808l15 -26q-78 -60 -127 -110h-23q-44 46 -127 110l15 26q72 -31 124 -62q63 36 123 62z" />
    <glyph glyph-name="ncaron" unicode="&#x148;" horiz-adv-x="550" 
d="M527 0h-212v27q42 5 52 18t10 65v167q0 110 -86 110q-48 0 -103 -47v-236q0 -49 9.5 -60.5t51.5 -16.5v-27h-221v27q50 5 61 17t11 61v206q0 47 -9 58t-50 19v24q88 16 147 41v-79q63 44 66 46q44 30 82 30q60 0 94.5 -41t34.5 -113v-192q0 -49 9.5 -60.5t52.5 -16.5v-27
zM364 678l25 -18q-49 -67 -102 -165h-27q-53 97 -101 165l25 18q44 -41 90 -96q51 60 90 96z" />
    <glyph glyph-name="napostrophe" unicode="&#x149;" horiz-adv-x="550" 
d="M55 712q34 0 62.5 -26.5t28.5 -69.5q0 -46 -37 -76t-90 -43l-8 24q70 29 70 77q0 44 -58 56q-13 2 -13 20t14.5 28t30.5 10zM527 0h-212v27q42 5 52 18t10 65v167q0 110 -86 110q-48 0 -103 -47v-236q0 -49 9.5 -60.5t51.5 -16.5v-27h-221v27q50 5 61 17t11 61v206
q0 47 -9 58t-50 19v24q90 17 147 40v-78q63 44 66 46q44 30 82 30q60 0 94.5 -41t34.5 -113v-192q0 -49 9.5 -60.5t52.5 -16.5v-27z" />
    <glyph glyph-name="Eng" unicode="&#x14a;" horiz-adv-x="737" 
d="M715 650v-29q-43 -2 -61.5 -15t-22.5 -45q-6 -62 -6 -173v-299q0 -171 -36 -236q-37 -64 -93 -64q-18 0 -32.5 16t-14.5 37t14 21q4 0 16.5 -3t24.5 -3q32 0 53.5 35.5t22.5 113.5l-407 502h-2v-240q0 -114 6 -172q4 -37 24 -50.5t72 -16.5v-29h-239v29q45 3 64 16.5
t23 48.5q7 72 7 174v209q0 54 -3.5 72t-16.5 35q-25 32 -88 37v29h154l405 -488h3v227q0 105 -7 170q-4 33 -24.5 46t-73.5 16v29h238z" />
    <glyph glyph-name="eng" unicode="&#x14b;" horiz-adv-x="544" 
d="M188 453v-79q63 44 66 46q44 30 81 30q60 0 95 -40t35 -112v-174q0 -95 -20 -154q-17 -57 -57 -105q-48 -59 -89 -59q-15 0 -28 16t-13 35q0 20 14 20q4 0 22 -5.5t29 -5.5q25 0 36 20q18 33 18 149v240q0 111 -86 111q-49 0 -103 -48v-232q0 -50 10 -62.5t56 -16.5v-27
h-225v27q49 5 60 17t11 62v205q0 47 -9 58.5t-51 19.5v24q81 13 148 40z" />
    <glyph glyph-name="Omacron" unicode="&#x14c;" horiz-adv-x="750" 
d="M383 665q133 0 228.5 -93t95.5 -239q0 -158 -97 -253t-239 -95q-139 0 -233.5 95.5t-94.5 238.5q0 141 93 243.5t247 102.5zM361 628q-86 0 -146 -75t-60 -208q0 -139 66.5 -231t170.5 -92q86 0 144.5 74t58.5 210q0 152 -66 237t-168 85zM489 716h-227v55h227v-55z" />
    <glyph glyph-name="omacron" unicode="&#x14d;" horiz-adv-x="513" 
d="M260 450q93 0 155 -65.5t62 -158.5q0 -113 -67 -175.5t-152 -62.5q-101 0 -161.5 66t-60.5 155q0 78 37 135t86.5 81.5t100.5 24.5zM246 416q-45 0 -76.5 -46t-31.5 -128q0 -96 36 -158t95 -62q106 0 106 181q0 94 -34 153.5t-95 59.5zM369 547h-225v58h225v-58z" />
    <glyph glyph-name="Obreve" unicode="&#x14e;" horiz-adv-x="750" 
d="M383 665q132 0 227.5 -93t95.5 -239q0 -158 -96.5 -253t-238.5 -95q-139 0 -233 95.5t-94 238.5q0 141 93 243.5t246 102.5zM361 628q-86 0 -146 -75t-60 -208q0 -139 66.5 -231t170.5 -92q86 0 144.5 74t58.5 210q0 152 -66 237t-168 85zM457 823h30q-1 -61 -32.5 -91.5
t-86.5 -30.5q-54 0 -85.5 30.5t-32.5 91.5h30q15 -63 88 -63q74 0 89 63z" />
    <glyph glyph-name="obreve" unicode="&#x14f;" horiz-adv-x="513" 
d="M259 450q93 0 155.5 -65.5t62.5 -158.5q0 -113 -67.5 -175.5t-152.5 -62.5q-100 0 -160.5 66t-60.5 155q0 59 21 107t54.5 76t71.5 43t76 15zM246 416q-45 0 -76.5 -46t-31.5 -128q0 -96 36 -158t94 -62q107 0 107 181q0 94 -34 153.5t-95 59.5zM333 650h30
q0 -140 -114 -140q-111 0 -111 140h30q12 -79 82 -79q71 0 83 79z" />
    <glyph glyph-name="Ohungarumlaut" unicode="&#x150;" horiz-adv-x="750" 
d="M383 665q133 0 228.5 -93t95.5 -239q0 -158 -97 -253t-239 -95q-139 0 -233.5 95.5t-94.5 238.5q0 141 93 243.5t247 102.5zM361 628q-86 0 -146 -75t-60 -208q0 -139 66.5 -231t170.5 -92q86 0 144.5 74t58.5 210q0 152 -66 237t-168 85zM554 798l-99 -112l-27 13
q20 49 49 124q16 1 41.5 -3.5t34.5 -10.5zM409 798l-100 -113l-26 14q11 25 28.5 70.5t20.5 53.5q15 1 41 -4t35 -10z" />
    <glyph glyph-name="ohungarumlaut" unicode="&#x151;" horiz-adv-x="513" 
d="M260 450q93 0 155 -65.5t62 -158.5q0 -113 -67 -175.5t-152 -62.5q-101 0 -161.5 66t-60.5 155q0 78 37 135t86.5 81.5t100.5 24.5zM246 416q-45 0 -76.5 -46t-31.5 -128q0 -96 36 -158t95 -62q106 0 106 181q0 94 -34 153.5t-95 59.5zM184 493l-28 9q38 134 43 163
q8 4 39.5 8.5t41.5 3.5l3 -10zM324 493l-27 9q41 152 43 163q9 4 40 8.5t41 2.5l2 -10z" />
    <glyph glyph-name="OE" unicode="&#x152;" horiz-adv-x="976" 
d="M925 164l31 -5q-16 -86 -35 -159h-309q-58 0 -103 -4q-73 -7 -101 -7q-176 0 -269.5 95t-93.5 233q0 154 108.5 248.5t274.5 95.5q16 0 32.5 -1t35 -2.5t29.5 -2.5q55 -5 92 -5h280q0 -28 9 -143l-31 -4q-14 59 -33 84q-10 15 -34 20.5t-77 5.5h-72q-23 0 -28 -4.5
t-5 -26.5v-225h94q62 0 78 12t25 61h31v-192h-31q-10 53 -25.5 65t-77.5 12h-94v-180q0 -71 24 -86q19 -13 101 -13q54 0 80.5 6.5t43.5 25.5q26 30 50 96zM533 108v440q0 46 -20 58q-35 19 -95 19q-122 0 -192 -79.5t-70 -216.5q0 -61 15 -114t45.5 -96.5t82.5 -68.5
t120 -25q52 0 79 14q20 9 27.5 23.5t7.5 45.5z" />
    <glyph glyph-name="oe" unicode="&#x153;" horiz-adv-x="770" 
d="M255 450q53 0 97 -26t70 -71q28 42 74 69.5t93 27.5q65 0 110.5 -46t45.5 -107q0 -18 -4.5 -24.5t-17.5 -9.5q-49 -10 -266 -17q-1 -92 43.5 -139.5t110.5 -47.5q55 0 111 49l16 -22q-38 -53 -83.5 -75.5t-79.5 -22.5q-108 0 -162 85q-30 -42 -73.5 -63.5t-87.5 -21.5
q-98 0 -157.5 67.5t-59.5 154.5q0 58 21.5 106t55 76t71 43t72.5 15zM564 412q-35 0 -65 -33.5t-37 -92.5q19 0 53 0.5t62.5 1t54.5 1.5q21 0 21 23q0 42 -24.5 71t-64.5 29zM244 415q-44 0 -75 -46.5t-31 -126.5q0 -97 35 -158t94 -61q45 0 75 44.5t30 139.5
q0 94 -33.5 151t-94.5 57z" />
    <glyph glyph-name="Racute" unicode="&#x154;" horiz-adv-x="628" 
d="M636 19l-4 -27q-23 0 -34 1q-63 4 -100 24t-70 68q-21 30 -97 158q-14 23 -31 32t-52 9h-29v-157q0 -63 14 -78t74 -20v-29h-269v29q61 5 75 20t14 78v399q0 62 -13 76t-72 19v29h253q111 0 163 -34q67 -44 67 -131q0 -115 -127 -171q34 -62 88 -143q46 -70 80 -106
q31 -34 70 -46zM219 317h44q72 0 107 28q53 43 53 124q0 76 -40.5 112t-100.5 36q-40 0 -53 -10q-10 -9 -10 -43v-247zM438 755l-2 -8l-188 -63l-13 25l159 106q10 -2 26 -24.5t18 -35.5z" />
    <glyph glyph-name="racute" unicode="&#x155;" horiz-adv-x="377" 
d="M188 343h2q63 107 119 107q26 0 43 -16t17 -36q0 -39 -35 -54q-17 -7 -27 3q-21 20 -44 20q-19 0 -39.5 -20.5t-35.5 -59.5v-183q0 -49 12.5 -61t69.5 -16v-27h-238v27q46 5 57 17t11 60v209q0 47 -9 58t-51 17v24q78 12 148 40v-109zM203 492l-27 13q8 19 22.5 54.5
t27.5 68l15 37.5q7 4 41.5 8t44.5 2l3 -10z" />
    <glyph glyph-name="Rcommaaccent" unicode="&#x156;" horiz-adv-x="628" 
d="M636 19l-4 -27q-23 0 -34 1q-63 3 -100 23t-70 69q-15 21 -31.5 47.5t-37.5 62t-29 48.5q-13 23 -30 32t-52 9h-29v-157q0 -63 14 -78t74 -20v-29h-269v29q61 5 75 20t14 78v399q0 62 -13 76t-72 19v29h253q111 0 163 -34q67 -44 67 -131q0 -115 -127 -171
q34 -62 88 -143q49 -74 80 -106q32 -36 70 -46zM219 317h44q72 0 107 28q53 43 53 124q0 76 -40.5 112t-100.5 36q-40 0 -53 -10q-10 -9 -10 -43v-247zM345 -23q30 0 52.5 -23t22.5 -58q0 -80 -108 -108l-10 27q61 27 61 58t-46 42q-15 6 -15 25q0 17 12.5 27t30.5 10z" />
    <glyph glyph-name="rcommaaccent" unicode="&#x157;" horiz-adv-x="377" 
d="M188 343h2q65 107 119 107q26 0 43 -16t17 -36q0 -39 -35 -54q-17 -7 -27 3q-21 20 -44 20q-19 0 -39.5 -20.5t-35.5 -59.5v-183q0 -49 12.5 -61t69.5 -16v-27h-238v27q46 5 57 17t11 60v209q0 47 -9 58t-51 17v24q78 12 148 40v-109zM142 -38q30 0 53 -23t23 -59
q0 -80 -109 -108l-10 28q61 25 61 58q0 31 -46 42q-15 4 -15 24q0 18 13 28t30 10z" />
    <glyph glyph-name="Rcaron" unicode="&#x158;" horiz-adv-x="628" 
d="M636 19l-4 -27q-23 0 -34 1q-63 4 -100 24t-70 68q-21 30 -97 158q-14 23 -31 32t-52 9h-29v-157q0 -63 14 -78t74 -20v-29h-269v29q61 5 75 20t14 78v399q0 62 -13 76t-72 19v29h253q111 0 163 -34q67 -44 67 -131q0 -115 -127 -171q34 -62 88 -143q46 -70 80 -106
q31 -34 70 -46zM219 317h44q72 0 107 28q53 43 53 124q0 76 -40.5 112t-100.5 36q-40 0 -53 -10q-10 -9 -10 -43v-247zM410 822l16 -25q-79 -59 -127 -111h-23q-37 40 -127 111l16 25q66 -27 122 -61q68 38 123 61z" />
    <glyph glyph-name="rcaron" unicode="&#x159;" horiz-adv-x="377" 
d="M188 343h2q63 107 119 107q26 0 43 -16t17 -36q0 -39 -35 -54q-17 -7 -27 3q-21 20 -44 20q-19 0 -39.5 -20.5t-35.5 -59.5v-183q0 -49 12.5 -61t69.5 -16v-27h-238v27q46 5 57 17t11 60v209q0 47 -9 58t-51 17v24q78 12 148 40v-109zM298 677l26 -18q-49 -67 -102 -165
h-27q-44 83 -101 165l25 18q42 -39 89 -96q60 69 90 96z" />
    <glyph glyph-name="Sacute" unicode="&#x15a;" horiz-adv-x="480" 
d="M415 502l-31 -5q-16 60 -45 96.5t-87 36.5q-52 0 -80 -31.5t-28 -76.5q0 -49 29.5 -80t96.5 -65q41 -21 64 -35t52.5 -38.5t43.5 -56t14 -70.5q0 -82 -63 -137t-163 -55q-51 0 -98 15q-18 6 -52 21q-12 34 -27 158l30 8q7 -27 19 -52.5t31.5 -52.5t49.5 -43.5t66 -16.5
q54 0 85 31.5t31 85.5q0 49 -31 80.5t-96 66.5q-30 16 -46 25t-43 29t-41 38t-25.5 46t-11.5 60q0 77 57.5 129t152.5 52q50 0 128 -23q2 -19 8.5 -65.5t9.5 -74.5zM387 764l-2 -9l-189 -63l-13 26q90 58 160 105q9 -2 25.5 -24t18.5 -35z" />
    <glyph glyph-name="sacute" unicode="&#x15b;" horiz-adv-x="370" 
d="M323 324l-27 -7q-33 100 -103 100q-28 0 -45.5 -18.5t-17.5 -47.5q0 -51 83 -85q64 -27 96 -58t32 -81q0 -66 -50.5 -102.5t-117.5 -36.5q-35 0 -68 10.5t-48 22.5q-5 11 -11 52t-6 70l27 4q15 -53 48 -89.5t76 -36.5q29 0 49 19t20 49t-19 50t-60 39q-28 13 -45.5 23
t-38.5 27t-31.5 39.5t-10.5 50.5q0 55 43 93.5t112 38.5q49 0 91 -18q13 -36 22 -108zM182 492l-27 14q8 18 22 53.5t27 68l15 37.5q8 4 42.5 8t43.5 2l4 -10z" />
    <glyph glyph-name="Scircumflex" unicode="&#x15c;" horiz-adv-x="480" 
d="M415 502l-31 -5q-16 60 -45 96.5t-87 36.5q-52 0 -80 -31.5t-28 -76.5q0 -49 29.5 -80t96.5 -65q41 -21 64 -35t52.5 -38.5t43.5 -56t14 -70.5q0 -82 -63 -137t-163 -55q-51 0 -98 15q-18 6 -52 21q-12 34 -27 158l30 8q7 -27 19 -52.5t31.5 -52.5t49.5 -43.5t66 -16.5
q54 0 85 31.5t31 85.5q0 49 -31 80.5t-96 66.5q-30 16 -46 25t-43 29t-41 38t-25.5 46t-11.5 60q0 77 57.5 129t152.5 52q50 0 128 -23q2 -19 8.5 -65.5t9.5 -74.5zM391 715l-16 -25q-42 17 -123 62q-84 -46 -122 -62l-16 25q90 71 127 110h23q37 -39 127 -110z" />
    <glyph glyph-name="scircumflex" unicode="&#x15d;" horiz-adv-x="370" 
d="M323 324l-27 -7q-33 100 -103 100q-28 0 -45.5 -18.5t-17.5 -47.5q0 -51 83 -85q64 -27 96 -58t32 -81q0 -66 -50.5 -102.5t-117.5 -36.5q-35 0 -68 10.5t-48 22.5q-5 11 -11 52t-6 70l27 4q15 -53 48 -89.5t76 -36.5q29 0 49 19t20 49t-19 50t-60 39q-28 13 -45.5 23
t-38.5 27t-31.5 39.5t-10.5 50.5q0 55 43 93.5t112 38.5q49 0 91 -18q13 -36 22 -108zM305 508l-25 -18q-35 31 -90 96q-55 -65 -90 -96l-25 18q53 74 102 165h27q46 -88 101 -165z" />
    <glyph glyph-name="Scedilla" unicode="&#x15e;" horiz-adv-x="482" 
d="M416 501l-29 -5q-8 28 -16.5 48t-23.5 41.5t-38.5 33t-53.5 11.5q-51 0 -79.5 -31t-28.5 -74q0 -50 30 -81.5t97 -64.5q37 -18 61.5 -33t52.5 -39t42 -56.5t14 -72.5q0 -69 -44 -119t-117 -65l-15 -23q-8 -12 -6.5 -20t12.5 -20q39 -38 39 -68q0 -31 -30.5 -57.5
t-84.5 -42.5l-12 26q61 27 61 59q0 15 -24 37q-19 19 -22 31.5t11 33.5l28 36q-5 -1 -17 -1q-52 1 -103 15q-33 11 -53 21q-11 29 -28 158l30 8q7 -27 19.5 -52.5t32.5 -52.5t51.5 -43.5t69.5 -16.5q52 0 82.5 32t30.5 85q0 52 -31.5 84t-94.5 65q-35 17 -57.5 31
t-51.5 38.5t-44 56.5t-15 71q0 76 57.5 128t153.5 52q55 0 126 -23l4.5 -36t6.5 -50.5t7 -54.5z" />
    <glyph glyph-name="scedilla" unicode="&#x15f;" horiz-adv-x="369" 
d="M324 325l-27 -8q-15 46 -42 73t-61 27q-28 0 -45.5 -18t-17.5 -47q0 -49 83 -85q64 -26 96 -58t32 -82q0 -52 -32 -86t-81 -45l-18 -24q-9 -13 -7.5 -20t14.5 -20q36 -35 36 -67q0 -31 -30 -57t-81 -42l-11 27q59 27 59 58q0 15 -23 36q-20 18 -22.5 31.5t11.5 32.5
l30 38q-5 -1 -16 -1q-34 0 -67.5 11.5t-48.5 24.5q-5 13 -10.5 53.5t-5.5 68.5l27 4q15 -54 49.5 -91.5t77.5 -37.5q27 0 47.5 18.5t20.5 49.5q0 30 -19 51t-61 40q-26 12 -44 22.5t-39 27t-31.5 39t-10.5 49.5q0 55 43 93.5t112 38.5q49 0 91 -18q17 -49 22 -107z" />
    <glyph glyph-name="Scaron" unicode="&#x160;" horiz-adv-x="480" 
d="M415 502l-31 -5q-16 60 -45 96.5t-87 36.5q-52 0 -80 -31.5t-28 -76.5q0 -49 29.5 -80t96.5 -65q41 -21 64 -35t52.5 -38.5t43.5 -56t14 -70.5q0 -82 -63 -137t-163 -55q-51 0 -98 15q-18 6 -52 21q-12 34 -27 158l30 8q7 -27 19 -52.5t31.5 -52.5t49.5 -43.5t66 -16.5
q54 0 85 31.5t31 85.5q0 49 -31 80.5t-96 66.5q-30 16 -46 25t-43 29t-41 38t-25.5 46t-11.5 60q0 77 57.5 129t152.5 52q50 0 128 -23q2 -19 8.5 -65.5t9.5 -74.5zM374 832l15 -26q-72 -53 -127 -110h-23q-41 44 -127 110l16 26q72 -31 123 -61q68 38 123 61z" />
    <glyph glyph-name="scaron" unicode="&#x161;" horiz-adv-x="370" 
d="M323 324l-27 -7q-33 100 -103 100q-28 0 -45.5 -18.5t-17.5 -47.5q0 -51 83 -85q64 -27 96 -58t32 -81q0 -66 -50.5 -102.5t-117.5 -36.5q-35 0 -68 10.5t-48 22.5q-5 11 -11 52t-6 70l27 4q15 -53 48 -89.5t76 -36.5q29 0 49 19t20 49t-19 50t-60 39q-28 13 -45.5 23
t-38.5 27t-31.5 39.5t-10.5 50.5q0 55 43 93.5t112 38.5q49 0 91 -18q13 -36 22 -108zM282 678l25 -18q-49 -67 -102 -165h-27q-53 97 -101 165l25 18q44 -41 90 -96q51 60 90 96z" />
    <glyph glyph-name="Tcommaaccent" unicode="&#x162;" horiz-adv-x="621" 
d="M596 495l-30 -3q-15 67 -34 92q-13 18 -33.5 24t-73.5 6h-66v-489q0 -61 16 -76.5t86 -19.5v-29h-294v29q67 4 82.5 19.5t15.5 76.5v489h-57q-59 0 -82 -6.5t-34 -24.5q-16 -23 -33 -91h-31q10 120 12 183h21q11 -16 21.5 -20.5t33.5 -4.5h397q20 0 29.5 5t21.5 20h22
q0 -62 10 -180zM303 -36q30 0 52.5 -23t22.5 -59q0 -80 -108 -108l-10 27q61 27 61 59q0 30 -46 42q-15 4 -15 24q0 18 13 28t30 10z" />
    <glyph glyph-name="tcommaaccent" unicode="&#x163;" horiz-adv-x="311" 
d="M304 36l-71 -35q-25 -13 -42 -13q-102 0 -102 120v289h-68l-4 11l28 30h44v72l74 69l14 -3v-138h110q8 -8 6 -21.5t-12 -19.5h-104v-255q0 -94 58 -94q28 0 60 15zM170 -47q30 0 52.5 -23t22.5 -59q0 -80 -109 -108l-9 27q61 27 61 59q0 29 -47 42q-15 4 -15 24
q0 18 13 28t31 10z" />
    <glyph glyph-name="Tcaron" unicode="&#x164;" horiz-adv-x="621" 
d="M596 495l-30 -3q-15 67 -34 92q-13 18 -33.5 24t-73.5 6h-66v-489q0 -61 16 -76.5t86 -19.5v-29h-294v29q67 4 82.5 19.5t15.5 76.5v489h-57q-59 0 -82 -6.5t-34 -24.5q-16 -23 -33 -91h-31q10 120 12 183h21q11 -16 21.5 -20.5t33.5 -4.5h397q20 0 29.5 5t21.5 20h22
q0 -62 10 -180zM434 822l15 -26q-72 -53 -127 -110h-23q-41 44 -127 110l16 26q72 -31 123 -61q68 38 123 61z" />
    <glyph glyph-name="tcaron" unicode="&#x165;" horiz-adv-x="311" 
d="M304 36l-71 -35q-25 -13 -41 -13q-103 0 -103 120v289h-67l-5 11l28 30h44v72l74 69l14 -3v-138h110q8 -8 6 -21.5t-12 -19.5h-104v-255q0 -94 58 -94q28 0 60 15zM279 698q25 0 44 -23.5t19 -58.5q0 -80 -90 -108l-11 28q47 23 47 59q0 30 -33 40q-14 5 -14 25
q0 18 11.5 28t26.5 10z" />
    <glyph glyph-name="Tbar" unicode="&#x166;" horiz-adv-x="617" 
d="M592 497l-30 -3q-16 70 -32 91q-12 17 -35.5 23t-77.5 6h-60v-263h147v-40h-147v-184q0 -62 16 -78t86 -20v-29h-294v29q67 4 82.5 20t15.5 78v184h-146v40h146v263h-46q-66 0 -90.5 -6.5t-34.5 -24.5q-15 -21 -33 -89h-31q10 121 12 181h21q11 -16 21 -20.5t32 -4.5h398
q19 0 27.5 5t20.5 20h22q2 -81 10 -178z" />
    <glyph glyph-name="tbar" unicode="&#x167;" horiz-adv-x="309" 
d="M304 37l-72 -37q-23 -12 -40 -12q-103 0 -103 120v117h-67v37h67v134h-68l-4 11l28 31h44v72l74 69l14 -3v-138h110q8 -8 6 -22t-12 -20h-104v-134h100v-37h-100v-82q0 -95 58 -95q30 0 60 15z" />
    <glyph glyph-name="Utilde" unicode="&#x168;" horiz-adv-x="735" 
d="M717 650v-29q-45 -3 -64.5 -16t-22.5 -43q-6 -56 -6 -158v-87q0 -182 -75 -261q-67 -70 -180 -70q-99 0 -163 48q-87 68 -87 238v247q0 66 -13.5 81.5t-73.5 20.5v29h267v-29q-59 -4 -72.5 -19.5t-13.5 -82.5v-225q0 -121 46.5 -186t136.5 -65q185 0 185 281v80
q0 111 -8 161q-4 29 -24 40.5t-72 15.5v29h240zM340 790q21 0 62 -19q35 -16 56 -16q25 0 46 43l26 -14q-28 -87 -84 -87q-23 0 -70 21q-28 14 -45 14q-25 0 -48 -44l-25 18q32 84 82 84z" />
    <glyph glyph-name="utilde" unicode="&#x169;" horiz-adv-x="535" 
d="M522 50v-26q-31 -4 -79 -16q-54 -14 -74 -20l-7 6v69q-45 -35 -70 -49q-44 -26 -79 -26q-56 0 -90.5 36.5t-34.5 111.5v197q0 37 -6.5 48t-26.5 15l-27 6v25q19 1 76 7q25 3 75 11q-3 -33 -3 -147v-136q0 -109 85 -109q55 0 101 45v235q0 37 -7.5 48t-32.5 15l-35 6v25
q44 2 92 8q24 2 71 10v-332q0 -37 8.5 -48t37.5 -13zM161 519l-27 17q30 93 83 93q20 0 59 -20q38 -19 54 -19q23 0 44 46l26 -14q-28 -94 -81 -94q-22 0 -66 23q-28 16 -47 16q-25 0 -45 -48z" />
    <glyph glyph-name="Umacron" unicode="&#x16a;" horiz-adv-x="735" 
d="M717 650v-29q-45 -3 -64.5 -16t-22.5 -43q-6 -56 -6 -158v-87q0 -182 -75 -261q-67 -70 -180 -70q-99 0 -163 48q-87 68 -87 238v247q0 66 -13.5 81.5t-73.5 20.5v29h267v-29q-59 -4 -72.5 -19.5t-13.5 -82.5v-225q0 -121 46.5 -186t136.5 -65q185 0 185 281v80
q0 107 -7 161q-5 29 -25 40.5t-72 15.5v29h240zM496 716h-227v55h227v-55z" />
    <glyph glyph-name="umacron" unicode="&#x16b;" horiz-adv-x="535" 
d="M522 51v-27q-31 -4 -79 -16q-54 -14 -74 -20l-7 6v69q-45 -35 -70 -49q-44 -26 -79 -26q-56 0 -90.5 36.5t-34.5 111.5v198q0 36 -6.5 47t-26.5 16l-27 6v24q19 1 76 7q25 3 75 11q-3 -33 -3 -146v-137q0 -109 85 -109q55 0 101 45v235q0 38 -7.5 48.5t-32.5 15.5l-35 6
v24q44 2 92 8q24 2 71 10v-332q0 -37 8.5 -48t37.5 -13zM379 547h-225v58h225v-58z" />
    <glyph glyph-name="Ubreve" unicode="&#x16c;" horiz-adv-x="735" 
d="M717 650v-29q-45 -3 -64.5 -16t-22.5 -43q-6 -56 -6 -158v-87q0 -182 -75 -261q-67 -70 -180 -70q-101 0 -163 48q-87 68 -87 238v247q0 66 -13.5 81.5t-73.5 20.5v29h266v-29q-59 -4 -72 -19.5t-13 -82.5v-225q0 -121 46.5 -186t136.5 -65q185 0 185 281v80
q0 107 -7 161q-5 29 -25 40.5t-72 15.5v29h240zM477 808h30q-1 -61 -32.5 -91.5t-86.5 -30.5q-54 0 -85.5 30.5t-32.5 91.5h30q16 -62 88 -62q74 0 89 62z" />
    <glyph glyph-name="ubreve" unicode="&#x16d;" horiz-adv-x="535" 
d="M522 51v-27q-31 -4 -79 -16q-54 -14 -74 -20l-7 6v69q-45 -35 -70 -49q-44 -26 -79 -26q-56 0 -90.5 36.5t-34.5 111.5v198q0 36 -6.5 47t-26.5 16l-27 6v24q19 1 76 7q25 3 75 11q-3 -33 -3 -146v-137q0 -109 85 -109q55 0 101 45v235q0 38 -7.5 48.5t-32.5 15.5l-35 6
v24q44 2 92 8q24 2 71 10v-332q0 -37 8.5 -48t37.5 -13zM345 650h30q0 -139 -113 -139q-112 0 -112 139h30q12 -78 82 -78q72 0 83 78z" />
    <glyph glyph-name="Uring" unicode="&#x16e;" horiz-adv-x="735" 
d="M717 650v-29q-45 -3 -64.5 -16t-22.5 -43q-6 -56 -6 -158v-87q0 -182 -75 -261q-67 -70 -180 -70q-99 0 -163 48q-87 68 -87 238v247q0 66 -13.5 81.5t-73.5 20.5v29h267v-29q-59 -4 -72.5 -19.5t-13.5 -82.5v-225q0 -121 46.5 -186t136.5 -65q185 0 185 281v80
q0 111 -8 161q-4 29 -24 40.5t-72 15.5v29h240zM389 845q35 0 62 -23.5t27 -61.5t-27 -62t-63 -24t-62.5 24t-26.5 62t27 61.5t63 23.5zM388 812q-19 0 -31.5 -14.5t-12.5 -37.5q0 -24 12.5 -39t32.5 -15q19 0 31 15t12 39q0 23 -12 37.5t-32 14.5z" />
    <glyph glyph-name="uring" unicode="&#x16f;" horiz-adv-x="535" 
d="M522 51v-27q-31 -4 -79 -16q-54 -14 -74 -20l-7 6v69q-45 -35 -70 -49q-44 -26 -79 -26q-56 0 -90.5 36.5t-34.5 111.5v198q0 36 -6.5 47t-26.5 16l-27 6v24q19 1 76 7q25 3 75 11q-3 -33 -3 -146v-137q0 -109 85 -109q55 0 101 45v235q0 38 -7.5 48.5t-32.5 15.5l-35 6
v24q44 2 92 8q24 2 71 10v-332q0 -37 8.5 -48t37.5 -13zM267 500q-36 0 -63 23.5t-27 62.5q0 38 27.5 61.5t63.5 23.5q35 0 62 -23.5t27 -61.5q0 -39 -27 -62.5t-63 -23.5zM268 532q20 0 32.5 15t12.5 39q0 23 -12.5 37.5t-33.5 14.5q-19 0 -31.5 -15t-12.5 -37
q0 -23 13 -38.5t32 -15.5z" />
    <glyph glyph-name="Uhungarumlaut" unicode="&#x170;" horiz-adv-x="735" 
d="M717 650v-29q-45 -3 -64.5 -16t-22.5 -43q-6 -56 -6 -158v-87q0 -182 -75 -261q-67 -70 -180 -70q-99 0 -163 48q-87 68 -87 238v247q0 66 -13.5 81.5t-73.5 20.5v29h267v-29q-59 -4 -72.5 -19.5t-13.5 -82.5v-225q0 -121 46.5 -186t136.5 -65q185 0 185 281v80
q0 111 -8 161q-4 29 -24 40.5t-72 15.5v29h240zM553 796l-99 -112l-27 13q20 49 49 124q16 1 41.5 -3.5t34.5 -10.5zM408 796l-100 -113l-26 14q11 25 28.5 70.5t20.5 53.5q15 1 41 -4t35 -10z" />
    <glyph glyph-name="uhungarumlaut" unicode="&#x171;" horiz-adv-x="535" 
d="M522 51v-27q-31 -4 -79 -16q-54 -14 -74 -20l-7 6v69q-45 -35 -70 -49q-44 -26 -79 -26q-56 0 -90.5 36.5t-34.5 111.5v198q0 36 -6.5 47t-26.5 16l-27 6v24q19 1 76 7q25 3 75 11q-3 -33 -3 -146v-137q0 -109 85 -109q55 0 101 45v235q0 38 -7.5 48.5t-32.5 15.5l-35 6
v24q44 2 92 8q24 2 71 10v-332q0 -37 8.5 -48t37.5 -13zM194 493l-28 9q30 108 44 163q8 3 39 8t41 3l3 -9zM335 493l-28 9q5 19 16 59.5t18.5 68.5t9.5 35q8 3 39 8t41 3l3 -9z" />
    <glyph glyph-name="Uogonek" unicode="&#x172;" horiz-adv-x="732" 
d="M715 650v-29q-44 -3 -63 -16t-23 -43q-7 -51 -7 -160v-85q0 -182 -75 -262q-43 -44 -110 -60q-27 -27 -44 -61.5t-17 -61.5q0 -25 15 -37t38 -12q16 0 47 11l8 -26l-59 -34q-17 -10 -37 -10q-41 0 -62 22.5t-21 53.5q0 67 90 148q-120 -8 -189 46q-87 68 -87 238v244
q0 68 -13.5 84t-73.5 21v29h266v-29q-58 -4 -71.5 -20t-13.5 -85v-222q0 -122 45.5 -186.5t135.5 -64.5q185 0 185 281v78q0 113 -8 163q-4 29 -24.5 41t-72.5 15v29h241z" />
    <glyph glyph-name="uogonek" unicode="&#x173;" horiz-adv-x="535" 
d="M523 51v-27l-48 -8q-40 -28 -68.5 -69.5t-28.5 -76.5q0 -22 14 -34t36 -12q20 0 46 11l8 -25l-58 -34q-18 -11 -36 -11q-39 0 -60 21.5t-21 54.5q0 71 111 161l-49 -14q-4 6 -6 8v67q-45 -35 -70 -49q-44 -26 -79 -26q-57 0 -91.5 36.5t-34.5 111.5v196q0 37 -6.5 48
t-26.5 16l-28 6v25q39 2 77 7q25 3 75 11q-3 -33 -3 -146v-138q0 -108 85 -108q54 0 102 45v233q0 38 -8 49t-33 16l-33 6v25q42 2 90 8q25 2 72 10v-333q0 -37 8.5 -47.5t37.5 -12.5z" />
    <glyph glyph-name="Wcircumflex" unicode="&#x174;" horiz-adv-x="972" 
d="M958 650v-29q-51 -8 -68.5 -24t-39.5 -77q-55 -156 -165 -531h-36q-44 131 -172 489h-2q-24 -73 -78.5 -237.5t-82.5 -251.5h-35q-22 75 -163 534q-18 59 -36 75.5t-65 22.5v29h253v-29q-54 -7 -64 -19t3 -50q76 -264 119 -400h2q24 76 77.5 240t80.5 249h32
q52 -151 174 -490h2q79 246 110 389q12 45 0.5 59.5t-69.5 21.5v29h223zM641 704l-16 -25q-42 17 -123 62q-84 -46 -122 -62l-16 25q90 71 127 110h23q37 -39 127 -110z" />
    <glyph glyph-name="wcircumflex" unicode="&#x175;" horiz-adv-x="685" 
d="M697 438v-27q-36 -6 -49.5 -18.5t-29.5 -54.5q-30 -76 -122 -349h-30q-23 60 -65 164.5t-56 140.5q-116 -302 -117 -305h-31q-60 193 -116 357q-13 39 -25.5 49.5t-47.5 15.5v27h214v-27q-45 -7 -53.5 -17t2.5 -42q40 -130 71 -226h2q40 104 113 307h29q27 -74 119 -310
h2q47 144 66 223q9 37 -0.5 47.5t-57.5 17.5v27h182zM480 508l-25 -18q-35 31 -90 96q-55 -65 -90 -96l-25 18q53 74 102 165h27q46 -88 101 -165z" />
    <glyph glyph-name="Ycircumflex" unicode="&#x176;" horiz-adv-x="638" 
d="M625 650v-29q-50 -6 -70 -20t-49 -60q-64 -101 -125 -215q-16 -32 -16 -64v-135q0 -64 15.5 -78.5t83.5 -19.5v-29h-290v29q67 5 82 20t15 78v129q0 24 -19 59q-74 133 -126 221q-30 52 -48 66.5t-62 18.5v29h247v-29q-50 -6 -58 -18t8 -37q1 -1 131 -234q86 156 116 224
q17 36 7.5 47.5t-65.5 17.5v29h223zM466 709l-16 -25q-38 16 -122 62q-101 -53 -122 -62l-16 25q86 68 127 110h23q40 -42 126 -110z" />
    <glyph glyph-name="ycircumflex" unicode="&#x177;" horiz-adv-x="460" 
d="M479 438v-27q-39 -6 -53.5 -18t-34.5 -54q-11 -23 -26.5 -60t-43 -104.5t-54.5 -132.5q-82 -195 -103 -272q-7 -25 -33 -25q-21 0 -40 16t-19 35q0 20 26 37q45 27 75 86q20 35 29 63q7 21 -2 46q-77 218 -116 310q-16 41 -30.5 54.5t-53.5 18.5v27h210l1 -27
q-34 -6 -41.5 -16t2.5 -37l88 -246q47 111 89 243q9 28 -0.5 39t-50.5 17v27h181zM360 508l-25 -18q-35 31 -90 96q-55 -65 -90 -96l-25 18q53 74 102 165h27q46 -88 101 -165z" />
    <glyph glyph-name="Ydieresis" unicode="&#x178;" horiz-adv-x="638" 
d="M625 650l-1 -29q-50 -6 -70 -20t-49 -60q-57 -90 -124 -215q-16 -30 -16 -64v-135q0 -64 15.5 -78.5t83.5 -19.5v-29h-290v29q66 5 81 20t15 78v129q0 25 -18 59q-74 133 -126 221q-30 52 -48 66.5t-62 18.5v29h247v-29q-50 -6 -58 -18t8 -37q1 -1 131 -234
q86 156 116 224q17 36 7.5 47.5t-65.5 17.5v29h223zM427 801q21 0 36 -15.5t15 -37.5q0 -21 -15 -36.5t-37 -15.5q-20 0 -35 15.5t-15 36.5q0 22 15 37.5t36 15.5zM233 800q22 0 36.5 -15t14.5 -37q0 -21 -15 -36.5t-37 -15.5q-20 0 -35 15.5t-15 36.5q0 22 15 37t36 15z
" />
    <glyph glyph-name="Zacute" unicode="&#x179;" horiz-adv-x="606" 
d="M563 179l30 -7q-24 -128 -36 -172h-519l-9 15q305 438 413 598h-164q-76 0 -101.5 -7.5t-39.5 -28.5q-21 -31 -35 -88h-30q1 24 6 92t6 94h24q9 -17 19 -21t35 -4h400l7 -14q-279 -401 -405 -593q48 -6 155 -6q89 0 128 7.5t60 29.5q27 27 56 105zM478 755l-2 -8
l-189 -63l-13 25q28 19 82.5 55t77.5 51q10 -3 26 -25t18 -35z" />
    <glyph glyph-name="zacute" unicode="&#x17a;" horiz-adv-x="424" 
d="M391 141l26 -13q-43 -120 -46 -128h-334l-8 15q117 176 245 388h-82q-52 0 -72.5 -13.5t-42.5 -58.5l-14 -28l-26 10q24 88 35 146h21q8 -21 56 -21h233l6 -14q-153 -246 -239 -389h92q54 0 80 16.5t56 64.5zM215 492l-27 13q19 45 64 160q7 4 41.5 8t44.5 2l4 -10z" />
    <glyph glyph-name="Zdotaccent" unicode="&#x17b;" horiz-adv-x="606" 
d="M563 179l30 -7q-24 -128 -36 -172h-519l-9 15q305 438 413 598h-164q-76 0 -101.5 -7.5t-39.5 -28.5q-21 -31 -35 -88h-30q1 24 6 92t6 94h24q9 -17 19 -21t35 -4h400l7 -14q-256 -369 -405 -593q48 -6 155 -6q89 0 128 7.5t60 29.5q27 27 56 105zM321 813q23 0 38.5 -16
t15.5 -40q0 -23 -15.5 -38.5t-39.5 -15.5q-22 0 -38 15.5t-16 38.5q0 24 16 40t39 16z" />
    <glyph glyph-name="zdotaccent" unicode="&#x17c;" horiz-adv-x="424" 
d="M391 141l26 -13q-43 -120 -46 -128h-334l-8 15q124 187 246 387h-83q-51 0 -71.5 -13.5t-43.5 -57.5l-14 -28l-26 10q23 82 35 146h21q8 -21 57 -21h232l7 -14q-130 -207 -240 -389h93q54 0 80 16.5t55 64.5zM223 534q-22 0 -38 16t-16 38q0 23 16 39t39 16
q22 0 37.5 -16t15.5 -39q0 -22 -15.5 -38t-38.5 -16z" />
    <glyph glyph-name="Zcaron" unicode="&#x17d;" horiz-adv-x="606" 
d="M563 179l30 -7q-24 -128 -36 -172h-519l-9 15q305 438 413 598h-164q-76 0 -101.5 -7.5t-39.5 -28.5q-21 -31 -35 -88h-30q1 24 6 92t6 94h24q9 -17 19 -21t35 -4h400l7 -14q-279 -401 -405 -593q48 -6 155 -6q89 0 128 7.5t60 29.5q27 27 56 105zM443 822l15 -25
q-79 -61 -127 -111h-23q-37 40 -127 111l15 25q64 -26 124 -61q66 38 123 61z" />
    <glyph glyph-name="zcaron" unicode="&#x17e;" horiz-adv-x="424" 
d="M391 141l26 -13q-43 -120 -46 -128h-334l-8 15q117 176 245 388h-82q-52 0 -72.5 -13.5t-42.5 -58.5l-14 -28l-26 10q24 88 35 146h21q8 -21 56 -21h233l6 -14q-153 -246 -239 -389h92q54 0 80 16.5t56 64.5zM307 677l25 -18q-55 -77 -101 -165h-27q-44 83 -101 165
l25 18q35 -32 89 -96q60 69 90 96z" />
    <glyph glyph-name="longs" unicode="&#x17f;" horiz-adv-x="272" 
d="M54 438h46v21q0 44 11 79q20 69 79 119q53 46 111 53q55 -1 81 -33q15 -17 7 -36q-5 -15 -24 -28q-14 -9 -27 3q-42 42 -82 42q-33 0 -51 -36q-17 -37 -17 -197v-313q0 -55 10.5 -67.5t57.5 -17.5v-27h-221v27q44 5 54.5 17t10.5 60v293h-69l-4 11z" />
    <glyph glyph-name="florin" unicode="&#x192;" horiz-adv-x="483" 
d="M184 371l8 43q21 116 96 182q65 56 118 56q20 0 40.5 -14t19.5 -31q0 -15 -14 -32t-25 -12q-4 2 -18.5 12.5t-28.5 17.5t-27 7q-23 0 -37 -30q-19 -41 -38 -199h111v-39h-117l-29 -193q-15 -100 -46 -152.5t-78 -87.5q-51 -37 -89 -37q-21 0 -38.5 12.5t-17.5 26.5
t14.5 32t23.5 18q2 0 27 -16.5t43 -16.5q28 0 38 32q14 47 31 181l26 201h-88v39h95z" />
    <glyph glyph-name="Ohorn" unicode="&#x1a0;" horiz-adv-x="750" 
d="M361 628q-86 0 -146 -75t-60 -208q0 -139 66.5 -231t170.5 -92q86 0 144.5 74t58.5 210q0 152 -66 237t-168 85zM383 664q108 0 197 -64q19 -10 44 -10q30 0 44 13t14 27q0 13 -8 18.5t-33 8.5q-8 1 -16 9.5t-8 21.5q0 18 13 30.5t32 12.5q30 0 49 -20t19 -60
q0 -39 -29 -65t-74 -31q80 -90 80 -222q0 -158 -97 -253t-239 -95q-139 0 -233 95.5t-94 238.5q0 67 23.5 129t65.5 110t107 77t143 29z" />
    <glyph glyph-name="ohorn" unicode="&#x1a1;" horiz-adv-x="528" 
d="M246 416q-45 0 -76.5 -46t-31.5 -128q0 -96 36 -158t95 -62q106 0 106 181q0 94 -34 153.5t-95 59.5zM260 450q63 0 121 -36q22 -9 38 -9q26 0 39 9t13 20t-7 16.5t-26 8.5q-23 7 -23 29q0 17 13 28.5t32 11.5q24 0 40 -17.5t16 -52.5t-25 -57.5t-66 -27.5
q52 -62 52 -147q0 -113 -67 -175.5t-152 -62.5q-101 0 -161.5 66t-60.5 155q0 78 37 135t86.5 81.5t100.5 24.5z" />
    <glyph glyph-name="Uhorn" unicode="&#x1af;" horiz-adv-x="735" 
d="M477 621v29h182q60 0 60 33q0 20 -38 28q-25 6 -25 31q0 18 13 30t32 12q29 0 46 -19.5t17 -56.5q0 -67 -67 -87q-36 -10 -50 -21.5t-17 -39.5q-6 -56 -6 -156v-87q0 -182 -75 -261q-67 -70 -180 -70q-99 0 -163 48q-87 68 -87 238v246q0 67 -13.5 82t-73.5 21v29h266
v-29q-59 -5 -72 -20.5t-13 -82.5v-224q0 -121 46.5 -186t136.5 -65q185 0 185 281v80q0 106 -7 160q-5 29 -25 41t-72 16z" />
    <glyph glyph-name="uhorn" unicode="&#x1b0;" horiz-adv-x="551" 
d="M522 50v-26q-31 -4 -79 -16q-43 -11 -74 -20l-7 6v69q-45 -35 -69 -49q-44 -26 -79 -26q-56 0 -90.5 36.5t-34.5 111.5v197q0 37 -6.5 48t-26.5 15l-28 6v25q19 1 76 7q20 2 76 11q-4 -44 -4 -147v-136q0 -109 85 -109q55 0 101 45v235q0 38 -7.5 48.5t-32.5 14.5l-35 6
v25q89 3 128 10q69 7 69 36q0 22 -35 26q-7 1 -15 8.5t-8 20.5q0 18 12 29.5t31 11.5q25 0 42 -17.5t17 -53.5q0 -35 -23 -57t-55 -30v-298q0 -37 8.5 -48t37.5 -13z" />
    <glyph glyph-name="Aringacute" unicode="&#x1fa;" horiz-adv-x="694" 
d="M676 0h-253v29q47 6 57.5 16.5t-0.5 40.5q-13 41 -52 146h-210q-15 -42 -43 -124q-15 -46 -4 -59.5t67 -19.5v-29h-219v29q50 7 68.5 23.5t43.5 79.5l207 523l35 10q159 -441 193 -533q24 -64 42 -81t68 -22v-29zM413 277l-85 248h-3q-53 -143 -91 -248h179zM347 854
q35 0 62 -23.5t27 -61.5t-27 -62t-63 -24t-62.5 24t-26.5 62t27 61.5t63 23.5zM346 821q-19 0 -31.5 -14.5t-12.5 -37.5t12.5 -38.5t32.5 -15.5q19 0 31 15t12 39q0 23 -12 37.5t-32 14.5zM483 936l-2 -9l-189 -63l-13 26q90 58 160 105q9 -2 25.5 -24t18.5 -35z" />
    <glyph glyph-name="aringacute" unicode="&#x1fb;" horiz-adv-x="444" 
d="M438 40l-89 -52q-29 0 -49 20q-17 17 -25 43q-3 -2 -16.5 -11.5t-19 -13t-17 -11.5t-18 -11t-15.5 -7.5t-16 -6.5t-13 -2q-53 0 -88 37.5t-35 85.5q0 70 80 98q132 46 156 66v19q0 52 -21.5 81.5t-58.5 29.5q-27 0 -43 -19q-17 -20 -29 -67q-7 -25 -32 -25
q-16 0 -31.5 13.5t-15.5 30.5q0 18 33 42q26 19 70 40.5t82 29.5q51 0 85 -27q46 -38 46 -125v-182q0 -59 35 -59q18 0 35 10zM273 83v157l-84 -40q-30 -15 -44 -31t-14 -42q0 -36 21.5 -56t47.5 -20q39 0 73 32zM222 500q-36 0 -63 23.5t-27 62.5q0 38 27.5 61.5t63.5 23.5
q35 0 62 -23.5t27 -61.5q0 -39 -27.5 -62.5t-62.5 -23.5zM223 532q20 0 32 15t12 39q0 23 -12 37.5t-33 14.5q-19 0 -31.5 -14.5t-12.5 -37.5q0 -24 12.5 -39t32.5 -15zM217 693l-27 13q11 25 38 92l26 68q8 4 42.5 8t43.5 2l4 -10z" />
    <glyph glyph-name="AEacute" unicode="&#x1fc;" horiz-adv-x="871" 
d="M822 167l30 -7q-32 -146 -36 -160h-477v29q63 4 78 21.5t15 85.5v160h-176q-66 -130 -93 -191q-19 -40 -8.5 -54.5t66.5 -21.5v-29h-232v29q48 6 69.5 21t49.5 65q94 168 237 447q16 29 11.5 39.5t-39.5 14.5l-44 6v29h519q3 -73 10 -144l-31 -4q-15 61 -33 84
q-12 15 -34 21t-71 6h-77q-23 0 -28 -5t-5 -27v-246h85q66 0 83 12t27 64h31v-196h-31q-10 55 -27 67.5t-83 12.5h-85v-164q0 -69 24 -84q19 -11 100 -11q52 0 80 7t44 27q27 31 51 96zM432 336v272q-12 0 -27 -17q-60 -113 -130 -255h157zM682 757l-3 -9l-189 -63l-12 25
l159 106q9 -2 25.5 -24t19.5 -35z" />
    <glyph glyph-name="aeacute" unicode="&#x1fd;" horiz-adv-x="671" 
d="M282 276v24q0 46 -24.5 75.5t-59.5 29.5q-29 0 -46 -22q-14 -16 -27 -64q-7 -26 -30 -26q-14 0 -31.5 14t-17.5 29q0 21 32 44q76 52 154 70q45 0 75 -22q28 -18 40 -51q65 71 145 73q64 0 109.5 -46.5t46.5 -106.5q0 -17 -5 -24.5t-19 -10.5q-36 -10 -262 -17
q-1 -91 44 -138.5t109 -47.5q57 0 110 49l18 -22q-39 -53 -86 -75.5t-80 -22.5q-108 0 -161 88l-34 -27q-82 -61 -121 -61q-54 0 -88.5 37t-34.5 84q0 71 78 100q139 48 166 67zM468 412q-35 0 -64.5 -33.5t-35.5 -92.5l165 3q22 0 22 23q0 41 -23.5 70.5t-63.5 29.5z
M204 54q57 0 97 52q-20 42 -20 134q-9 -4 -24.5 -11t-35.5 -15.5t-32 -13.5q-31 -13 -44.5 -28.5t-13.5 -41.5q0 -36 22 -56t51 -20zM336 492l-26 13q9 22 35 87t29 73q7 4 41.5 8t44.5 2l4 -10z" />
    <glyph glyph-name="Oslashacute" unicode="&#x1fe;" horiz-adv-x="753" 
d="M636 674l-49 -75q57 -47 91.5 -115.5t34.5 -148.5q0 -157 -97 -253.5t-242 -96.5q-95 0 -172 49l-56 -80l-28 24l53 77q-57 47 -89.5 115t-32.5 150q0 139 94 242t248 103q93 0 164 -45l51 75zM220 126l296 437q-56 65 -147 65q-89 0 -150.5 -75t-61.5 -210
q0 -129 63 -217zM540 532l-296 -438q55 -72 147 -72q103 0 158 78.5t55 205.5q0 133 -64 226zM510 761l-3 -8l-188 -64l-13 26q21 14 77 51t83 54q10 -2 26 -24t18 -35z" />
    <glyph glyph-name="oslashacute" unicode="&#x1ff;" horiz-adv-x="516" 
d="M434 455l-35 -52q81 -67 81 -176q0 -112 -67 -175.5t-153 -63.5q-62 0 -116 30l-38 -54l-26 22l37 52q-39 32 -60 77.5t-21 94.5q0 58 21.5 105.5t55.5 76t73 43.5t76 15q59 0 109 -29l36 53zM161 104l175 266q-31 46 -85 46q-49 0 -83.5 -48t-34.5 -134q0 -77 28 -130z
M356 338l-174 -266q31 -51 88 -51q49 0 81.5 46.5t32.5 145.5q0 72 -28 125zM247 492l-26 13q45 112 64 160q7 4 41.5 8t44.5 2l3 -10z" />
    <glyph glyph-name="Scommaaccent" unicode="&#x218;" horiz-adv-x="480" 
d="M415 502l-30 -5q-17 60 -46 96.5t-87 36.5q-52 0 -80 -31.5t-28 -76.5q0 -49 29.5 -80t96.5 -65q40 -20 64 -34.5t53 -39t43 -56t14 -70.5q0 -82 -63 -137t-163 -55q-51 0 -98 15q-18 6 -52 21q-12 34 -27 158l30 8q7 -27 19 -52.5t31.5 -52.5t49.5 -43.5t66 -16.5
q54 0 85 31.5t31 85.5q0 49 -31 80.5t-96 66.5q-30 16 -46 25t-43 29t-41 38t-25.5 46t-11.5 60q0 77 57.5 129t152.5 52q50 0 128 -23q2 -19 8.5 -65.5t9.5 -74.5zM236 -53l2 1q30 0 52.5 -23t22.5 -59q0 -80 -109 -108l-10 27q61 27 61 59q0 31 -47 41q-14 4 -14 24
q0 18 12.5 28t29.5 10z" />
    <glyph glyph-name="scommaaccent" unicode="&#x219;" horiz-adv-x="370" 
d="M323 324l-26 -7q-35 100 -104 100q-28 0 -45.5 -18.5t-17.5 -47.5q0 -51 83 -85q64 -27 96.5 -58t32.5 -81q0 -65 -50.5 -102t-117.5 -37q-36 0 -69 10.5t-48 22.5q-5 11 -11 52t-6 70l27 4q15 -53 48.5 -89.5t76.5 -36.5q28 0 48 19t20 49t-19 50t-60 39
q-28 13 -45.5 23t-38.5 27t-31.5 39.5t-10.5 50.5q0 56 43 94t113 38q48 0 90 -18q16 -40 22 -108zM184 -44q30 0 53 -23t23 -58q0 -80 -109 -108l-10 27q61 27 61 58t-46 42q-15 6 -15 25q0 17 13 27t30 10z" />
    <glyph glyph-name="uni021A" unicode="&#x21a;" horiz-adv-x="621" 
d="M596 495l-30 -3q-15 67 -34 92q-13 18 -33.5 24t-73.5 6h-66v-489q0 -61 16 -76.5t86 -19.5v-29h-294v29q67 4 82.5 19.5t15.5 76.5v489h-57q-59 0 -82 -6.5t-34 -24.5q-16 -23 -33 -91h-31q10 120 12 183h21q11 -16 21.5 -20.5t33.5 -4.5h397q20 0 29.5 5t21.5 20h22
q0 -62 10 -180zM303 -36q30 0 52.5 -23t22.5 -59q0 -80 -108 -108l-10 27q61 27 61 59q0 30 -46 42q-15 4 -15 24q0 18 13 28t30 10z" />
    <glyph glyph-name="uni021B" unicode="&#x21b;" horiz-adv-x="311" 
d="M304 36l-71 -35q-25 -13 -42 -13q-102 0 -102 120v289h-68l-4 11l28 30h44v72l74 69l14 -3v-138h110q8 -8 6 -21.5t-12 -19.5h-104v-255q0 -94 58 -94q28 0 60 15zM170 -47q30 0 52.5 -23t22.5 -59q0 -80 -108 -108l-10 27q61 27 61 59q0 30 -46 42q-15 4 -15 24
q0 18 13 28t30 10z" />
    <glyph glyph-name="uni021C" unicode="&#x21c;" horiz-adv-x="522" 
d="M137 267l-11 33q107 41 155.5 85.5t48.5 117.5q0 57 -31.5 90.5t-78.5 33.5q-55 0 -88.5 -36.5t-55.5 -109.5l-31 6q19 104 23 141q19 4 53.5 14.5t63 16t61.5 5.5q85 0 136 -39t51 -104q1 -83 -117 -157v-3q75 -14 121.5 -61.5t46.5 -119.5q0 -116 -109 -198.5
t-270 -105.5l-63 45l6 22q58 -10 88 -10q106 0 174 59t68 155q0 72 -40.5 109.5t-91.5 37.5q-36 0 -109 -27z" />
    <glyph glyph-name="uni021D" unicode="&#x21d;" horiz-adv-x="389" 
d="M79 108l-11 29q83 37 119 73t36 88q0 42 -22.5 65.5t-57.5 23.5q-50 0 -112 -60l-20 23q42 51 81 75.5t86 24.5q60 0 99 -34t39 -91q0 -51 -47 -95q-11 -12 -42 -34v-1q59 -14 95.5 -56.5t36.5 -103.5q0 -102 -89 -174.5t-216 -93.5l-52 38l6 20q38 -6 61 -6
q86 0 139.5 51t53.5 135q0 59 -31 91.5t-70 32.5q-29 0 -82 -21z" />
    <glyph glyph-name="uni0232" unicode="&#x232;" horiz-adv-x="638" 
d="M625 650v-29q-50 -6 -70 -20t-49 -60q-65 -104 -124 -215q-17 -32 -17 -64v-135q0 -64 15.5 -78.5t83.5 -19.5v-29h-290v29q67 5 82 20t15 78v129q0 24 -19 59q-74 133 -126 221q-30 52 -48 66.5t-62 18.5v29h247v-29q-50 -6 -58.5 -18t8.5 -37q35 -66 131 -234
q92 171 116 224q17 36 7.5 47.5t-66.5 17.5v29h224zM449 716h-227v55h227v-55z" />
    <glyph glyph-name="uni0233" unicode="&#x233;" horiz-adv-x="460" 
d="M479 438v-27q-39 -6 -53.5 -18t-34.5 -54q-11 -23 -26.5 -60t-43 -104.5t-54.5 -132.5q-82 -195 -103 -272q-7 -25 -33 -25q-21 0 -40 16t-19 35q0 20 26 37q45 27 75 86q20 35 29 63q7 21 -2 46q-77 218 -116 310q-16 41 -30.5 54.5t-53.5 18.5v27h210l1 -27
q-34 -6 -41.5 -16t2.5 -37l88 -246q47 111 89 243q9 28 -0.5 39t-50.5 17v27h181zM363 547h-225v58h225v-58z" />
    <glyph glyph-name="uni0237" unicode="&#x237;" horiz-adv-x="262" 
d="M34 388v24q85 13 154 39v-336q0 -96 -24 -162q-24 -65 -62 -120t-62 -75q-16 -12 -28 -12t-24 14t-12 32q0 20 21 24q57 11 73 34q16 22 22 72q8 61 8 192v193q0 51 -10 62.5t-56 18.5z" />
    <glyph glyph-name="circumflex" unicode="&#x2c6;" 
d="M315 508l-25 -18q-35 31 -90 96q-55 -65 -90 -96l-25 18q53 74 102 165h27q46 -88 101 -165z" />
    <glyph glyph-name="caron" unicode="&#x2c7;" 
d="M290 678l25 -18q-49 -67 -102 -165h-27q-53 97 -101 165l25 18q44 -41 90 -96q51 60 90 96z" />
    <glyph glyph-name="uni02C9" unicode="&#x2c9;" 
d="M313 547h-225v58h225v-58z" />
    <glyph glyph-name="breve" unicode="&#x2d8;" 
d="M283 650h30q0 -139 -114 -139q-111 0 -111 139h30q12 -78 82 -78q71 0 83 78z" />
    <glyph glyph-name="dotaccent" unicode="&#x2d9;" 
d="M200 534q-22 0 -38 16t-16 38q0 23 16 39t39 16q22 0 37.5 -16t15.5 -39q0 -22 -16 -38t-38 -16z" />
    <glyph glyph-name="ring" unicode="&#x2da;" 
d="M200 500q-36 0 -63 23.5t-27 62.5q0 38 27.5 61.5t63.5 23.5q35 0 62 -23.5t27 -61.5q0 -39 -27.5 -62.5t-62.5 -23.5zM201 532q20 0 32 15t12 39q0 23 -12 37.5t-33 14.5q-19 0 -31.5 -14.5t-12.5 -37.5q0 -24 12.5 -39t32.5 -15z" />
    <glyph glyph-name="ogonek" unicode="&#x2db;" 
d="M294 -178l-51 -29q-17 -9 -33 -9q-39 0 -60.5 23t-21.5 52q0 9 2 19t4 17.5t7 19t7.5 17.5t10 19t10 17t11 17.5t9.5 15.5h37q-32 -68 -32 -112q0 -25 14 -38t36 -13q21 0 42 9z" />
    <glyph glyph-name="tilde" unicode="&#x2dc;" 
d="M93 519l-27 17q30 93 83 93q20 0 59 -20q38 -19 54 -19q23 0 44 46l26 -14q-28 -94 -81 -94q-22 0 -66 23q-29 17 -47 17q-24 0 -45 -49z" />
    <glyph glyph-name="hungarumlaut" unicode="&#x2dd;" 
d="M133 493l-28 9q30 108 44 163q7 4 38.5 8.5t41.5 3.5l3 -10zM274 493l-28 9q40 150 43 163q8 4 39.5 8.5t41.5 3.5l3 -10z" />
    <glyph glyph-name="uni0374" unicode="&#x374;" horiz-adv-x="236" 
d="M210 644l2 -14q-67 -128 -124 -231l-27 5q25 95 52 246q11 7 48 4t49 -10z" />
    <glyph glyph-name="uni0375" unicode="&#x375;" horiz-adv-x="236" 
d="M175 123l2 -14q-75 -144 -125 -231l-27 5q28 108 53 246q11 7 48 4t49 -10z" />
    <glyph glyph-name="uni037E" unicode="&#x37e;" horiz-adv-x="236" 
d="M121 262q-28 0 -47 19.5t-19 51.5q0 29 19.5 49t47.5 20t47.5 -20t19.5 -49q0 -32 -19 -51.5t-49 -19.5zM43 -123l-28 7q24 93 54 245q10 7 47.5 4t48.5 -10l2 -14q-72 -142 -124 -232z" />
    <glyph glyph-name="tonos" unicode="&#x384;" horiz-adv-x="362" 
d="M265 668l-68 -171l-29 1q13 156 13 166q6 6 37.5 11t41.5 3z" />
    <glyph glyph-name="dieresistonos" unicode="&#x385;" 
d="M311 524q-22 0 -35 13t-13 34q0 20 13.5 34.5t35.5 14.5q19 0 32 -14.5t13 -34.5q0 -21 -13 -34t-33 -13zM253 674l-49 -175l-27 -1q-4 106 -4 173q8 4 38.5 8.5t38.5 3.5zM90 524q-20 0 -33.5 13t-13.5 34q0 20 13.5 34.5t34.5 14.5q19 0 32.5 -14.5t13.5 -34.5
q0 -21 -13.5 -34t-33.5 -13z" />
    <glyph glyph-name="Alphatonos" unicode="&#x386;" horiz-adv-x="694" 
d="M676 0h-253v29q47 6 57.5 16.5t-0.5 40.5q-13 41 -52 146h-210q-15 -42 -43 -124q-15 -46 -4 -59.5t67 -19.5v-29h-219v29q50 7 68.5 23.5t43.5 79.5l207 522l35 10q145 -402 193 -532q24 -64 42 -81t68 -22v-29zM413 277l-85 248h-3q-37 -100 -91 -248h179zM211 699
l-68 -172l-29 1q13 156 13 165q6 6 37.5 11t41.5 3z" />
    <glyph glyph-name="anoteleia" unicode="&#x387;" horiz-adv-x="236" 
d="M117 196q-29 0 -48 19.5t-19 51.5q0 29 19.5 49t48.5 20t48.5 -20t19.5 -49q0 -32 -19.5 -51.5t-49.5 -19.5z" />
    <glyph glyph-name="Epsilontonos" unicode="&#x388;" horiz-adv-x="570" 
d="M520 164l30 -5q-16 -94 -35 -159h-487v29q67 5 82.5 20t15.5 77v395q0 66 -13 80.5t-72 19.5v29h450q1 -12 4.5 -65.5t4.5 -79.5l-30 -5q-11 52 -34 86q-11 16 -34.5 22t-75.5 6h-72q-24 0 -29 -5t-5 -28v-225h90q66 0 82 12t26 63h30v-193h-30q-10 53 -26.5 65t-81.5 12
h-90v-185q0 -66 24 -82q19 -12 101 -12q54 0 80.5 7t43.5 26q29 35 51 95zM5 698l-68 -171l-29 1q13 156 13 166q6 6 37.5 11t41.5 3z" />
    <glyph glyph-name="Etatonos" unicode="&#x389;" horiz-adv-x="769" 
d="M732 650v-29q-62 -5 -75.5 -19.5t-13.5 -76.5v-400q0 -62 13.5 -76.5t74.5 -19.5v-29h-274v29q64 5 78 19.5t14 76.5v197h-328v-197q0 -62 13.5 -76.5t74.5 -19.5v-29h-269v29q60 5 73.5 19.5t13.5 76.5v400q0 62 -13.5 76.5t-75.5 19.5v29h266v-29q-57 -5 -70 -19.5
t-13 -76.5v-159h328v159q0 62 -13 76.5t-72 19.5v29h268zM-1 697l-68 -170l-29 1q13 156 13 165q6 6 37.5 11t41.5 3z" />
    <glyph glyph-name="Iotatonos" unicode="&#x38a;" horiz-adv-x="347" 
d="M309 0h-272v29q61 5 75 19.5t14 77.5v398q0 63 -14 77.5t-75 19.5v29h272v-29q-61 -5 -75 -19.5t-14 -77.5v-398q0 -63 14 -77.5t75 -19.5v-29zM-2 697l-68 -170l-29 1q13 156 13 165q6 6 37.5 11t41.5 3z" />
    <glyph glyph-name="Omicrontonos" unicode="&#x38c;" horiz-adv-x="750" 
d="M383 665q133 0 228.5 -93t95.5 -239q0 -158 -97 -253t-239 -95q-139 0 -233.5 95.5t-94.5 238.5q0 141 93 243.5t247 102.5zM361 628q-86 0 -146 -75t-60 -208q0 -139 66.5 -231t170.5 -92q86 0 144.5 74t58.5 210q0 152 -66 237t-168 85zM73 688l-68 -171l-29 1
q13 156 13 166q6 6 37.5 11t41.5 3z" />
    <glyph glyph-name="Upsilontonos" unicode="&#x38e;" horiz-adv-x="657" 
d="M651 621l-5 -14q-6 1 -14 1q-40 0 -85.5 -30.5t-82.5 -88.5q-90 -142 -90 -295v-71q0 -60 15.5 -75t82.5 -19v-29h-290v29q67 5 82.5 19.5t15.5 74.5v76q0 162 -50 266q-63 141 -187 141q-17 0 -37 -3l-5 27q66 35 127 35q108 0 167 -135q36 -74 48 -221h6q20 116 68 198
q34 70 82.5 114t99.5 44q30 0 52 -44zM-31 698l-68 -171l-29 1q1 16 5 54t6.5 67.5t2.5 44.5q6 6 37 11t42 3z" />
    <glyph glyph-name="Omegatonos" unicode="&#x38f;" horiz-adv-x="759" 
d="M721 149l-19 -149h-245l-6 17q1 2 20 31.5t29 46t28 53.5t28 66.5t18 70t8 79.5q0 121 -53.5 193.5t-145.5 72.5q-93 0 -145.5 -72t-52.5 -199q0 -43 9.5 -87t28.5 -85.5t32 -67t36 -61.5t25 -40l-6 -18h-247l-17 149l28 1q17 -47 31 -59.5t46 -12.5h87q-1 1 -17 16
t-20.5 19.5t-20 21t-22 25t-20.5 26t-20.5 30.5l-16 32t-14 35.5t-8 37t-3.5 40.5q0 134 88 219t220 85q133 0 220 -83t87 -217q0 -39 -10.5 -75.5t-34 -71.5t-38 -53.5t-46 -51.5t-33.5 -35h85q34 0 47 11.5t31 60.5zM82 688l-68 -171l-29 1q13 156 13 166q6 6 37.5 11
t41.5 3z" />
    <glyph glyph-name="iotadieresistonos" unicode="&#x390;" horiz-adv-x="251" 
d="M238 60l8 -27q-61 -45 -102 -45q-29 0 -51 23.5t-22 76.5v343l88 20v-332q0 -67 39 -67q23 0 40 8zM230 530q-21 0 -34 13t-13 34q0 20 13.5 34.5t34.5 14.5q19 0 32.5 -14.5t13.5 -34.5q0 -21 -13.5 -34t-33.5 -13zM194 677l-93 -174l-29 6q23 92 40 166q8 4 39.5 8.5
t38.5 3.5zM10 530q-20 0 -33.5 13t-13.5 34q0 20 13.5 34.5t34.5 14.5q19 0 32.5 -14.5t13.5 -34.5q0 -21 -13.5 -34t-33.5 -13z" />
    <glyph glyph-name="Alpha" unicode="&#x391;" horiz-adv-x="694" 
d="M676 0h-253v29q47 6 57.5 16.5t-0.5 40.5q-13 41 -52 146h-210q-15 -42 -43 -124q-15 -46 -4 -59.5t67 -19.5v-29h-219v29q50 7 68.5 23.5t43.5 79.5l207 523l35 10q159 -441 193 -533q24 -64 42 -81t68 -22v-29zM413 277l-85 248h-3q-53 -143 -91 -248h179z" />
    <glyph glyph-name="Beta" unicode="&#x392;" horiz-adv-x="597" 
d="M377 353v-2q179 -26 179 -159q0 -99 -95 -151q-71 -41 -198 -41h-227v29q64 4 77.5 19t13.5 78v400q0 62 -12.5 76.5t-70.5 18.5v29h262q103 0 154 -34q56 -38 56 -114q0 -63 -41.5 -99t-97.5 -50zM220 363h42q80 0 116.5 31.5t36.5 94.5q0 57 -32.5 92.5t-95.5 35.5
q-39 0 -55 -11q-12 -8 -12 -48v-195zM220 328v-201q0 -54 17 -73t64 -18q63 0 105.5 36.5t42.5 109.5q0 146 -188 146h-41z" />
    <glyph glyph-name="Gamma" unicode="&#x393;" horiz-adv-x="513" 
d="M491 499l-31 -4q-17 68 -35 89q-12 17 -33.5 23t-68.5 6h-69q-22 0 -28 -5t-6 -26v-453q0 -64 15 -79.5t83 -20.5v-29h-277v29q58 5 71.5 20.5t13.5 79.5v393q0 62 -13.5 78.5t-71.5 20.5v29h440q0 -49 10 -151z" />
    <glyph glyph-name="uni0394" unicode="&#x394;" horiz-adv-x="645" 
d="M604 0h-562v25l269 631l30 9l263 -640v-25zM491 51l-191 479l-191 -479h382z" />
    <glyph glyph-name="Epsilon" unicode="&#x395;" horiz-adv-x="570" 
d="M520 164l30 -5q-16 -94 -35 -159h-487v29q67 5 82.5 20t15.5 77v395q0 66 -13 80.5t-72 19.5v29h450q1 -12 4.5 -65.5t4.5 -79.5l-30 -5q-11 52 -34 86q-11 16 -34.5 22t-75.5 6h-72q-24 0 -29 -5t-5 -28v-225h90q66 0 82 12t26 63h30v-193h-30q-10 53 -26.5 65t-81.5 12
h-90v-185q0 -66 24 -82q19 -12 101 -12q54 0 80.5 7t43.5 26q29 35 51 95z" />
    <glyph glyph-name="Zeta" unicode="&#x396;" horiz-adv-x="606" 
d="M563 179l30 -7q-24 -128 -36 -172h-519l-9 15q305 438 413 598h-164q-76 0 -101.5 -7.5t-39.5 -28.5q-21 -31 -35 -88h-30q1 24 6 92t6 94h24q9 -17 19 -21t35 -4h400l7 -14q-279 -401 -405 -593q48 -6 155 -6q89 0 128 7.5t60 29.5q27 27 56 105z" />
    <glyph glyph-name="Eta" unicode="&#x397;" horiz-adv-x="769" 
d="M732 650v-29q-62 -5 -75.5 -19.5t-13.5 -76.5v-400q0 -62 13.5 -76.5t74.5 -19.5v-29h-274v29q64 5 78 19.5t14 76.5v197h-328v-197q0 -62 13.5 -76.5t74.5 -19.5v-29h-269v29q60 5 73.5 19.5t13.5 76.5v400q0 62 -13.5 76.5t-75.5 19.5v29h266v-29q-57 -5 -70 -19.5
t-13 -76.5v-159h328v159q0 62 -13 76.5t-72 19.5v29h268z" />
    <glyph glyph-name="Theta" unicode="&#x398;" horiz-adv-x="743" 
d="M379 665q132 0 226 -93t94 -238q0 -157 -95.5 -253t-237.5 -96q-138 0 -230.5 95.5t-92.5 237.5q0 90 38.5 167.5t116.5 128.5t181 51zM358 628q-86 0 -144.5 -75t-58.5 -208q0 -140 65 -231t167 -91q86 0 143.5 72.5t57.5 208.5q0 153 -64 238.5t-166 85.5zM500 225h-31
q-5 49 -14.5 60.5t-44.5 11.5h-79q-35 0 -44.5 -11.5t-14.5 -60.5h-31v219h31q5 -49 14.5 -60.5t44.5 -11.5h80q35 0 44 11t14 61h31v-219z" />
    <glyph glyph-name="Iota" unicode="&#x399;" horiz-adv-x="347" 
d="M309 0h-272v29q61 5 75 19.5t14 77.5v398q0 63 -14 77.5t-75 19.5v29h272v-29q-61 -5 -75 -19.5t-14 -77.5v-398q0 -63 14 -77.5t75 -19.5v-29z" />
    <glyph glyph-name="Kappa" unicode="&#x39a;" horiz-adv-x="678" 
d="M673 0h-162q-42 49 -239 289q-16 20 -27.5 25.5t-25.5 3.5v-188q0 -65 14.5 -80.5t76.5 -20.5v-29h-267v29q57 5 70.5 20.5t13.5 80.5v390q0 66 -14 81t-73 20v29h264v-29q-58 -5 -71.5 -20.5t-13.5 -80.5v-174q26 6 71 46q104 102 163 175q22 26 18.5 36.5t-36.5 14.5
l-22 3v29h243v-29q-56 -5 -86 -18.5t-76 -55.5q-20 -19 -171 -170q98 -125 231 -276q38 -40 60.5 -53.5t58.5 -18.5v-29z" />
    <glyph glyph-name="Lambda" unicode="&#x39b;" horiz-adv-x="688" 
d="M673 0h-254v29q48 7 58.5 19t-0.5 46q-27 74 -83.5 233t-68.5 194h-2q-21 -61 -72.5 -200.5t-73.5 -206.5q-15 -49 -4 -63t67 -22v-29h-221v29q49 8 68.5 26t45.5 85q21 54 92.5 234.5t109.5 280.5l35 10q148 -411 194 -532q23 -62 42 -80t67 -24v-29z" />
    <glyph glyph-name="Mu" unicode="&#x39c;" horiz-adv-x="890" 
d="M861 0h-269v29q60 6 72 23t11 95l-3 403h-4l-240 -543h-21l-221 530h-2l-14 -281q-6 -103 -3 -165q1 -34 20 -45t72 -16v-30h-235v30q44 5 61.5 17t22.5 42q10 59 20 184l14 206q2 35 3 54t-2 37t-7 25t-16.5 13.5t-25.5 8l-39 4.5v29h172l222 -489l226 489h175v-29
q-66 -6 -79 -21.5t-11 -89.5l9 -363q2 -79 15 -95.5t77 -22.5v-29z" />
    <glyph glyph-name="Nu" unicode="&#x39d;" horiz-adv-x="743" 
d="M720 650v-29q-43 -2 -61.5 -15t-22.5 -45q-6 -62 -6 -168v-402h-34l-424 519h-2v-247q0 -109 6 -167q4 -37 24 -50.5t73 -16.5v-29h-239v29q44 2 63.5 16t23.5 49q7 72 7 169v219q0 53 -3 68.5t-17 33.5q-25 32 -88 37v29h154l411 -491h3v234q0 98 -7 166q-4 33 -24.5 46
t-73.5 16v29h237z" />
    <glyph glyph-name="Xi" unicode="&#x39e;" horiz-adv-x="614" 
d="M541 490h-30q-14 57 -26 71.5t-56 14.5h-240q-43 0 -55.5 -15t-25.5 -71h-30l8 160h447zM477 233h-30q-8 47 -19 58.5t-51 11.5h-137q-40 0 -51 -11.5t-19 -58.5h-29v212h30q8 -47 18 -58t46 -10h142q39 0 50.5 11.5t19.5 56.5h30v-212zM567 177l-11 -177h-493l-11 177
h29q22 -64 40 -81.5t75 -17.5h226q58 0 76 17.5t39 81.5h30z" />
    <glyph glyph-name="Omicron" unicode="&#x39f;" horiz-adv-x="750" 
d="M383 665q133 0 228.5 -93t95.5 -239q0 -158 -97 -253t-239 -95q-139 0 -233.5 95.5t-94.5 238.5q0 141 93 243.5t247 102.5zM361 628q-86 0 -146 -75t-60 -208q0 -139 66.5 -231t170.5 -92q86 0 144.5 74t58.5 210q0 152 -66 237t-168 85z" />
    <glyph glyph-name="Pi" unicode="&#x3a0;" horiz-adv-x="742" 
d="M707 650v-29q-61 -5 -75.5 -20.5t-14.5 -76.5v-398q0 -61 14 -76.5t74 -20.5v-29h-272v29q61 5 75.5 21t14.5 76v456q0 20 -6 25t-27 5h-237q-23 0 -28.5 -5.5t-5.5 -27.5v-453q0 -61 13.5 -76.5t70.5 -20.5v-29h-264v29q58 5 72 21t14 76v398q0 61 -14 76.5t-76 20.5v29
h672z" />
    <glyph glyph-name="Rho" unicode="&#x3a1;" horiz-adv-x="569" 
d="M46 650h252q112 0 169 -41q66 -49 66 -143q0 -91 -57 -143t-139 -62q-22 -3 -44 -1l-73 19v-154q0 -62 15 -76.5t82 -19.5v-29h-277v29q59 5 73 20t14 77v397q0 65 -12.5 79t-68.5 19v29zM220 561v-248q24 -12 69 -12q56 0 97.5 37.5t41.5 124.5q0 77 -41 115.5
t-105 38.5q-40 0 -52 -12q-10 -9 -10 -44z" />
    <glyph glyph-name="Sigma" unicode="&#x3a3;" horiz-adv-x="601" 
d="M573 173l-39 -173h-502v23l260 298l-247 306v23h475q4 -67 11 -149l-30 -4q-17 63 -37 87q-12 17 -35.5 23t-76.5 6h-176l206 -253l-241 -282h275q52 0 78 20t49 82z" />
    <glyph glyph-name="Tau" unicode="&#x3a4;" horiz-adv-x="621" 
d="M596 495l-30 -3q-15 67 -34 92q-13 18 -33.5 24t-73.5 6h-66v-489q0 -61 16 -76.5t86 -19.5v-29h-294v29q67 4 82.5 19.5t15.5 76.5v489h-57q-59 0 -82 -6.5t-34 -24.5q-16 -23 -33 -91h-31q10 120 12 183h21q11 -16 21.5 -20.5t33.5 -4.5h397q20 0 29.5 5t21.5 20h22
q0 -62 10 -180z" />
    <glyph glyph-name="Upsilon" unicode="&#x3a5;" horiz-adv-x="657" 
d="M651 621l-5 -13h-14q-40 0 -85.5 -30.5t-82.5 -88.5q-90 -142 -90 -295v-71q0 -60 15.5 -75t82.5 -19v-29h-290v29q67 5 82.5 19.5t15.5 74.5v76q0 162 -50 267q-63 140 -187 140q-24 0 -37 -3l-5 27q66 35 127 35q109 0 167 -135q36 -74 48 -221h6q20 116 68 198
q34 70 82.5 114t99.5 44q31 0 52 -44z" />
    <glyph glyph-name="Phi" unicode="&#x3a6;" horiz-adv-x="760" 
d="M494 658v-29q-46 -4 -57.5 -12.5t-11.5 -38.5q49 -2 96.5 -15t93 -39.5t74 -75t28.5 -112.5q0 -65 -29 -115.5t-74.5 -78t-93.5 -41.5t-95 -15q0 -35 11.5 -44.5t57.5 -12.5v-29h-229v29q46 3 57.5 12.5t11.5 44.5q-36 1 -73.5 8.5t-77.5 26t-70.5 45t-50 69t-19.5 94.5
q0 51 19.5 93.5t49.5 70t69.5 47t77.5 28t75 10.5q0 30 -11 39t-53 12v29h224zM334 119v426q-33 -2 -64 -14t-61 -35t-48 -64t-18 -95q0 -56 17.5 -98.5t47 -67t61 -37t65.5 -15.5zM425 545v-426q34 3 65 15t61 35t48 65t18 98t-18 98t-48 65.5t-61.5 35.5t-64.5 14z" />
    <glyph glyph-name="Chi" unicode="&#x3a7;" horiz-adv-x="661" 
d="M663 0h-273v29q45 6 54 16t-6 35q-50 84 -127 208q-75 -114 -120 -198q-18 -32 -9.5 -43t58.5 -18v-29h-233v29q80 8 117 56q50 63 164 236q-31 50 -80 128.5t-56 89.5q-30 47 -52 61.5t-75 20.5v29h256v-29q-43 -6 -51 -15t5 -28q37 -65 110 -177q63 95 97 159
q19 31 10.5 42.5t-57.5 18.5v29h231v-29q-55 -6 -79.5 -19.5t-57.5 -56.5q-34 -43 -122 -176q86 -137 159 -250q34 -51 59.5 -68t77.5 -22v-29z" />
    <glyph glyph-name="Psi" unicode="&#x3a8;" horiz-adv-x="736" 
d="M711 659l10 -28q-31 -15 -42 -37t-21 -74l-13 -70q-11 -54 -27.5 -83t-48.5 -53q-56 -44 -156 -48v-143q0 -57 14 -73.5t71 -20.5v-29h-264v29q57 4 71 20.5t14 73.5v143q-107 5 -163 49q-31 24 -47.5 54.5t-24.5 83.5l-12 71q-10 63 -21 79q-11 17 -36 28l10 28
q80 -10 113 -50q21 -25 31 -83l10 -60q16 -89 46 -124t94 -40v225q0 57 -13.5 73.5t-66.5 20.5v29h254v-29q-53 -4 -66.5 -20.5t-13.5 -73.5v-225q71 4 98.5 37t43.5 129l10 57q10 59 35 85q35 39 111 49z" />
    <glyph glyph-name="uni03A9" unicode="&#x3a9;" horiz-adv-x="759" 
d="M721 149l-19 -149h-245l-6 17q1 2 20 31.5t29 46t28 53.5t28 66.5t18 70t8 79.5q0 121 -53.5 193.5t-145.5 72.5q-93 0 -145.5 -72t-52.5 -199q0 -43 9.5 -87t28.5 -85.5t32 -67t36 -61.5t25 -40l-6 -18h-247l-17 149l28 1q17 -47 31 -59.5t46 -12.5h87q-1 1 -17 16
t-20.5 19.5t-20 21t-22 25t-20.5 26t-20.5 30.5l-16 32t-14 35.5t-8 37t-3.5 40.5q0 134 88 219t220 85q133 0 220 -83t87 -217q0 -39 -10.5 -75.5t-34 -71.5t-38 -53.5t-46 -51.5t-33.5 -35h85q34 0 47 11.5t31 60.5z" />
    <glyph glyph-name="Iotadieresis" unicode="&#x3aa;" horiz-adv-x="347" 
d="M309 0h-271v29q61 5 74.5 19.5t13.5 77.5v398q0 63 -13.5 77.5t-74.5 19.5v29h271v-29q-61 -5 -74.5 -19.5t-13.5 -77.5v-398q0 -63 13.5 -77.5t74.5 -19.5v-29zM270 801l2 -1q21 0 35.5 -15.5t14.5 -37.5q0 -21 -15 -36t-36 -15t-36 15.5t-15 35.5q0 22 14.5 37.5
t35.5 16.5zM78 800q21 0 35.5 -15.5t14.5 -37.5q0 -21 -14.5 -36t-36.5 -15q-21 0 -36 15t-15 36q0 22 15 37.5t37 15.5z" />
    <glyph glyph-name="Upsilondieresis" unicode="&#x3ab;" horiz-adv-x="657" 
d="M651 621l-5 -14q-6 1 -14 1q-40 0 -85.5 -30.5t-82.5 -88.5q-90 -142 -90 -295v-71q0 -60 15.5 -75t82.5 -19v-29h-290v29q67 5 82.5 19.5t15.5 74.5v76q0 162 -50 266q-63 141 -187 141q-17 0 -37 -3l-5 27q66 35 127 35q108 0 167 -135q36 -74 48 -221h6q20 116 68 198
q34 70 82.5 114t99.5 44q30 0 52 -44zM444 800q21 0 35.5 -15.5t14.5 -37.5q0 -21 -15 -36t-36 -15t-36 15.5t-15 35.5q0 22 15 37.5t37 15.5zM249 800q22 0 36.5 -15t14.5 -38q0 -21 -15 -36t-37 -15q-20 0 -35 15.5t-15 35.5q0 22 15 37.5t36 15.5z" />
    <glyph glyph-name="alphatonos" unicode="&#x3ac;" horiz-adv-x="525" 
d="M510 77l11 -24q-33 -65 -92 -65q-70 0 -84 119l-3 -1q-28 -56 -69.5 -87t-77.5 -31q-62 0 -111 60t-49 145q0 66 30.5 121.5t79.5 91.5q60 47 104 47q29 0 57.5 -26.5t45.5 -74.5h3q5 32 12 55q27 25 70 43l15 -9q-9 -26 -20 -98.5t-12 -141.5q0 -70 15 -104.5t35 -34.5
t40 15zM218 398q-40 0 -66.5 -49.5t-26.5 -117.5q0 -74 32.5 -123.5t70.5 -49.5q43 0 76.5 48t33.5 108v26q0 64 -35.5 111t-84.5 47zM329 668l-69 -171l-29 1q1 16 5 54t6.5 67.5t2.5 44.5q6 6 37 11t42 3z" />
    <glyph glyph-name="epsilontonos" unicode="&#x3ad;" horiz-adv-x="407" 
d="M375 119l21 -22q-64 -109 -187 -109q-73 0 -122 36.5t-49 98.5q0 24 9.5 42.5t28.5 31.5t35 20t40 15v3q-95 18 -95 95q0 53 50.5 86.5t126.5 33.5q67 0 101.5 -23t34.5 -54q0 -15 -12.5 -28t-30.5 -13t-23 16q-20 69 -77 69q-34 0 -55.5 -22.5t-21.5 -57.5
q0 -30 23 -50.5t63 -20.5q13 0 64 3l4 -8l-26 -51q-39 3 -50 3q-46 0 -69 -18t-23 -49q0 -42 31.5 -67.5t77.5 -25.5q73 0 131 66zM287 668l-68 -172l-29 1q13 159 13 166q6 7 38 12t41 2z" />
    <glyph glyph-name="etatonos" unicode="&#x3ae;" horiz-adv-x="513" 
d="M445 -247l-6 -9q-18 1 -46 12.5t-43 23.5q1 55 2.5 154.5t2.5 181t1 154.5q0 116 -83 116q-46 0 -100 -48v-338q-30 -3 -92 -11q4 61 4 146v179q0 45 -8.5 55.5t-50.5 18.5v24q11 7 57.5 21t72.5 17q17 -20 17 -76q42 32 61 45q46 31 82 31q60 0 92 -41t33 -122v-128
q0 -202 4 -406zM328 668l-68 -172l-29 1q13 159 13 166q6 7 37.5 12.5t42.5 2.5z" />
    <glyph glyph-name="iotatonos" unicode="&#x3af;" horiz-adv-x="251" 
d="M238 60l8 -27q-61 -45 -102 -45q-29 0 -51 23.5t-22 76.5v343l88 20v-332q0 -67 39 -67q23 0 40 8zM190 668l-68 -171h-29q13 159 13 167q6 6 37 11t42 3z" />
    <glyph glyph-name="upsilondieresistonos" unicode="&#x3b0;" horiz-adv-x="480" 
d="M292 424v9q4 5 22.5 11t31.5 6q31 0 64 -48t33 -129q0 -116 -66 -200.5t-149 -84.5q-61 0 -100 37.5t-39 111.5q0 27 0.5 88t0.5 90q0 69 -38 69q-20 0 -37 -7l-9 28q72 45 111 45q61 0 61 -106q0 -33 -0.5 -100t-0.5 -93q0 -48 25 -74.5t61 -26.5q52 0 79.5 44t27.5 147
q0 71 -23 117.5t-55 65.5zM343 530q-21 0 -34.5 13t-13.5 34q0 20 14 34.5t35 14.5q19 0 32.5 -14.5t13.5 -34.5q0 -21 -13.5 -34t-33.5 -13zM307 677l-94 -174l-29 6q23 92 40 166q8 4 40 8.5t39 3.5zM122 530q-20 0 -33.5 13t-13.5 34q0 20 13.5 34.5t34.5 14.5
q19 0 32.5 -14.5t13.5 -34.5q0 -21 -13.5 -34t-33.5 -13z" />
    <glyph glyph-name="alpha" unicode="&#x3b1;" horiz-adv-x="525" 
d="M510 77l11 -24q-33 -65 -92 -65q-70 0 -84 119l-3 -1q-28 -56 -69.5 -87t-77.5 -31q-62 0 -111 60t-49 145q0 66 30.5 121.5t79.5 91.5q60 47 104 47q29 0 57.5 -27t45.5 -75h3q5 31 12 56q26 23 70 43l15 -8q-9 -26 -20 -99t-12 -142q0 -70 15 -104.5t35 -34.5t40 15z
M218 398q-40 0 -66.5 -49.5t-26.5 -117.5q0 -74 32.5 -123.5t70.5 -49.5q43 0 76.5 48t33.5 108v26q0 64 -35.5 111t-84.5 47z" />
    <glyph glyph-name="beta" unicode="&#x3b2;" horiz-adv-x="514" 
d="M70 -214v581q0 103 16.5 166t53.5 106q62 71 140 71q67 0 107 -42.5t40 -110.5q0 -37 -19.5 -70.5t-36.5 -48t-49 -37.5q58 -10 102 -46q55 -47 55 -131q0 -54 -27.5 -101.5t-66.5 -76t-78.5 -45t-67.5 -16.5q-37 0 -83 44q0 -37 11 -276l-10 -9q-21 1 -49.5 14t-37.5 28
zM216 350l17 53q47 3 65 18q47 36 47 109q0 59 -29 96t-74 37q-17 0 -30 -5t-22 -18t-16 -25t-11 -35t-6.5 -39t-3.5 -46.5t-1 -48v-52.5q0 -191 4 -316q51 -36 108 -36q63 0 93.5 34t30.5 111q0 75 -43.5 119.5t-106.5 44.5q-15 0 -22 -1z" />
    <glyph glyph-name="gamma" unicode="&#x3b3;" horiz-adv-x="497" 
d="M292 61h3q35 68 66 152t31 139q0 25 -13 57q-3 8 4 15q9 11 25 19.5t27 8.5q32 0 32 -62q0 -48 -25.5 -109t-88.5 -180q-28 -49 -53 -113q1 -18 6.5 -95.5t5.5 -103.5q-13 -13 -44 -27.5t-52 -16.5l-15 12q2 27 18 121t17 103q-2 67 -30 170.5t-75 176.5q-23 37 -44 47.5
t-65 1.5l-6 25q25 17 61.5 32.5t59.5 15.5q49 0 94 -117q40 -105 61 -272z" />
    <glyph glyph-name="delta" unicode="&#x3b4;" horiz-adv-x="499" 
d="M450 584l-10 -21q-102 90 -201 90q-49 0 -49 -25q0 -29 114 -135q87 -78 123.5 -137t36.5 -138q0 -105 -65.5 -167.5t-150.5 -62.5q-97 0 -154.5 66.5t-57.5 155.5q0 167 193 230q-52 54 -74.5 87t-22.5 61q0 45 45 83t99 39q67 1 114 -39.5t60 -86.5zM371 196
q0 114 -118 222q-115 -39 -115 -197q0 -84 36 -141t87 -57q49 0 79.5 43.5t30.5 129.5z" />
    <glyph glyph-name="epsilon" unicode="&#x3b5;" horiz-adv-x="407" 
d="M376 119l20 -22q-64 -109 -187 -109q-73 0 -122 36.5t-49 98.5q0 24 9.5 42.5t28.5 31.5t35 20t40 15v3q-95 18 -95 95q0 53 50.5 86.5t125.5 33.5q67 0 102 -23.5t35 -53.5q0 -15 -13 -28t-31 -13q-17 0 -22 16q-20 69 -78 69q-34 0 -55 -22.5t-21 -57.5q0 -31 22.5 -51
t62.5 -20q12 0 66 3l4 -8l-26 -51q-39 3 -51 3q-45 0 -68 -18t-23 -49q0 -42 31 -67.5t77 -25.5q74 0 132 66z" />
    <glyph glyph-name="zeta" unicode="&#x3b6;" horiz-adv-x="381" 
d="M129 734l18 -5q-2 -42 26.5 -71t65.5 -31q76 68 118 68q17 0 19 -14q0 -21 -11.5 -40.5t-29.5 -29.5q-37 -20 -82 -23q-55 -59 -91 -146.5t-36 -187.5q0 -71 21.5 -110.5t69.5 -52.5q34 -10 49 -14q45 -13 70.5 -36t25.5 -67q0 -72 -73 -145l-25 17q24 48 24 83
q0 26 -15.5 43t-53.5 27q-10 2 -29 7.5t-29 8.5q-124 36 -124 205q0 104 48 200.5t123 169.5q-51 4 -86.5 26.5t-37.5 51.5q0 35 45 66z" />
    <glyph glyph-name="eta" unicode="&#x3b7;" horiz-adv-x="513" 
d="M445 -247l-6 -8q-18 1 -46 12.5t-43 23.5q1 54 2.5 153.5t2.5 181t1 154.5q0 116 -83 116q-46 0 -100 -48v-338q-30 -3 -92 -11q4 61 4 146v179q0 45 -8.5 55.5t-50.5 18.5v24q11 7 57.5 21t72.5 17q17 -20 17 -76q42 32 61 45q46 31 82 31q60 0 92 -41t33 -122v-128
q0 -202 4 -406z" />
    <glyph glyph-name="theta" unicode="&#x3b8;" horiz-adv-x="493" 
d="M457 355q0 -161 -55 -264t-161 -103q-66 0 -113.5 50.5t-69.5 130t-22 179.5q0 153 58 257.5t156 104.5q68 0 116 -50.5t69.5 -129t21.5 -175.5zM131 390h230q-3 118 -31.5 201.5t-82.5 83.5q-51 0 -82.5 -84.5t-33.5 -200.5zM362 339h-232q2 -135 35.5 -225.5
t85.5 -90.5q54 0 82 87.5t29 228.5z" />
    <glyph glyph-name="iota" unicode="&#x3b9;" horiz-adv-x="251" 
d="M238 60l8 -27q-61 -45 -102 -45q-29 0 -51 23.5t-22 76.5v343l88 20v-332q0 -67 39 -67q23 0 40 8z" />
    <glyph glyph-name="kappa" unicode="&#x3ba;" horiz-adv-x="496" 
d="M484 60l6 -26q-36 -45 -93 -45q-47 0 -95 67q-28 40 -96 155q-2 -3 -14 -17.5t-21 -27.5v-166q-30 -3 -90 -11q3 60 3 151v190q0 34 -8.5 42.5t-50.5 15.5v24q12 6 60 20.5t73 17.5q13 -14 13 -92v-145q16 24 63.5 82t75.5 87q65 68 103 68q21 0 33.5 -13.5t12.5 -31.5
q0 -27 -18 -41q-6 -6 -16 -1q-14 9 -36 9q-48 0 -122 -93q13 -27 46 -80.5t63 -93.5q41 -54 71 -54q17 0 37 9z" />
    <glyph glyph-name="lambda" unicode="&#x3bb;" horiz-adv-x="496" 
d="M478 54l9 -24q-40 -42 -99 -42q-34 0 -55.5 30t-44.5 105q-50 164 -70 235q-64 -213 -123 -349l-72 -21l-8 12q112 207 184 426q-4 14 -10.5 36t-11.5 39t-10 32q-23 68 -44 93.5t-50 24.5q-21 0 -39 -8l-8 24q51 44 99 44q28 0 50 -17.5t47 -71.5t52 -149
q63 -220 108 -347q28 -78 63 -78q17 0 33 6z" />
    <glyph glyph-name="uni03BC" unicode="&#x3bc;" horiz-adv-x="517" 
d="M503 56l11 -26q-14 -17 -39 -29.5t-51 -12.5q-31 0 -53 20.5t-27 55.5h-2q-67 -76 -130 -76q-52 0 -81 42h-4v-16q-1 -54 12 -138.5t24 -117.5l-13 -12q-17 1 -40.5 13.5t-36.5 25.5q-2 7 -2 261v288q0 61 -3 97l88 19q3 -24 3 -107v-171q0 -63 26.5 -91t62.5 -28
q53 0 93 49v329l88 19v-334q0 -69 40 -69q18 0 34 9z" />
    <glyph glyph-name="nu" unicode="&#x3bd;" horiz-adv-x="477" 
d="M25 376l-7 27q69 47 114 47q21 0 38 -21t37 -77q15 -43 45 -135.5t37 -114.5q89 156 89 235q0 37 -19 63q-7 10 0 21q16 29 45 29q20 0 32.5 -21t12.5 -48q0 -15 -3 -31t-11 -37t-14.5 -36.5t-21.5 -44t-22.5 -42.5t-27.5 -50t-27 -49l-57 -103h-27q-63 200 -108 316
q-17 44 -32 60.5t-34 16.5q-23 0 -39 -5z" />
    <glyph glyph-name="xi" unicode="&#x3be;" horiz-adv-x="408" 
d="M351 396l-38 -57q-30 4 -57 4q-58 0 -94.5 -35t-36.5 -96q0 -98 111 -125q21 -5 51 -12q102 -25 102 -105q0 -32 -17.5 -66t-31 -49.5t-24.5 -25.5l-26 15q25 48 25 84q0 51 -65 68l-63 15q-77 17 -113.5 56.5t-36.5 106.5q0 109 130 181q-40 11 -64.5 41.5t-24.5 70.5
q0 85 92 142q-38 5 -69 24.5t-33 42.5q0 15 11.5 33t27.5 28l17 -5q0 -34 25 -60t59 -29q79 48 139 48q12 0 16.5 -4t3.5 -13q-8 -43 -43 -59q-46 -15 -110 -11q-56 -37 -56 -104q0 -38 27.5 -67.5t85.5 -29.5q42 0 74 5z" />
    <glyph glyph-name="omicron" unicode="&#x3bf;" horiz-adv-x="513" 
d="M260 450q93 0 155 -65.5t62 -158.5q0 -113 -67 -175.5t-152 -62.5q-101 0 -161.5 66t-60.5 155q0 78 37 135t86.5 81.5t100.5 24.5zM246 416q-45 0 -76.5 -46t-31.5 -128q0 -96 36 -158t95 -62q106 0 106 181q0 94 -34 153.5t-95 59.5z" />
    <glyph glyph-name="pi" unicode="&#x3c0;" horiz-adv-x="534" 
d="M489 467l28 -7q-8 -59 -25 -88q-14 -5 -75 -5q-6 -81 -4 -220q0 -90 40 -90q20 0 42 10l11 -21q-16 -25 -42.5 -41.5t-52.5 -16.5q-76 0 -76 126q0 91 8 255q-57 1 -135 1v-17q0 -107 -12 -190.5t-22.5 -114.5t-18.5 -42q-38 -16 -67 -18l-8 19q41 60 60.5 166.5
t19.5 198.5q-82 0 -128 -35l-16 24q12 15 23 25t32.5 25t52.5 22.5t69 7.5q210 -3 245 -3q22 0 32 5.5t19 23.5z" />
    <glyph glyph-name="rho" unicode="&#x3c1;" horiz-adv-x="504" 
d="M74 -254l-7 10q6 24 6 144q0 53 -1.5 154t-1.5 134q0 70 20 122t73 91q62 49 123 49q84 0 133 -59.5t49 -142.5q0 -75 -41.5 -136.5t-94 -91.5t-98.5 -32q-42 0 -75 33q4 -227 4 -231q-6 -15 -36 -28.5t-53 -15.5zM378 212q0 78 -37.5 132.5t-97.5 54.5
q-50 0 -68.5 -42.5t-18.5 -124.5q0 -67 2 -149q45 -43 98 -43t87.5 40.5t34.5 131.5z" />
    <glyph glyph-name="uni03C2" unicode="&#x3c2;" horiz-adv-x="405" 
d="M300 -159l-25 18q29 39 29 79q0 25 -20 40.5t-66 25.5q-34 8 -49 12q-133 37 -133 184q0 115 100 194q72 56 147 56q49 0 80 -21q19 -12 19 -33q0 -17 -14 -33t-25 -16q-8 1 -23 12q-44 35 -92 35q-53 0 -82 -40.5t-29 -108.5q0 -127 109 -153q7 -1 49 -12q49 -12 76 -35
t27 -69q0 -41 -25 -77.5t-53 -57.5z" />
    <glyph glyph-name="sigma" unicode="&#x3c3;" horiz-adv-x="517" 
d="M285 448q31 -1 81.5 -3t69.5 -2q36 0 58 25l26 -13q-19 -67 -39 -80q-29 0 -122 10l-2 -2q97 -54 97 -165q0 -106 -61.5 -168t-144.5 -62q-99 0 -155.5 65.5t-56.5 157.5q0 109 70 173.5t179 63.5zM259 392q-54 0 -89.5 -45.5t-35.5 -131.5q0 -81 34.5 -136.5t87.5 -55.5
q48 0 78.5 45t30.5 144q0 86 -34 139q-27 41 -72 41z" />
    <glyph glyph-name="tau" unicode="&#x3c4;" horiz-adv-x="449" 
d="M404 466l29 -4q-12 -68 -24 -90q-20 -6 -74 -4q-12 0 -34.5 0.5t-33.5 0.5q-6 -85 -4 -221q0 -90 49 -90q25 0 44 10l12 -25q-16 -23 -45 -39t-57 -16q-81 0 -81 123q0 112 9 261q-59 2 -96 -5.5t-68 -30.5l-16 24q56 80 166 80q28 0 83 -1t87 -1q23 -1 34 4t20 24z" />
    <glyph glyph-name="upsilon" unicode="&#x3c5;" horiz-adv-x="480" 
d="M292 424v9q4 5 22.5 11t31.5 6q31 0 64 -48t33 -129q0 -116 -66 -200.5t-150 -84.5q-61 0 -100 37.5t-39 111.5q0 27 0.5 88t0.5 90q0 69 -38 69q-18 0 -37 -7l-9 28q72 45 111 45q62 0 62 -106q0 -33 -0.5 -100t-0.5 -93q0 -48 25 -74.5t60 -26.5q53 0 80.5 44t27.5 147
q0 71 -23 117.5t-55 65.5z" />
    <glyph glyph-name="phi" unicode="&#x3c6;" horiz-adv-x="591" 
d="M234 461l14 -29q-54 -31 -85.5 -74.5t-31.5 -117.5q0 -83 38 -134.5t90 -63.5q-3 143 -2 225q1 92 42 137.5t96 45.5q62 0 111 -57t49 -149q0 -103 -62 -168.5t-153 -80.5q0 -18 1 -83.5t1 -121.5q-6 -15 -32 -29t-48 -15l-7 6q4 56 3 238q-101 5 -162 67.5t-61 160.5
q0 161 199 243zM374 407q-21 0 -29 -19.5t-8 -76.5q0 -7 0.5 -111t2.5 -163q54 3 94.5 52.5t40.5 138.5q0 83 -32.5 131t-68.5 48z" />
    <glyph glyph-name="chi" unicode="&#x3c7;" horiz-adv-x="470" 
d="M490 -190l8 -29q-43 -36 -91 -36q-30 0 -52.5 21.5t-46.5 78.5q-25 59 -77 211q-61 -132 -143 -324l-11 -1q-15 6 -27 20.5t-14 32.5q15 29 78.5 147.5t96.5 180.5q-39 112 -73 197q-18 43 -33 58.5t-34 15.5q-18 0 -46 -10l-8 26q60 51 107 51q48 0 85 -89
q10 -24 32 -83.5t28 -74.5q24 49 60.5 128.5t44.5 95.5l72 23l9 -11q-53 -76 -167 -290q67 -189 100 -263q24 -53 45 -69.5t57 -6.5z" />
    <glyph glyph-name="psi" unicode="&#x3c8;" horiz-adv-x="606" 
d="M581 450l13 -28q-23 -19 -34 -40t-18 -58q-36 -164 -37 -168q-21 -93 -88 -137q-34 -22 -67 -25l-4 -242l-9 -6q-13 2 -21 8.5t-15 32.5t-8 72l-1 130q-80 2 -126.5 41.5t-60.5 130.5q-5 32 -11 79.5t-9 68.5q-7 42 -17 57t-26 15q-15 0 -27 -4l-9 28q49 45 97 45
q59 0 71 -110q2 -20 6 -62.5t6 -68.5q14 -157 107 -173l-7 455l60 32l10 -5l-5 -484q45 6 65.5 36t29.5 83q5 28 19 157q6 64 21 81q39 43 95 59z" />
    <glyph glyph-name="omega" unicode="&#x3c9;" horiz-adv-x="645" 
d="M445 420l1 14q4 4 20.5 10t30.5 6q34 0 72.5 -53t38.5 -134q0 -119 -68 -197t-132 -78q-72 0 -106 76q-22 -31 -53 -53.5t-60 -22.5q-62 0 -107 60.5t-45 152.5q0 162 153 255l19 -24q-79 -76 -79 -198q0 -79 30.5 -129t69.5 -50q33 0 50.5 29.5t16.5 71.5q0 13 -12 178
l89 21l9 -6q-1 -16 -6.5 -86.5t-6.5 -106.5q-1 -43 18.5 -73.5t56.5 -30.5q90 0 90 171q0 78 -27 128t-63 69z" />
    <glyph glyph-name="iotadieresis" unicode="&#x3ca;" horiz-adv-x="251" 
d="M238 60l8 -27q-61 -45 -102 -45q-29 0 -51 23.5t-22 76.5v343l88 20v-332q0 -67 39 -67q23 0 40 8zM33 535q-20 0 -35.5 15.5t-15.5 36.5q0 22 15.5 37t36.5 15t35.5 -15t14.5 -37q0 -21 -15 -36.5t-36 -15.5zM208 535q-20 0 -35.5 15.5t-15.5 36.5q0 22 15.5 37t36.5 15
t35.5 -15t14.5 -37q0 -21 -15 -36.5t-36 -15.5z" />
    <glyph glyph-name="upsilondieresis" unicode="&#x3cb;" horiz-adv-x="480" 
d="M292 424v9q4 5 22 11t32 6q30 0 63 -48t33 -129q0 -116 -66 -200.5t-149 -84.5q-61 0 -99.5 37.5t-38.5 111.5v178q0 69 -38 69q-18 0 -37 -7l-8 28q72 45 110 45q61 0 61 -106v-193q0 -48 24.5 -74.5t60.5 -26.5q52 0 79.5 44t27.5 147q0 71 -23 117.5t-54 65.5z
M150 534q-20 0 -35.5 15.5t-15.5 36.5q0 22 15.5 37t36.5 15q22 0 36.5 -15t14.5 -37q0 -21 -15 -36.5t-37 -15.5zM326 534q-21 0 -36 15.5t-15 36.5q0 22 15 37t37 15q21 0 35.5 -15t14.5 -37q0 -21 -15 -36.5t-36 -15.5z" />
    <glyph glyph-name="omicrontonos" unicode="&#x3cc;" horiz-adv-x="513" 
d="M260 450q93 0 155 -65.5t62 -158.5q0 -113 -67 -175.5t-152 -62.5q-101 0 -161.5 66t-60.5 155q0 78 37 135t86.5 81.5t100.5 24.5zM246 416q-45 0 -76.5 -46t-31.5 -128q0 -96 36 -158t95 -62q106 0 106 181q0 94 -34 153.5t-95 59.5zM328 668l-68 -171l-29 1
q13 156 13 166q6 6 37.5 11t41.5 3z" />
    <glyph glyph-name="upsilontonos" unicode="&#x3cd;" horiz-adv-x="480" 
d="M292 424v9q4 5 22.5 11t31.5 6q31 0 64 -48t33 -129q0 -116 -66 -200.5t-150 -84.5q-61 0 -100 37.5t-39 111.5q0 27 0.5 88t0.5 90q0 69 -38 69q-18 0 -37 -7l-9 28q72 45 111 45q62 0 62 -106q0 -33 -0.5 -100t-0.5 -93q0 -48 25 -74.5t60 -26.5q53 0 80.5 44t27.5 147
q0 71 -23 117.5t-55 65.5zM306 668l-68 -171l-29 1q13 156 13 166q6 6 37.5 11t41.5 3z" />
    <glyph glyph-name="omegatonos" unicode="&#x3ce;" horiz-adv-x="645" 
d="M445 420l1 13q4 5 20.5 11t30.5 6q34 0 72.5 -53t38.5 -134q0 -119 -68 -197t-132 -78q-72 0 -106 76q-22 -31 -53 -53.5t-60 -22.5q-62 0 -107 60.5t-45 152.5q0 163 153 255l19 -24q-79 -76 -79 -198q0 -79 30.5 -129t69.5 -50q33 0 50.5 29.5t16.5 71.5q0 13 -12 178
l89 21l9 -6q-1 -16 -6.5 -86.5t-6.5 -106.5q-1 -43 18.5 -73.5t56.5 -30.5q90 0 90 171q0 78 -27.5 128.5t-62.5 68.5zM410 667l-69 -172l-28 1q13 155 13 167q6 6 37 11t42 3z" />
    <glyph glyph-name="uni03D0" unicode="&#x3d0;" horiz-adv-x="501" 
d="M466 220q0 -72 -33.5 -127t-80.5 -80t-95 -25q-62 0 -106.5 27t-68 73.5t-34 98.5t-10.5 112q0 217 115 338q70 73 147 73q56 0 92.5 -33t35.5 -93q-1 -54 -35 -89t-102 -71q175 -22 175 -204zM345 569q1 40 -20 68.5t-55 28.5q-39 0 -67.5 -31t-42.5 -80.5t-20.5 -92.5
t-7.5 -85q44 22 107 55q106 56 106 137zM368 200q0 86 -36 133.5t-92 47.5q-52 0 -108 -45q-1 -131 34.5 -221t98.5 -90q49 0 76 45.5t27 129.5z" />
    <glyph glyph-name="uni03D1" unicode="&#x3d1;" horiz-adv-x="496" 
d="M21 228l-6 24q13 13 41 26.5t54 13.5q34 0 49 -25.5t22 -72.5q1 -6 3.5 -23t3.5 -26q15 -100 80 -100q53 -1 82 62.5t30 189.5q0 51 -3 87q-76 -56 -135 -56q-86 0 -135 52t-49 127q0 91 60 148t136 57q41 0 76.5 -19t65.5 -58t47.5 -106.5t18.5 -156.5
q1 -100 -26.5 -191.5t-92.5 -147.5q-51 -45 -107 -45q-109 0 -135 126q-4 20 -10 57q-4 41 -19.5 52t-50.5 5zM219 670q-39 0 -61.5 -32t-22.5 -89q0 -67 39.5 -114t100.5 -47q53 0 99 29q-12 114 -53.5 183.5t-101.5 69.5z" />
    <glyph glyph-name="uni03D5" unicode="&#x3d5;" horiz-adv-x="586" 
d="M339 653l-4 -203q94 -11 154.5 -70.5t60.5 -156.5q0 -98 -65.5 -156t-155.5 -73l-4 -247l-5 -3q-14 2 -23 8.5t-17.5 34.5t-8.5 79l-2 124q-106 4 -170 64.5t-64 155.5q0 105 79 171q45 37 101 56l13 -29q-96 -51 -96 -178q0 -82 39.5 -132t96.5 -61v412l-1 171l61 36z
M333 405l-3 -369q138 15 138 182q0 73 -38.5 122.5t-96.5 64.5z" />
    <glyph glyph-name="uni03D6" unicode="&#x3d6;" horiz-adv-x="665" 
d="M143 489l-10 28q96 60 209 60q137 0 213 -81t76 -219q0 -66 -21.5 -123t-53.5 -92t-67 -54.5t-65 -19.5q-41 0 -70 23t-44 55q-21 -29 -56.5 -53.5t-63.5 -24.5q-62 0 -108 60.5t-46 152.5q0 162 153 253l18 -25q-78 -72 -78 -194q0 -80 30.5 -128.5t69.5 -48.5
q34 0 56.5 29t21.5 68q0 9 -12 179l89 20l9 -6q-1 -18 -6.5 -88.5t-6.5 -103.5q-1 -41 22 -71t63 -30q41 0 68.5 42.5t27.5 134.5q0 139 -75.5 215t-191.5 76q-81 0 -151 -34z" />
    <glyph glyph-name="uni03DA" unicode="&#x3da;" horiz-adv-x="406" 
d="M371 467l26 -11q-7 -49 -23.5 -70.5t-33.5 -20.5q-23 0 -50 9q-49 14 -73 14q-46 0 -74.5 -38.5t-28.5 -110.5q0 -122 109 -147q9 -2 26 -6.5t27 -6.5q53 -12 78 -35.5t25 -69.5q0 -54 -43.5 -96t-85.5 -42q-16 0 -27 10.5t-11 24.5q0 19 18 36q7 7 15 3q20 -9 42 -9
q16 0 27.5 10t11.5 27q0 24 -24 38.5t-79 25.5q-39 8 -64 16q-123 33 -123 179q0 62 28 113.5t72 84.5q71 55 131 55q30 0 62 -7q28 -5 42 24z" />
    <glyph glyph-name="uni03DD" unicode="&#x3dd;" horiz-adv-x="456" 
d="M430 452l-34 -68q-77 11 -188 11h-34v-261q142 2 209 10l5 -13l-33 -48q-30 6 -182 9v-109q0 -112 -25 -164.5t-87 -79.5l-8 8q33 55 33 245v446h178q121 0 155 24z" />
    <glyph glyph-name="uni03DE" unicode="&#x3de;" horiz-adv-x="512" 
d="M259 450q93 0 155.5 -65.5t62.5 -158.5q0 -96 -51 -156.5t-123 -75.5v-85q0 -46 -8 -65q-17 -41 -70 -63l-11 6q2 72 2 131v74q-83 14 -132 76.5t-49 140.5q0 113 70.5 177t153.5 64zM246 414q-47 0 -78 -45t-31 -127q0 -95 36 -156t95 -61q107 0 107 178q0 93 -34 152
t-95 59z" />
    <glyph glyph-name="uni03E0" unicode="&#x3e0;" horiz-adv-x="674" 
d="M77 617l-6 24l44 14q33 12 70 12q112 0 200 -38.5t140 -103.5t79 -142.5t27 -162.5q0 -221 -141 -386l-25 17q89 152 89 348q0 36 -5 68q-153 -82 -245 -178q-47 -50 -43 -90v-9q-8 -4 -19 -4t-21.5 7t-16 21t-5 31t13.5 40.5t38 46.5q86 82 290 187q-14 57 -36.5 99
t-38.5 58q-76 -53 -187.5 -110t-149.5 -67q-27 -8 -52 1.5t-34 24.5l2 10q227 65 393 175q-53 54 -129 83.5t-164 29.5q-30 0 -68 -6z" />
    <glyph glyph-name="uni03F0" unicode="&#x3f0;" horiz-adv-x="545" 
d="M519 89l15 -24q-49 -77 -112 -77q-40 0 -62.5 32t-22.5 86q0 68 32 162l-4 4q-30 -31 -123.5 -134t-145.5 -150h-16q-24 8 -38 31.5t-10 39.5q26 12 75 52q34 54 34 145q0 57 -18 89.5t-50 32.5q-25 0 -49 -18l-11 24q57 67 116 67q37 0 57.5 -30.5t20.5 -81.5
q0 -77 -43 -182l5 -2q43 45 205 225q4 5 13.5 17.5t14.5 18.5t12.5 14.5t14 13t12.5 6.5q34 2 54 -36q6 -13 3 -26q-13 -12 -43 -38t-37 -32q-22 -52 -22 -130q0 -55 19 -88.5t50 -33.5q29 0 54 23z" />
    <glyph glyph-name="uni0401" unicode="&#x401;" horiz-adv-x="570" 
d="M520 164l30 -5q-16 -94 -35 -159h-486l-1 29q67 5 82.5 20t15.5 77v395q0 66 -13 80.5t-72 19.5v29h450q1 -12 4.5 -65.5t4.5 -79.5l-30 -5q-11 52 -34 86q-11 16 -34.5 22t-75.5 6h-72q-24 0 -29 -5t-5 -28v-225h90q66 0 82 12t26 63h30v-193h-30q-10 53 -26.5 65
t-81.5 12h-90v-185q0 -66 24 -82q19 -12 101 -12q54 0 80.5 7t43.5 26q29 35 51 95zM389 801q21 0 36 -15.5t15 -37.5q0 -21 -15 -36t-37 -15q-20 0 -35.5 15t-15.5 36q0 22 15.5 37.5t36.5 15.5zM195 800q21 0 35.5 -15t14.5 -37q0 -21 -15 -36.5t-36 -15.5t-36 15.5
t-15 36.5q0 22 15 37t37 15z" />
    <glyph glyph-name="uni0402" unicode="&#x402;" horiz-adv-x="723" 
d="M353 614v-250q82 30 123 30q92 0 148.5 -67t56.5 -169q0 -63 -21.5 -118.5t-57 -94.5t-76 -66.5t-85.5 -44.5l-14 29q152 94 152 286q0 90 -40.5 143t-105.5 53q-43 0 -80 -13v-202q0 -65 15.5 -80.5t84.5 -20.5v-29h-292v29q68 5 83 20t15 81v484h-53q-57 0 -79 -7
t-35 -25q-14 -20 -33 -91l-32 1q9 113 12 183h23q10 -16 21.5 -20.5t34.5 -4.5h399q23 0 33.5 5t22.5 20h25q0 -69 10 -182l-32 -3q-14 65 -35 94q-12 17 -34.5 23.5t-75.5 6.5h-78z" />
    <glyph glyph-name="uni0403" unicode="&#x403;" horiz-adv-x="516" 
d="M491 506l-31 -4q-16 60 -33 86q-20 26 -104 26h-63q-29 0 -35 -5t-6 -32v-449q0 -65 14.5 -79.5t81.5 -19.5v-29h-273v29q57 5 70 20t13 79v395q0 64 -12.5 78.5t-68.5 19.5v29h437q6 -108 10 -144zM412 756l-2 -9l-189 -63l-13 25q128 85 160 106q9 -2 25.5 -24
t18.5 -35z" />
    <glyph glyph-name="uni0404" unicode="&#x404;" horiz-adv-x="647" 
d="M526 309l-372 8q4 -134 70 -213.5t166 -79.5q61 0 96 25t63 70q25 42 46 42q11 0 18 -8.5t7 -22.5q0 -38 -55 -85q-74 -60 -188 -60q-83 0 -148.5 28t-105 75.5t-60 105.5t-20.5 122q0 156 101 252.5t265 96.5q86 0 174 -32q5 -29 11 -77.5t9 -67.5l-30 -6
q-22 80 -65.5 113.5t-117.5 33.5q-107 0 -169 -73t-67 -196l372 8v-59z" />
    <glyph glyph-name="uni0405" unicode="&#x405;" horiz-adv-x="480" 
d="M415 502l-31 -5q-16 60 -45 96.5t-87 36.5q-52 0 -80 -31.5t-28 -76.5q0 -49 29.5 -80t96.5 -65q41 -21 64 -35t52.5 -38.5t43.5 -56t14 -70.5q0 -82 -63 -137t-163 -55q-51 0 -98 15q-18 6 -52 21q-12 34 -27 158l30 8q7 -27 19 -52.5t31.5 -52.5t49.5 -43.5t66 -16.5
q54 0 85 31.5t31 85.5q0 49 -31 80.5t-96 66.5q-30 16 -46 25t-43 29t-41 38t-25.5 46t-11.5 60q0 77 57.5 129t152.5 52q50 0 128 -23q2 -19 8.5 -65.5t9.5 -74.5z" />
    <glyph glyph-name="uni0406" unicode="&#x406;" horiz-adv-x="347" 
d="M309 0h-272v29q61 5 75 19.5t14 77.5v398q0 63 -14 77.5t-75 19.5v29h272v-29q-61 -5 -75 -19.5t-14 -77.5v-398q0 -63 14 -77.5t75 -19.5v-29z" />
    <glyph glyph-name="uni0407" unicode="&#x407;" horiz-adv-x="347" 
d="M309 0h-271v29q61 5 74.5 19.5t13.5 77.5v398q0 63 -13.5 77.5t-74.5 19.5v29h271v-29q-61 -5 -74.5 -19.5t-13.5 -77.5v-398q0 -63 13.5 -77.5t74.5 -19.5v-29zM270 801l2 -1q21 0 35.5 -15.5t14.5 -37.5q0 -21 -15 -36t-36 -15t-36 15.5t-15 35.5q0 22 14.5 37.5
t35.5 16.5zM78 800q21 0 35.5 -15.5t14.5 -37.5q0 -21 -14.5 -36t-36.5 -15q-21 0 -36 15t-15 36q0 22 15 37.5t37 15.5z" />
    <glyph glyph-name="uni0408" unicode="&#x408;" horiz-adv-x="335" 
d="M309 650v-29q-41 -3 -56.5 -10t-21.5 -25t-6 -62v-366q0 -98 -19 -157.5t-70 -105.5q-49 -45 -98 -59l-13 30q79 37 96 128q10 63 10 192v338q0 63 -14 77.5t-75 19.5v29h267z" />
    <glyph glyph-name="uni0409" unicode="&#x409;" horiz-adv-x="892" 
d="M512 528v-146q60 6 96 6q120 0 182 -48.5t62 -135.5q0 -112 -91 -164q-69 -40 -201 -40h-229v29q45 3 60.5 9.5t22 25.5t6.5 67v429q0 38 -5 46t-32 8h-102q-26 0 -32 -5t-6 -26q0 -400 -108 -549q-37 -50 -74 -50q-25 0 -52 10v19q60 36 104 113q34 60 56.5 172.5
t22.5 254.5q0 41 -16.5 53t-77.5 16v28h505v-28q-62 -4 -76.5 -19.5t-14.5 -74.5zM512 348v-210q0 -62 16 -82t67 -20q67 0 109 39t42 122q0 80 -45 117.5t-123 37.5q-36 0 -66 -4z" />
    <glyph glyph-name="uni040A" unicode="&#x40a;" horiz-adv-x="964" 
d="M585 375h95q119 0 182.5 -46t63.5 -130q0 -108 -91 -160q-68 -39 -196 -39h-228v29q32 3 45 5.5t23.5 13.5t12 27.5t1.5 52.5v206h-274v-207q0 -65 13.5 -79.5t71.5 -18.5v-29h-263v29q57 4 71 19t14 79v399q0 62 -13.5 76.5t-72.5 18.5v29h263v-29q-57 -5 -70.5 -19.5
t-13.5 -74.5v-152h274v145q0 47 -5.5 65.5t-20 25.5t-54.5 10v29h258v-29q-59 -5 -72.5 -20t-13.5 -80v-146zM585 334v-211q0 -55 15 -71t67 -15q65 0 109 35.5t44 116.5q0 145 -170 145h-65z" />
    <glyph glyph-name="uni040B" unicode="&#x40b;" horiz-adv-x="778" 
d="M752 0h-245v28q48 5 59 19t11 71v106q0 120 -120 120q-54 0 -104 -21v-194q0 -65 13.5 -80.5t73.5 -20.5v-28h-274v28q64 4 78.5 20t14.5 81v485h-59q-59 0 -81 -8t-34 -29q-13 -23 -29 -81h-31q10 116 12 179h21q10 -16 21.5 -20.5t32.5 -4.5h412q20 0 30 5t22 20h24
q0 -74 10 -176l-31 -3q-19 65 -30 84q-12 20 -36 27t-81 7h-79v-258q102 39 151 39q88 0 132 -48q35 -38 35 -119v-109q0 -59 12.5 -72.5t68.5 -18.5v-28z" />
    <glyph glyph-name="uni040C" unicode="&#x40c;" horiz-adv-x="657" 
d="M642 0h-89q-46 0 -72 21.5t-50 70.5q-56 116 -69 142q-27 59 -58 77t-85 17v-200q0 -64 13 -79t71 -20v-29h-262v29q58 5 71 19.5t13 78.5v401q0 61 -13 74.5t-71 18.5v29h262v-29q-58 -5 -71 -18.5t-13 -74.5v-166q50 1 76.5 9t50.5 32q15 14 30 38.5t23.5 43.5t33.5 75
q47 103 118 105q25 0 40 -12t15 -30q0 -13 -12.5 -21.5t-28.5 -8.5h-22q-30 0 -51 -26.5t-60 -103.5q-40 -81 -97 -111v-3q78 -21 120 -95q8 -14 19.5 -36t28.5 -54.5t29 -54.5q24 -45 47.5 -60.5t62.5 -19.5v-29zM479 756l-2 -9l-189 -63l-13 25q28 19 82.5 55t77.5 51
q9 -2 25.5 -24t18.5 -35z" />
    <glyph glyph-name="uni040E" unicode="&#x40e;" horiz-adv-x="655" 
d="M642 650v-30q-49 -6 -66.5 -22.5t-47.5 -81.5q-15 -33 -84.5 -192.5t-92.5 -206.5q-68 -145 -164 -145q-25 0 -45.5 11.5t-25.5 28.5q-11 27 12 47q23 19 44 2q25 -21 58 -21q31 0 55.5 38t24.5 61q0 22 -17 59q-86 179 -176 356q-17 36 -34.5 47.5t-65.5 18.5v30h243
v-30l-29 -6q-21 -4 -23.5 -14.5t10.5 -38.5l152 -311q86 199 117 290q14 41 8 55.5t-35 19.5l-35 5v30h217zM338 697q-58 0 -91.5 22.5t-33.5 60.5q0 16 10.5 28.5t26.5 12.5q18 0 27.5 -13.5t8.5 -28.5q-1 -21 13 -32.5t40 -11.5q52 0 52 44q-2 16 8 29t28 13
q17 0 27.5 -12t10.5 -29q0 -38 -35 -60.5t-92 -22.5z" />
    <glyph glyph-name="uni040F" unicode="&#x40f;" horiz-adv-x="748" 
d="M712 0h-233q-36 0 -49.5 -11.5t-19.5 -40.5q-9 -49 -19 -144h-34q-10 102 -18 143q-6 29 -21.5 41t-54.5 12h-228v30q62 4 76.5 19.5t14.5 82.5v387q0 66 -14 81.5t-75 19.5v30h268v-30q-59 -4 -72 -19.5t-13 -81.5v-415q0 -44 12.5 -56t56.5 -12h163q51 0 64 10.5
t13 57.5v415q0 66 -13.5 81.5t-73.5 19.5v30h269v-30q-61 -4 -74.5 -19t-13.5 -81v-388q0 -65 14 -81.5t75 -20.5v-30z" />
    <glyph glyph-name="uni0410" unicode="&#x410;" horiz-adv-x="694" 
d="M676 0h-253v29q47 6 57.5 16.5t-0.5 40.5q-13 41 -52 146h-210q-15 -42 -43 -124q-15 -46 -4 -59.5t67 -19.5v-29h-219v29q50 7 68.5 23.5t43.5 79.5l207 523l35 10q159 -441 193 -533q24 -64 42 -81t68 -22v-29zM413 277l-85 248h-3q-53 -143 -91 -248h179z" />
    <glyph glyph-name="uni0411" unicode="&#x411;" horiz-adv-x="588" 
d="M218 578l1 -201q48 3 97 3q116 0 175 -47t59 -130q0 -110 -91 -162q-71 -41 -200 -41h-219v28q59 5 72.5 20t13.5 81v399q0 61 -12.5 75t-67.5 19v28h432q1 -6 4.5 -60.5t6.5 -83.5l-31 -6q-16 66 -35 88q-21 26 -98 26h-70q-25 0 -31 -5t-6 -31zM299 37q60 0 102.5 37.5
t42.5 117.5q0 150 -167 150q-23 0 -59 -2v-205q0 -61 15.5 -79.5t65.5 -18.5z" />
    <glyph glyph-name="uni0412" unicode="&#x412;" horiz-adv-x="597" 
d="M377 353v-2q179 -26 179 -159q0 -99 -95 -151q-71 -41 -198 -41h-227v29q64 4 77.5 19t13.5 78v400q0 62 -12.5 76.5t-70.5 18.5v29h262q103 0 154 -34q56 -38 56 -114q0 -63 -41.5 -99t-97.5 -50zM220 363h42q80 0 116.5 31.5t36.5 94.5q0 57 -32.5 92.5t-95.5 35.5
q-39 0 -55 -11q-12 -8 -12 -48v-195zM220 328v-201q0 -54 17 -73t64 -18q63 0 105.5 36.5t42.5 109.5q0 146 -188 146h-41z" />
    <glyph glyph-name="uni0413" unicode="&#x413;" horiz-adv-x="516" 
d="M491 506l-31 -4q-16 60 -33 86q-20 26 -104 26h-63q-29 0 -35 -5t-6 -32v-450q0 -64 14.5 -78.5t81.5 -19.5v-29h-273v29q57 5 70 19.5t13 78.5v396q0 64 -12.5 78.5t-68.5 19.5v29h437q6 -108 10 -144z" />
    <glyph glyph-name="uni0414" unicode="&#x414;" horiz-adv-x="654" 
d="M620 37l-24 -207h-31l-13 92q-6 48 -20 63t-52 15h-318q-40 0 -55 -16t-28 -68l-24 -86h-31l5 207h44q22 0 32 21q40 78 62 212t22 285q0 33 -11 44t-46 16l-39 6v29h519v-29q-59 -5 -72 -20.5t-13 -83.5v-428q0 -35 6 -43.5t28 -8.5h59zM433 110v437q0 48 -5.5 57
t-33.5 9h-114q-29 0 -35.5 -5t-6.5 -28q0 -316 -68 -512q-6 -16 -2.5 -23t22.5 -7h181q39 0 50.5 13t11.5 59z" />
    <glyph glyph-name="uni0415" unicode="&#x415;" horiz-adv-x="570" 
d="M520 164l30 -5q-16 -94 -35 -159h-487v29q67 5 82.5 20t15.5 77v395q0 66 -13 80.5t-72 19.5v29h450q1 -12 4.5 -65.5t4.5 -79.5l-30 -5q-11 52 -34 86q-11 16 -34.5 22t-75.5 6h-72q-24 0 -29 -5t-5 -28v-225h90q66 0 82 12t26 63h30v-193h-30q-10 53 -26.5 65t-81.5 12
h-90v-185q0 -66 24 -82q19 -12 101 -12q54 0 80.5 7t43.5 26q29 35 51 95z" />
    <glyph glyph-name="uni0416" unicode="&#x416;" horiz-adv-x="962" 
d="M945 0h-89q-46 0 -72.5 22t-49.5 70q-4 8 -17 35t-26.5 55.5t-25.5 52.5q-27 59 -57 77t-81 17v-199q0 -65 13.5 -80.5t71.5 -20.5v-29h-262v29q42 3 57.5 10t21.5 25.5t6 65.5v199q-52 1 -84 -17.5t-59 -76.5q-14 -29 -36.5 -79t-29.5 -64q-23 -48 -49 -70t-71 -22h-90
v29q39 4 63 20t48 61q16 29 42 78.5t35 65.5q24 42 51 63.5t65 32.5v3q-60 33 -102 122q-34 71 -53.5 94.5t-51.5 23.5h-20q-16 0 -27.5 8.5t-11.5 22.5q0 18 14.5 30t40.5 11q71 -2 117 -104q32 -73 49.5 -105.5t38.5 -52.5q24 -23 49 -31t72 -9v165q0 60 -13.5 74
t-71.5 19v29h262v-29q-58 -5 -71.5 -19t-13.5 -74v-165q47 1 72.5 9t49.5 31q21 20 37.5 51.5t48.5 105.5q47 103 119 105q25 1 39.5 -11.5t14.5 -29.5q0 -14 -12 -22.5t-29 -8.5h-20q-31 0 -50.5 -24t-52.5 -92q-41 -88 -102 -124v-3q39 -11 65 -32t51 -64q9 -16 35 -65.5
t42 -78.5q24 -45 47.5 -61t62.5 -20v-29z" />
    <glyph glyph-name="uni0417" unicode="&#x417;" horiz-adv-x="524" 
d="M314 360v-4q76 -12 123.5 -53.5t47.5 -118.5q0 -65 -39 -111.5t-94.5 -67t-118.5 -20.5q-99 0 -159 45q-48 38 -48 78q0 19 11 30t25 11q24 0 40 -37q40 -90 135 -92q53 -1 95.5 37t42.5 122q0 67 -36.5 110t-82.5 43q-12 0 -37.5 -5t-42.5 -5q-18 0 -30.5 9t-12.5 24
q0 14 12.5 23t31.5 9q15 0 41 -5t39 -5q36 1 66 33t30 87q0 64 -32.5 98.5t-84.5 34.5q-59 0 -92 -40.5t-54 -104.5l-31 4q8 38 18 137q1 0 28.5 9t43.5 14q64 16 106 16q91 0 144.5 -43t53.5 -112t-53 -107q-41 -31 -86 -43z" />
    <glyph glyph-name="uni0418" unicode="&#x418;" horiz-adv-x="758" 
d="M718 0h-263v29q59 5 72.5 19.5t13.5 79.5v256q0 88 4 185h-3l-306 -519q-9 -15 -9 -38v-12h-187v29q58 5 71.5 21t13.5 84v393q0 61 -13.5 75t-71.5 19v29h262v-29q-58 -5 -71.5 -19t-13.5 -74v-237q0 -97 -5 -198h3l304 513q11 19 11 34v10h188v-29q-58 -5 -71.5 -21
t-13.5 -82v-390q0 -46 6 -64t21.5 -25t57.5 -10v-29z" />
    <glyph glyph-name="uni0419" unicode="&#x419;" horiz-adv-x="758" 
d="M718 0h-263v29q59 5 72.5 19.5t13.5 79.5v256q0 88 4 185h-3l-306 -519q-9 -15 -9 -38v-12h-187v29q58 5 71.5 21t13.5 84v393q0 61 -13.5 75t-71.5 19v29h262v-29q-58 -5 -71.5 -19t-13.5 -74v-237q0 -97 -5 -198h3l304 513q11 19 11 34v10h188v-29q-58 -5 -71.5 -21
t-13.5 -82v-390q0 -46 6 -64t21.5 -25t57.5 -10v-29zM387 697q-57 0 -90.5 22.5t-33.5 60.5q0 16 10.5 28.5t26.5 12.5q18 0 27.5 -13.5t8.5 -28.5q-1 -21 12.5 -32.5t39.5 -11.5q27 0 40 12t12 32q-1 16 9 29t28 13q17 0 27 -12t10 -29q0 -38 -35 -60.5t-92 -22.5z" />
    <glyph glyph-name="uni041A" unicode="&#x41a;" horiz-adv-x="657" 
d="M642 0h-89q-46 0 -72 21.5t-50 70.5q-56 116 -69 142q-27 59 -58 77t-85 17v-200q0 -64 13 -79t71 -20v-29h-262v29q58 5 71 19.5t13 78.5v401q0 61 -13 74.5t-71 18.5v29h262v-29q-58 -5 -71 -18.5t-13 -74.5v-166q50 1 76 9.5t51 31.5q15 14 30 38.5t23.5 43.5t33.5 75
q47 103 118 105q25 0 40 -12t15 -30q0 -13 -12.5 -21.5t-28.5 -8.5h-22q-30 0 -51 -26.5t-60 -103.5q-40 -81 -97 -111v-3q78 -21 120 -95q8 -14 19.5 -36t28.5 -54.5t29 -54.5q24 -45 47.5 -60.5t62.5 -19.5v-29z" />
    <glyph glyph-name="uni041B" unicode="&#x41b;" horiz-adv-x="649" 
d="M608 0h-262v29q58 5 71 19.5t13 80.5v435q0 34 -5.5 41.5t-32.5 7.5h-105q-28 0 -34.5 -5.5t-6.5 -25.5q0 -400 -107 -548q-37 -50 -72 -50q-27 0 -55 10v19q66 42 104 112q36 64 58.5 175t22.5 256q0 37 -18 49t-78 16v29h507v-29q-57 -5 -70.5 -19t-13.5 -69v-404
q0 -65 13 -80t71 -20v-29z" />
    <glyph glyph-name="uni041C" unicode="&#x41c;" horiz-adv-x="890" 
d="M861 0h-269v29q60 6 72 23t11 95l-3 403h-4l-240 -543h-21l-221 530h-2l-14 -281q-6 -103 -3 -165q1 -34 20 -45t72 -16v-30h-235v30q44 5 61.5 17t22.5 42q10 59 20 184l14 206q2 35 3 54t-2 37t-7 25t-16.5 13.5t-25.5 8l-39 4.5v29h172l222 -489l226 489h175v-29
q-66 -6 -79 -21.5t-11 -89.5l9 -363q2 -79 15 -95.5t77 -22.5v-29z" />
    <glyph glyph-name="uni041D" unicode="&#x41d;" horiz-adv-x="769" 
d="M732 650v-29q-62 -5 -75.5 -19.5t-13.5 -76.5v-400q0 -62 13.5 -76.5t74.5 -19.5v-29h-274v29q64 5 78 19.5t14 76.5v197h-328v-197q0 -62 13.5 -76.5t74.5 -19.5v-29h-269v29q60 5 73.5 19.5t13.5 76.5v400q0 62 -13.5 76.5t-75.5 19.5v29h266v-29q-57 -5 -70 -19.5
t-13 -76.5v-159h328v159q0 62 -13 76.5t-72 19.5v29h268z" />
    <glyph glyph-name="uni041E" unicode="&#x41e;" horiz-adv-x="750" 
d="M383 665q133 0 228.5 -93t95.5 -239q0 -158 -97 -253t-239 -95q-139 0 -233.5 95.5t-94.5 238.5q0 141 93 243.5t247 102.5zM361 628q-86 0 -146 -75t-60 -208q0 -139 66.5 -231t170.5 -92q86 0 144.5 74t58.5 210q0 152 -66 237t-168 85z" />
    <glyph glyph-name="uni041F" unicode="&#x41f;" horiz-adv-x="740" 
d="M702 0h-269v29q60 5 73.5 19.5t13.5 81.5v423q0 41 -9 50.5t-48 9.5h-186q-39 0 -48 -10t-9 -54v-419q0 -66 13.5 -81t72.5 -20v-29h-268v29q60 5 74 20t14 81v392q0 47 -6.5 65t-22 24.5t-58.5 9.5v29h662v-29q-60 -5 -73.5 -19.5t-13.5 -80.5v-391q0 -67 13.5 -81.5
t74.5 -19.5v-29z" />
    <glyph glyph-name="uni0420" unicode="&#x420;" horiz-adv-x="569" 
d="M46 650h252q112 0 169 -41q66 -49 66 -143q0 -91 -57 -143t-139 -62q-22 -3 -44 -1l-73 19v-154q0 -62 15 -76.5t82 -19.5v-29h-277v29q59 5 73 20t14 77v397q0 65 -12.5 79t-68.5 19v29zM220 561v-248q24 -12 69 -12q56 0 97.5 37.5t41.5 124.5q0 77 -41 115.5
t-105 38.5q-40 0 -52 -12q-10 -9 -10 -44z" />
    <glyph glyph-name="uni0421" unicode="&#x421;" horiz-adv-x="667" 
d="M616 177l29 -11q-27 -96 -56 -155q-121 -26 -185 -26q-91 0 -162 29t-113.5 77t-64 105.5t-21.5 119.5q0 156 108 252.5t279 96.5q28 0 59 -3.5t49 -7.5t43 -10t27 -6q14 -98 20 -153l-31 -7q-20 79 -67 114t-125 35q-117 0 -184 -85t-67 -206q0 -139 72.5 -226
t184.5 -87q71 0 117.5 37.5t87.5 116.5z" />
    <glyph glyph-name="uni0422" unicode="&#x422;" horiz-adv-x="621" 
d="M596 495l-30 -3q-15 67 -34 92q-13 18 -33.5 24t-73.5 6h-66v-489q0 -61 16 -76.5t86 -19.5v-29h-294v29q67 4 82.5 19.5t15.5 76.5v489h-57q-59 0 -82 -6.5t-34 -24.5q-16 -23 -33 -91h-31q10 120 12 183h21q11 -16 21.5 -20.5t33.5 -4.5h397q20 0 29.5 5t21.5 20h22
q0 -62 10 -180z" />
    <glyph glyph-name="uni0423" unicode="&#x423;" horiz-adv-x="655" 
d="M642 650v-30q-49 -6 -66.5 -22.5t-47.5 -81.5q-13 -29 -83.5 -189.5t-93.5 -209.5q-69 -146 -164 -146q-26 0 -46 11.5t-25 29.5q-11 27 12 47q22 18 44 2q25 -21 58 -21q31 0 55.5 38t24.5 61q0 21 -17 59q-131 269 -176 356q-17 36 -34.5 47.5t-65.5 18.5v30h243v-30
l-29 -6q-21 -4 -23.5 -14.5t10.5 -38.5l152 -311q86 199 117 290q14 41 8 55.5t-35 19.5l-35 5v30h217z" />
    <glyph glyph-name="uni0424" unicode="&#x424;" horiz-adv-x="771" 
d="M501 658v-29q-49 -3 -61 -12t-12 -46q57 -2 105.5 -13.5t95.5 -36.5t74 -73t27 -114q0 -53 -18.5 -94t-48 -66.5t-70 -42.5t-80.5 -24.5t-85 -8.5q1 -45 12 -55.5t62 -13.5v-29h-241v29q51 3 62.5 13.5t11.5 55.5q-55 1 -102.5 12.5t-93 36.5t-72 73t-26.5 114
q0 65 26.5 112.5t72 73t93 37.5t101.5 14q1 38 -10.5 47t-61.5 11v29h239zM336 161v327q0 31 -1 50q-193 -10 -193 -204q0 -55 16.5 -95.5t45 -62.5t60.5 -32.5t71 -12.5q1 6 1 30zM427 493v-337v-25q90 3 146 50.5t56 151.5q0 108 -57 155t-145 50v-45z" />
    <glyph glyph-name="uni0425" unicode="&#x425;" horiz-adv-x="661" 
d="M663 0h-273v29q45 6 54 16t-6 35q-50 84 -127 208q-75 -114 -120 -198q-18 -32 -9.5 -43t58.5 -18v-29h-233v29q80 8 117 56q50 63 164 236q-31 50 -80 128.5t-56 89.5q-30 47 -52 61.5t-75 20.5v29h256v-29q-43 -6 -51 -15t5 -28q37 -65 110 -177q63 95 97 159
q19 31 10.5 42.5t-57.5 18.5v29h231v-29q-55 -6 -79.5 -19.5t-57.5 -56.5q-34 -43 -122 -176q86 -137 159 -250q34 -51 59.5 -68t77.5 -22v-29z" />
    <glyph glyph-name="uni0426" unicode="&#x426;" horiz-adv-x="748" 
d="M708 39l-24 -209h-32l-13 92q-6 48 -20 63t-52 15h-530v29q43 3 59 9.5t22.5 25.5t6.5 66v396q0 62 -14 76.5t-73 19.5v28h268v-28q-59 -5 -73 -19.5t-14 -76.5v-417q0 -48 10.5 -59.5t56.5 -11.5h168q45 0 56 10t11 56v416q0 66 -13.5 81.5t-73.5 20.5v28h266v-28
q-58 -5 -71.5 -20.5t-13.5 -81.5v-431q0 -34 6 -42t28 -8h59z" />
    </font>
</defs>
</svg>
